solid OpenSCAD_Model
  facet normal -0.987686 -0.156446 0
    outer loop
      vertex -7.39 7.62 0
      vertex -7.46342 8.08352 2
      vertex -7.46342 8.08352 0
    endloop
  endfacet
  facet normal -0.987686 -0.156446 0
    outer loop
      vertex -7.46342 8.08352 2
      vertex -7.39 7.62 0
      vertex -7.39 7.62 2
    endloop
  endfacet
  facet normal 0.987694 0.156401 0
    outer loop
      vertex -10.3166 7.15647 2
      vertex -10.39 7.62 0
      vertex -10.39 7.62 2
    endloop
  endfacet
  facet normal 0.987694 0.156401 0
    outer loop
      vertex -10.39 7.62 0
      vertex -10.3166 7.15647 2
      vertex -10.3166 7.15647 0
    endloop
  endfacet
  facet normal 0.156443 -0.987687 0
    outer loop
      vertex -9.35353 9.04658 0
      vertex -8.89 9.12 2
      vertex -9.35353 9.04658 2
    endloop
  endfacet
  facet normal 0.156443 -0.987687 0
    outer loop
      vertex -8.89 9.12 2
      vertex -9.35353 9.04658 0
      vertex -8.89 9.12 0
    endloop
  endfacet
  facet normal -0.156422 0.98769 0
    outer loop
      vertex -8.42647 6.19341 0
      vertex -8.89 6.12 2
      vertex -8.42647 6.19341 2
    endloop
  endfacet
  facet normal -0.156422 0.98769 0
    outer loop
      vertex -8.89 6.12 2
      vertex -8.42647 6.19341 0
      vertex -8.89 6.12 0
    endloop
  endfacet
  facet normal 0.453994 0.891005 -0
    outer loop
      vertex -9.35353 6.19341 0
      vertex -9.77168 6.40647 2
      vertex -9.35353 6.19341 2
    endloop
  endfacet
  facet normal 0.453994 0.891005 0
    outer loop
      vertex -9.77168 6.40647 2
      vertex -9.35353 6.19341 0
      vertex -9.77168 6.40647 0
    endloop
  endfacet
  facet normal -0.453994 -0.891005 0
    outer loop
      vertex -8.42647 9.04658 0
      vertex -8.00832 8.83352 2
      vertex -8.42647 9.04658 2
    endloop
  endfacet
  facet normal -0.453994 -0.891005 -0
    outer loop
      vertex -8.00832 8.83352 2
      vertex -8.42647 9.04658 0
      vertex -8.00832 8.83352 0
    endloop
  endfacet
  facet normal -0.891018 -0.453968 0
    outer loop
      vertex -7.46342 8.08352 0
      vertex -7.67647 8.50168 2
      vertex -7.67647 8.50168 0
    endloop
  endfacet
  facet normal -0.891018 -0.453968 0
    outer loop
      vertex -7.67647 8.50168 2
      vertex -7.46342 8.08352 0
      vertex -7.46342 8.08352 2
    endloop
  endfacet
  facet normal -0.156443 -0.987687 0
    outer loop
      vertex -8.89 9.12 0
      vertex -8.42647 9.04658 2
      vertex -8.89 9.12 2
    endloop
  endfacet
  facet normal -0.156443 -0.987687 -0
    outer loop
      vertex -8.42647 9.04658 2
      vertex -8.89 9.12 0
      vertex -8.42647 9.04658 0
    endloop
  endfacet
  facet normal 0.707128 -0.707085 0
    outer loop
      vertex -10.1035 8.50168 0
      vertex -9.77168 8.83352 2
      vertex -10.1035 8.50168 2
    endloop
  endfacet
  facet normal 0.707128 -0.707085 0
    outer loop
      vertex -9.77168 8.83352 2
      vertex -10.1035 8.50168 0
      vertex -9.77168 8.83352 0
    endloop
  endfacet
  facet normal 0.890975 -0.454053 0
    outer loop
      vertex -10.3166 8.08352 2
      vertex -10.1035 8.50168 0
      vertex -10.1035 8.50168 2
    endloop
  endfacet
  facet normal 0.890975 -0.454053 0
    outer loop
      vertex -10.1035 8.50168 0
      vertex -10.3166 8.08352 2
      vertex -10.3166 8.08352 0
    endloop
  endfacet
  facet normal 0.453994 -0.891005 0
    outer loop
      vertex -9.77168 8.83352 0
      vertex -9.35353 9.04658 2
      vertex -9.77168 8.83352 2
    endloop
  endfacet
  facet normal 0.453994 -0.891005 0
    outer loop
      vertex -9.35353 9.04658 2
      vertex -9.77168 8.83352 0
      vertex -9.35353 9.04658 0
    endloop
  endfacet
  facet normal 0.156422 0.98769 -0
    outer loop
      vertex -8.89 6.12 0
      vertex -9.35353 6.19341 2
      vertex -8.89 6.12 2
    endloop
  endfacet
  facet normal 0.156422 0.98769 0
    outer loop
      vertex -9.35353 6.19341 2
      vertex -8.89 6.12 0
      vertex -9.35353 6.19341 0
    endloop
  endfacet
  facet normal 0.89097 0.454061 0
    outer loop
      vertex -10.1035 6.73832 2
      vertex -10.3166 7.15647 0
      vertex -10.3166 7.15647 2
    endloop
  endfacet
  facet normal 0.89097 0.454061 0
    outer loop
      vertex -10.3166 7.15647 0
      vertex -10.1035 6.73832 2
      vertex -10.1035 6.73832 0
    endloop
  endfacet
  facet normal -0.707096 -0.707117 0
    outer loop
      vertex -8.00832 8.83352 0
      vertex -7.67647 8.50168 2
      vertex -8.00832 8.83352 2
    endloop
  endfacet
  facet normal -0.707096 -0.707117 -0
    outer loop
      vertex -7.67647 8.50168 2
      vertex -8.00832 8.83352 0
      vertex -7.67647 8.50168 0
    endloop
  endfacet
  facet normal 0.987693 -0.156405 0
    outer loop
      vertex -10.39 7.62 2
      vertex -10.3166 8.08352 0
      vertex -10.3166 8.08352 2
    endloop
  endfacet
  facet normal 0.987693 -0.156405 0
    outer loop
      vertex -10.3166 8.08352 0
      vertex -10.39 7.62 2
      vertex -10.39 7.62 0
    endloop
  endfacet
  facet normal -0.987687 0.156443 0
    outer loop
      vertex -7.46342 7.15647 0
      vertex -7.39 7.62 2
      vertex -7.39 7.62 0
    endloop
  endfacet
  facet normal -0.987687 0.156443 0
    outer loop
      vertex -7.39 7.62 2
      vertex -7.46342 7.15647 0
      vertex -7.46342 7.15647 2
    endloop
  endfacet
  facet normal -0.707107 0.707107 0
    outer loop
      vertex -7.67647 6.73832 0
      vertex -8.00832 6.40647 2
      vertex -7.67647 6.73832 2
    endloop
  endfacet
  facet normal -0.707107 0.707107 0
    outer loop
      vertex -8.00832 6.40647 2
      vertex -7.67647 6.73832 0
      vertex -8.00832 6.40647 0
    endloop
  endfacet
  facet normal -0.453994 0.891005 0
    outer loop
      vertex -8.00832 6.40647 0
      vertex -8.42647 6.19341 2
      vertex -8.00832 6.40647 2
    endloop
  endfacet
  facet normal -0.453994 0.891005 0
    outer loop
      vertex -8.42647 6.19341 2
      vertex -8.00832 6.40647 0
      vertex -8.42647 6.19341 0
    endloop
  endfacet
  facet normal -0.891013 0.453977 0
    outer loop
      vertex -7.67647 6.73832 0
      vertex -7.46342 7.15647 2
      vertex -7.46342 7.15647 0
    endloop
  endfacet
  facet normal -0.891013 0.453977 0
    outer loop
      vertex -7.46342 7.15647 2
      vertex -7.67647 6.73832 0
      vertex -7.67647 6.73832 2
    endloop
  endfacet
  facet normal 0.707139 0.707075 -0
    outer loop
      vertex -9.77168 6.40647 0
      vertex -10.1035 6.73832 2
      vertex -9.77168 6.40647 2
    endloop
  endfacet
  facet normal 0.707139 0.707075 0
    outer loop
      vertex -10.1035 6.73832 2
      vertex -9.77168 6.40647 0
      vertex -10.1035 6.73832 0
    endloop
  endfacet
  facet normal -0.987693 -0.156403 0
    outer loop
      vertex 10.39 0 0
      vertex 10.3166 0.463525 2
      vertex 10.3166 0.463525 0
    endloop
  endfacet
  facet normal -0.987693 -0.156403 0
    outer loop
      vertex 10.3166 0.463525 2
      vertex 10.39 0 0
      vertex 10.39 0 2
    endloop
  endfacet
  facet normal 0.987687 -0.156445 0
    outer loop
      vertex 7.39 0 2
      vertex 7.46342 0.463525 0
      vertex 7.46342 0.463525 2
    endloop
  endfacet
  facet normal 0.987687 -0.156445 0
    outer loop
      vertex 7.46342 0.463525 0
      vertex 7.39 0 2
      vertex 7.39 0 0
    endloop
  endfacet
  facet normal -0.156443 -0.987687 0
    outer loop
      vertex 8.89 1.5 0
      vertex 9.35353 1.42658 2
      vertex 8.89 1.5 2
    endloop
  endfacet
  facet normal -0.156443 -0.987687 -0
    outer loop
      vertex 9.35353 1.42658 2
      vertex 8.89 1.5 0
      vertex 9.35353 1.42658 0
    endloop
  endfacet
  facet normal -0.70713 -0.707083 0
    outer loop
      vertex 9.77168 1.21352 0
      vertex 10.1035 0.881678 2
      vertex 9.77168 1.21352 2
    endloop
  endfacet
  facet normal -0.70713 -0.707083 -0
    outer loop
      vertex 10.1035 0.881678 2
      vertex 9.77168 1.21352 0
      vertex 10.1035 0.881678 0
    endloop
  endfacet
  facet normal -0.890972 -0.454059 0
    outer loop
      vertex 10.3166 0.463525 0
      vertex 10.1035 0.881678 2
      vertex 10.1035 0.881678 0
    endloop
  endfacet
  facet normal -0.890972 -0.454059 0
    outer loop
      vertex 10.1035 0.881678 2
      vertex 10.3166 0.463525 0
      vertex 10.3166 0.463525 2
    endloop
  endfacet
  facet normal -0.453994 -0.891005 0
    outer loop
      vertex 9.35353 1.42658 0
      vertex 9.77168 1.21352 2
      vertex 9.35353 1.42658 2
    endloop
  endfacet
  facet normal -0.453994 -0.891005 -0
    outer loop
      vertex 9.77168 1.21352 2
      vertex 9.35353 1.42658 0
      vertex 9.77168 1.21352 0
    endloop
  endfacet
  facet normal 0.707098 -0.707115 0
    outer loop
      vertex 7.67647 0.881678 0
      vertex 8.00832 1.21352 2
      vertex 7.67647 0.881678 2
    endloop
  endfacet
  facet normal 0.707098 -0.707115 0
    outer loop
      vertex 8.00832 1.21352 2
      vertex 7.67647 0.881678 0
      vertex 8.00832 1.21352 0
    endloop
  endfacet
  facet normal 0.891015 -0.453974 0
    outer loop
      vertex 7.46342 0.463525 2
      vertex 7.67647 0.881678 0
      vertex 7.67647 0.881678 2
    endloop
  endfacet
  facet normal 0.891015 -0.453974 0
    outer loop
      vertex 7.67647 0.881678 0
      vertex 7.46342 0.463525 2
      vertex 7.46342 0.463525 0
    endloop
  endfacet
  facet normal 0.156443 -0.987687 0
    outer loop
      vertex 8.42647 1.42658 0
      vertex 8.89 1.5 2
      vertex 8.42647 1.42658 2
    endloop
  endfacet
  facet normal 0.156443 -0.987687 0
    outer loop
      vertex 8.89 1.5 2
      vertex 8.42647 1.42658 0
      vertex 8.89 1.5 0
    endloop
  endfacet
  facet normal -0.156443 0.987687 0
    outer loop
      vertex 9.35353 -1.42658 0
      vertex 8.89 -1.5 2
      vertex 9.35353 -1.42658 2
    endloop
  endfacet
  facet normal -0.156443 0.987687 0
    outer loop
      vertex 8.89 -1.5 2
      vertex 9.35353 -1.42658 0
      vertex 8.89 -1.5 0
    endloop
  endfacet
  facet normal -0.890972 0.454059 0
    outer loop
      vertex 10.1035 -0.881678 0
      vertex 10.3166 -0.463525 2
      vertex 10.3166 -0.463525 0
    endloop
  endfacet
  facet normal -0.890972 0.454059 0
    outer loop
      vertex 10.3166 -0.463525 2
      vertex 10.1035 -0.881678 0
      vertex 10.1035 -0.881678 2
    endloop
  endfacet
  facet normal 0.987687 0.156445 0
    outer loop
      vertex 7.46342 -0.463525 2
      vertex 7.39 0 0
      vertex 7.39 0 2
    endloop
  endfacet
  facet normal 0.987687 0.156445 0
    outer loop
      vertex 7.39 0 0
      vertex 7.46342 -0.463525 2
      vertex 7.46342 -0.463525 0
    endloop
  endfacet
  facet normal 0.453994 -0.891005 0
    outer loop
      vertex 8.00832 1.21352 0
      vertex 8.42647 1.42658 2
      vertex 8.00832 1.21352 2
    endloop
  endfacet
  facet normal 0.453994 -0.891005 0
    outer loop
      vertex 8.42647 1.42658 2
      vertex 8.00832 1.21352 0
      vertex 8.42647 1.42658 0
    endloop
  endfacet
  facet normal -0.987693 0.156403 0
    outer loop
      vertex 10.3166 -0.463525 0
      vertex 10.39 0 2
      vertex 10.39 0 0
    endloop
  endfacet
  facet normal -0.987693 0.156403 0
    outer loop
      vertex 10.39 0 2
      vertex 10.3166 -0.463525 0
      vertex 10.3166 -0.463525 2
    endloop
  endfacet
  facet normal -0.453994 0.891005 0
    outer loop
      vertex 9.77168 -1.21352 0
      vertex 9.35353 -1.42658 2
      vertex 9.77168 -1.21352 2
    endloop
  endfacet
  facet normal -0.453994 0.891005 0
    outer loop
      vertex 9.35353 -1.42658 2
      vertex 9.77168 -1.21352 0
      vertex 9.35353 -1.42658 0
    endloop
  endfacet
  facet normal 0.707098 0.707115 -0
    outer loop
      vertex 8.00832 -1.21352 0
      vertex 7.67647 -0.881678 2
      vertex 8.00832 -1.21352 2
    endloop
  endfacet
  facet normal 0.707098 0.707115 0
    outer loop
      vertex 7.67647 -0.881678 2
      vertex 8.00832 -1.21352 0
      vertex 7.67647 -0.881678 0
    endloop
  endfacet
  facet normal 0.156443 0.987687 -0
    outer loop
      vertex 8.89 -1.5 0
      vertex 8.42647 -1.42658 2
      vertex 8.89 -1.5 2
    endloop
  endfacet
  facet normal 0.156443 0.987687 0
    outer loop
      vertex 8.42647 -1.42658 2
      vertex 8.89 -1.5 0
      vertex 8.42647 -1.42658 0
    endloop
  endfacet
  facet normal 0.891015 0.453974 0
    outer loop
      vertex 7.67647 -0.881678 2
      vertex 7.46342 -0.463525 0
      vertex 7.46342 -0.463525 2
    endloop
  endfacet
  facet normal 0.891015 0.453974 0
    outer loop
      vertex 7.46342 -0.463525 0
      vertex 7.67647 -0.881678 2
      vertex 7.67647 -0.881678 0
    endloop
  endfacet
  facet normal -0.70713 0.707083 0
    outer loop
      vertex 10.1035 -0.881678 0
      vertex 9.77168 -1.21352 2
      vertex 10.1035 -0.881678 2
    endloop
  endfacet
  facet normal -0.70713 0.707083 0
    outer loop
      vertex 9.77168 -1.21352 2
      vertex 10.1035 -0.881678 0
      vertex 9.77168 -1.21352 0
    endloop
  endfacet
  facet normal 0.453994 0.891005 -0
    outer loop
      vertex 8.42647 -1.42658 0
      vertex 8.00832 -1.21352 2
      vertex 8.42647 -1.42658 2
    endloop
  endfacet
  facet normal 0.453994 0.891005 0
    outer loop
      vertex 8.00832 -1.21352 2
      vertex 8.42647 -1.42658 0
      vertex 8.00832 -1.21352 0
    endloop
  endfacet
  facet normal -0.987687 -0.156443 0
    outer loop
      vertex -7.39 -7.62 0
      vertex -7.46342 -7.15647 2
      vertex -7.46342 -7.15647 0
    endloop
  endfacet
  facet normal -0.987687 -0.156443 0
    outer loop
      vertex -7.46342 -7.15647 2
      vertex -7.39 -7.62 0
      vertex -7.39 -7.62 2
    endloop
  endfacet
  facet normal 0.987693 0.156405 0
    outer loop
      vertex -10.3166 -8.08352 2
      vertex -10.39 -7.62 0
      vertex -10.39 -7.62 2
    endloop
  endfacet
  facet normal 0.987693 0.156405 0
    outer loop
      vertex -10.39 -7.62 0
      vertex -10.3166 -8.08352 2
      vertex -10.3166 -8.08352 0
    endloop
  endfacet
  facet normal 0.156422 -0.98769 0
    outer loop
      vertex -9.35353 -6.19341 0
      vertex -8.89 -6.12 2
      vertex -9.35353 -6.19341 2
    endloop
  endfacet
  facet normal 0.156422 -0.98769 0
    outer loop
      vertex -8.89 -6.12 2
      vertex -9.35353 -6.19341 0
      vertex -8.89 -6.12 0
    endloop
  endfacet
  facet normal -0.156443 0.987687 0
    outer loop
      vertex -8.42647 -9.04658 0
      vertex -8.89 -9.12 2
      vertex -8.42647 -9.04658 2
    endloop
  endfacet
  facet normal -0.156443 0.987687 0
    outer loop
      vertex -8.89 -9.12 2
      vertex -8.42647 -9.04658 0
      vertex -8.89 -9.12 0
    endloop
  endfacet
  facet normal -0.453994 0.891005 0
    outer loop
      vertex -8.00832 -8.83352 0
      vertex -8.42647 -9.04658 2
      vertex -8.00832 -8.83352 2
    endloop
  endfacet
  facet normal -0.453994 0.891005 0
    outer loop
      vertex -8.42647 -9.04658 2
      vertex -8.00832 -8.83352 0
      vertex -8.42647 -9.04658 0
    endloop
  endfacet
  facet normal -0.453994 -0.891005 0
    outer loop
      vertex -8.42647 -6.19341 0
      vertex -8.00832 -6.40647 2
      vertex -8.42647 -6.19341 2
    endloop
  endfacet
  facet normal -0.453994 -0.891005 -0
    outer loop
      vertex -8.00832 -6.40647 2
      vertex -8.42647 -6.19341 0
      vertex -8.00832 -6.40647 0
    endloop
  endfacet
  facet normal -0.891013 -0.453977 0
    outer loop
      vertex -7.46342 -7.15647 0
      vertex -7.67647 -6.73832 2
      vertex -7.67647 -6.73832 0
    endloop
  endfacet
  facet normal -0.891013 -0.453977 0
    outer loop
      vertex -7.67647 -6.73832 2
      vertex -7.46342 -7.15647 0
      vertex -7.46342 -7.15647 2
    endloop
  endfacet
  facet normal -0.156422 -0.98769 0
    outer loop
      vertex -8.89 -6.12 0
      vertex -8.42647 -6.19341 2
      vertex -8.89 -6.12 2
    endloop
  endfacet
  facet normal -0.156422 -0.98769 -0
    outer loop
      vertex -8.42647 -6.19341 2
      vertex -8.89 -6.12 0
      vertex -8.42647 -6.19341 0
    endloop
  endfacet
  facet normal 0.707139 -0.707075 0
    outer loop
      vertex -10.1035 -6.73832 0
      vertex -9.77168 -6.40647 2
      vertex -10.1035 -6.73832 2
    endloop
  endfacet
  facet normal 0.707139 -0.707075 0
    outer loop
      vertex -9.77168 -6.40647 2
      vertex -10.1035 -6.73832 0
      vertex -9.77168 -6.40647 0
    endloop
  endfacet
  facet normal 0.89097 -0.454061 0
    outer loop
      vertex -10.3166 -7.15647 2
      vertex -10.1035 -6.73832 0
      vertex -10.1035 -6.73832 2
    endloop
  endfacet
  facet normal 0.89097 -0.454061 0
    outer loop
      vertex -10.1035 -6.73832 0
      vertex -10.3166 -7.15647 2
      vertex -10.3166 -7.15647 0
    endloop
  endfacet
  facet normal 0.453994 -0.891005 0
    outer loop
      vertex -9.77168 -6.40647 0
      vertex -9.35353 -6.19341 2
      vertex -9.77168 -6.40647 2
    endloop
  endfacet
  facet normal 0.453994 -0.891005 0
    outer loop
      vertex -9.35353 -6.19341 2
      vertex -9.77168 -6.40647 0
      vertex -9.35353 -6.19341 0
    endloop
  endfacet
  facet normal -0.707107 -0.707107 0
    outer loop
      vertex -8.00832 -6.40647 0
      vertex -7.67647 -6.73832 2
      vertex -8.00832 -6.40647 2
    endloop
  endfacet
  facet normal -0.707107 -0.707107 -0
    outer loop
      vertex -7.67647 -6.73832 2
      vertex -8.00832 -6.40647 0
      vertex -7.67647 -6.73832 0
    endloop
  endfacet
  facet normal 0.987694 -0.156401 0
    outer loop
      vertex -10.39 -7.62 2
      vertex -10.3166 -7.15647 0
      vertex -10.3166 -7.15647 2
    endloop
  endfacet
  facet normal 0.987694 -0.156401 0
    outer loop
      vertex -10.3166 -7.15647 0
      vertex -10.39 -7.62 2
      vertex -10.39 -7.62 0
    endloop
  endfacet
  facet normal -0.707096 0.707117 0
    outer loop
      vertex -7.67647 -8.50168 0
      vertex -8.00832 -8.83352 2
      vertex -7.67647 -8.50168 2
    endloop
  endfacet
  facet normal -0.707096 0.707117 0
    outer loop
      vertex -8.00832 -8.83352 2
      vertex -7.67647 -8.50168 0
      vertex -8.00832 -8.83352 0
    endloop
  endfacet
  facet normal -0.891018 0.453968 0
    outer loop
      vertex -7.67647 -8.50168 0
      vertex -7.46342 -8.08352 2
      vertex -7.46342 -8.08352 0
    endloop
  endfacet
  facet normal -0.891018 0.453968 0
    outer loop
      vertex -7.46342 -8.08352 2
      vertex -7.67647 -8.50168 0
      vertex -7.67647 -8.50168 2
    endloop
  endfacet
  facet normal 0.156443 0.987687 -0
    outer loop
      vertex -8.89 -9.12 0
      vertex -9.35353 -9.04658 2
      vertex -8.89 -9.12 2
    endloop
  endfacet
  facet normal 0.156443 0.987687 0
    outer loop
      vertex -9.35353 -9.04658 2
      vertex -8.89 -9.12 0
      vertex -9.35353 -9.04658 0
    endloop
  endfacet
  facet normal 0.707128 0.707085 -0
    outer loop
      vertex -9.77168 -8.83352 0
      vertex -10.1035 -8.50168 2
      vertex -9.77168 -8.83352 2
    endloop
  endfacet
  facet normal 0.707128 0.707085 0
    outer loop
      vertex -10.1035 -8.50168 2
      vertex -9.77168 -8.83352 0
      vertex -10.1035 -8.50168 0
    endloop
  endfacet
  facet normal 0.890975 0.454053 0
    outer loop
      vertex -10.1035 -8.50168 2
      vertex -10.3166 -8.08352 0
      vertex -10.3166 -8.08352 2
    endloop
  endfacet
  facet normal 0.890975 0.454053 0
    outer loop
      vertex -10.3166 -8.08352 0
      vertex -10.1035 -8.50168 2
      vertex -10.1035 -8.50168 0
    endloop
  endfacet
  facet normal -0.987686 0.156446 0
    outer loop
      vertex -7.46342 -8.08352 0
      vertex -7.39 -7.62 2
      vertex -7.39 -7.62 0
    endloop
  endfacet
  facet normal -0.987686 0.156446 0
    outer loop
      vertex -7.39 -7.62 2
      vertex -7.46342 -8.08352 0
      vertex -7.46342 -8.08352 2
    endloop
  endfacet
  facet normal 0.453994 0.891005 -0
    outer loop
      vertex -9.35353 -9.04658 0
      vertex -9.77168 -8.83352 2
      vertex -9.35353 -9.04658 2
    endloop
  endfacet
  facet normal 0.453994 0.891005 0
    outer loop
      vertex -9.77168 -8.83352 2
      vertex -9.35353 -9.04658 0
      vertex -9.77168 -8.83352 0
    endloop
  endfacet
  facet normal 0.866027 0.499997 -0
    outer loop
      vertex 18.7032 5 7.30803
      vertex 10.795 18.6975 30
      vertex 18.7032 5 29.014
    endloop
  endfacet
  facet normal 0.866026 0.5 -4.42978e-05
    outer loop
      vertex 21.59 0 30
      vertex 18.7032 5 29.014
      vertex 10.795 18.6975 30
    endloop
  endfacet
  facet normal 0.866022 0.500006 0
    outer loop
      vertex 18.7032 5 29.014
      vertex 21.59 0 30
      vertex 21.59 0 28.2405
    endloop
  endfacet
  facet normal 0.866027 0.499997 0
    outer loop
      vertex 10.795 18.6975 30
      vertex 18.7032 5 7.30803
      vertex 10.795 18.6975 0
    endloop
  endfacet
  facet normal 0.866026 0.5 5.97666e-06
    outer loop
      vertex 18.7032 5 7.30803
      vertex 21.59 0 0
      vertex 10.795 18.6975 0
    endloop
  endfacet
  facet normal 0.866022 0.500006 -0
    outer loop
      vertex 21.59 0 0
      vertex 18.7032 5 7.30803
      vertex 21.59 0 18.0815
    endloop
  endfacet
  facet normal -0.866027 0.499997 0
    outer loop
      vertex -10.795 18.6975 0
      vertex -18.7032 5 6.12456
      vertex -10.795 18.6975 30
    endloop
  endfacet
  facet normal -0.866026 0.5 7.13155e-06
    outer loop
      vertex -21.59 0 0
      vertex -18.7032 5 6.12456
      vertex -10.795 18.6975 0
    endloop
  endfacet
  facet normal -0.866022 0.500006 0
    outer loop
      vertex -18.7032 5 6.12456
      vertex -21.59 0 0
      vertex -21.59 0 16.8981
    endloop
  endfacet
  facet normal -0.866027 0.499997 0
    outer loop
      vertex -18.7032 5 29.1935
      vertex -10.795 18.6975 30
      vertex -18.7032 5 6.12456
    endloop
  endfacet
  facet normal -0.866026 0.5 -5.4157e-05
    outer loop
      vertex -18.7032 5 29.1935
      vertex -21.59 0 30
      vertex -10.795 18.6975 30
    endloop
  endfacet
  facet normal -0.866022 0.500006 0
    outer loop
      vertex -21.59 0 30
      vertex -18.7032 5 29.1935
      vertex -21.59 0 28.42
    endloop
  endfacet
  facet normal 0 1 -0
    outer loop
      vertex 10.795 18.6975 0
      vertex -10.795 18.6975 30
      vertex 10.795 18.6975 30
    endloop
  endfacet
  facet normal 0 1 0
    outer loop
      vertex -10.795 18.6975 30
      vertex 10.795 18.6975 0
      vertex -10.795 18.6975 0
    endloop
  endfacet
  facet normal 0 0 1
    outer loop
      vertex 10.795 18.6975 30
      vertex 20.32 0 30
      vertex 21.59 0 30
    endloop
  endfacet
  facet normal 0 0 1
    outer loop
      vertex 10.795 18.6975 30
      vertex 10.16 17.5976 30
      vertex 20.32 0 30
    endloop
  endfacet
  facet normal 0 0 1
    outer loop
      vertex 10.795 18.6975 30
      vertex -10.16 17.5976 30
      vertex 10.16 17.5976 30
    endloop
  endfacet
  facet normal -0 0 1
    outer loop
      vertex -10.795 18.6975 30
      vertex -10.16 17.5976 30
      vertex 10.795 18.6975 30
    endloop
  endfacet
  facet normal 0 0 1
    outer loop
      vertex -10.795 18.6975 30
      vertex -20.32 0 30
      vertex -10.16 17.5976 30
    endloop
  endfacet
  facet normal 0 -0 1
    outer loop
      vertex -20.32 0 30
      vertex -10.795 18.6975 30
      vertex -21.59 0 30
    endloop
  endfacet
  facet normal -0 0 1
    outer loop
      vertex 20.32 0 30
      vertex 10.795 -18.6975 30
      vertex 21.59 0 30
    endloop
  endfacet
  facet normal -0 0 1
    outer loop
      vertex 10.16 -17.5976 30
      vertex 10.795 -18.6975 30
      vertex 20.32 0 30
    endloop
  endfacet
  facet normal -0 0 1
    outer loop
      vertex -10.16 -17.5976 30
      vertex 10.795 -18.6975 30
      vertex 10.16 -17.5976 30
    endloop
  endfacet
  facet normal 0 0 1
    outer loop
      vertex -10.16 -17.5976 30
      vertex -10.795 -18.6975 30
      vertex 10.795 -18.6975 30
    endloop
  endfacet
  facet normal 0 0 1
    outer loop
      vertex -20.32 0 30
      vertex -10.795 -18.6975 30
      vertex -10.16 -17.5976 30
    endloop
  endfacet
  facet normal 0 0 1
    outer loop
      vertex -10.795 -18.6975 30
      vertex -20.32 0 30
      vertex -21.59 0 30
    endloop
  endfacet
  facet normal -0.866022 -0.500006 0
    outer loop
      vertex -21.59 0 0
      vertex -18.7032 -5 6.12456
      vertex -21.59 0 16.8981
    endloop
  endfacet
  facet normal -0.866027 -0.499997 -0
    outer loop
      vertex -10.795 -18.6975 30
      vertex -18.7032 -5 6.12456
      vertex -10.795 -18.6975 0
    endloop
  endfacet
  facet normal -0.866026 -0.5 7.13155e-06
    outer loop
      vertex -10.795 -18.6975 0
      vertex -18.7032 -5 6.12456
      vertex -21.59 0 0
    endloop
  endfacet
  facet normal -0.866022 -0.500006 0
    outer loop
      vertex -18.7032 -5 29.1935
      vertex -21.59 0 30
      vertex -21.59 0 28.42
    endloop
  endfacet
  facet normal -0.866026 -0.5 -5.4157e-05
    outer loop
      vertex -18.7032 -5 29.1935
      vertex -10.795 -18.6975 30
      vertex -21.59 0 30
    endloop
  endfacet
  facet normal -0.866027 -0.499997 0
    outer loop
      vertex -18.7032 -5 6.12456
      vertex -10.795 -18.6975 30
      vertex -18.7032 -5 29.1935
    endloop
  endfacet
  facet normal 0.866022 -0.500006 0
    outer loop
      vertex 21.59 0 30
      vertex 18.7032 -5 29.014
      vertex 21.59 0 28.2405
    endloop
  endfacet
  facet normal 0.866027 -0.499997 0
    outer loop
      vertex 18.7032 -5 29.014
      vertex 10.795 -18.6975 30
      vertex 18.7032 -5 7.30803
    endloop
  endfacet
  facet normal 0.866026 -0.5 -4.42978e-05
    outer loop
      vertex 10.795 -18.6975 30
      vertex 18.7032 -5 29.014
      vertex 21.59 0 30
    endloop
  endfacet
  facet normal 0.866022 -0.500006 0
    outer loop
      vertex 18.7032 -5 7.30803
      vertex 21.59 0 0
      vertex 21.59 0 18.0815
    endloop
  endfacet
  facet normal 0.866026 -0.5 5.97666e-06
    outer loop
      vertex 18.7032 -5 7.30803
      vertex 10.795 -18.6975 0
      vertex 21.59 0 0
    endloop
  endfacet
  facet normal 0.866027 -0.499997 0
    outer loop
      vertex 10.795 -18.6975 0
      vertex 18.7032 -5 7.30803
      vertex 10.795 -18.6975 30
    endloop
  endfacet
  facet normal -0 0 -1
    outer loop
      vertex 7.46342 -0.463525 0
      vertex -7.67647 -6.73832 0
      vertex 7.39 0 0
    endloop
  endfacet
  facet normal 0 0 -1
    outer loop
      vertex 7.39 0 0
      vertex -7.46342 7.15647 0
      vertex -7.39 7.62 0
    endloop
  endfacet
  facet normal 0 0 -1
    outer loop
      vertex -8.00832 -6.40647 0
      vertex 7.39 0 0
      vertex -7.67647 -6.73832 0
    endloop
  endfacet
  facet normal 0 0 -1
    outer loop
      vertex 7.39 0 0
      vertex -7.67647 6.73832 0
      vertex -7.46342 7.15647 0
    endloop
  endfacet
  facet normal 0 0 -1
    outer loop
      vertex -8.00832 6.40647 0
      vertex 7.39 0 0
      vertex -8.00832 -6.40647 0
    endloop
  endfacet
  facet normal 0 0 -1
    outer loop
      vertex 7.39 0 0
      vertex -8.00832 6.40647 0
      vertex -7.67647 6.73832 0
    endloop
  endfacet
  facet normal 0 0 -1
    outer loop
      vertex -8.42647 -6.19341 0
      vertex -8.00832 6.40647 0
      vertex -8.00832 -6.40647 0
    endloop
  endfacet
  facet normal 0 0 -1
    outer loop
      vertex -8.42647 -6.19341 0
      vertex -8.42647 6.19341 0
      vertex -8.00832 6.40647 0
    endloop
  endfacet
  facet normal 0 0 -1
    outer loop
      vertex -8.89 -6.12 0
      vertex -8.42647 6.19341 0
      vertex -8.42647 -6.19341 0
    endloop
  endfacet
  facet normal 0 0 -1
    outer loop
      vertex -8.89 -6.12 0
      vertex -8.89 6.12 0
      vertex -8.42647 6.19341 0
    endloop
  endfacet
  facet normal 0 0 -1
    outer loop
      vertex -9.35353 -6.19341 0
      vertex -8.89 6.12 0
      vertex -8.89 -6.12 0
    endloop
  endfacet
  facet normal 0 0 -1
    outer loop
      vertex -9.35353 -6.19341 0
      vertex -9.35353 6.19341 0
      vertex -8.89 6.12 0
    endloop
  endfacet
  facet normal 0 0 -1
    outer loop
      vertex -9.77168 -6.40647 0
      vertex -9.35353 6.19341 0
      vertex -9.35353 -6.19341 0
    endloop
  endfacet
  facet normal 0 0 -1
    outer loop
      vertex -9.77168 -6.40647 0
      vertex -9.77168 6.40647 0
      vertex -9.35353 6.19341 0
    endloop
  endfacet
  facet normal 0 0 -1
    outer loop
      vertex -21.59 0 0
      vertex -9.77168 -6.40647 0
      vertex -10.1035 -6.73832 0
    endloop
  endfacet
  facet normal 0 0 -1
    outer loop
      vertex -9.77168 -6.40647 0
      vertex -21.59 0 0
      vertex -9.77168 6.40647 0
    endloop
  endfacet
  facet normal 0 0 -1
    outer loop
      vertex -21.59 0 0
      vertex -10.1035 -6.73832 0
      vertex -10.3166 -7.15647 0
    endloop
  endfacet
  facet normal -0 0 -1
    outer loop
      vertex -9.77168 6.40647 0
      vertex -21.59 0 0
      vertex -10.1035 6.73832 0
    endloop
  endfacet
  facet normal 0 0 -1
    outer loop
      vertex -21.59 0 0
      vertex -10.3166 -7.15647 0
      vertex -10.39 -7.62 0
    endloop
  endfacet
  facet normal -0 0 -1
    outer loop
      vertex -10.1035 6.73832 0
      vertex -21.59 0 0
      vertex -10.3166 7.15647 0
    endloop
  endfacet
  facet normal 0 0 -1
    outer loop
      vertex 9.77168 -1.21352 0
      vertex 21.59 0 0
      vertex 10.795 -18.6975 0
    endloop
  endfacet
  facet normal 0 0 -1
    outer loop
      vertex 10.3166 0.463525 0
      vertex 21.59 0 0
      vertex 10.39 0 0
    endloop
  endfacet
  facet normal -0 0 -1
    outer loop
      vertex 21.59 0 0
      vertex 10.3166 -0.463525 0
      vertex 10.39 0 0
    endloop
  endfacet
  facet normal 0 0 -1
    outer loop
      vertex 21.59 0 0
      vertex 10.1035 -0.881678 0
      vertex 10.3166 -0.463525 0
    endloop
  endfacet
  facet normal 0 0 -1
    outer loop
      vertex 21.59 0 0
      vertex 9.77168 -1.21352 0
      vertex 10.1035 -0.881678 0
    endloop
  endfacet
  facet normal 0 0 -1
    outer loop
      vertex 10.795 -18.6975 0
      vertex 9.35353 -1.42658 0
      vertex 9.77168 -1.21352 0
    endloop
  endfacet
  facet normal 0 0 -1
    outer loop
      vertex 10.795 -18.6975 0
      vertex 8.89 -1.5 0
      vertex 9.35353 -1.42658 0
    endloop
  endfacet
  facet normal 0 0 -1
    outer loop
      vertex 10.795 -18.6975 0
      vertex 8.42647 -1.42658 0
      vertex 8.89 -1.5 0
    endloop
  endfacet
  facet normal 0 0 -1
    outer loop
      vertex 10.795 -18.6975 0
      vertex 8.00832 -1.21352 0
      vertex 8.42647 -1.42658 0
    endloop
  endfacet
  facet normal 0 0 -1
    outer loop
      vertex -7.46342 -8.08352 0
      vertex 8.00832 -1.21352 0
      vertex 10.795 -18.6975 0
    endloop
  endfacet
  facet normal 0 -0 -1
    outer loop
      vertex -7.39 -7.62 0
      vertex 8.00832 -1.21352 0
      vertex -7.46342 -8.08352 0
    endloop
  endfacet
  facet normal -0 0 -1
    outer loop
      vertex 7.67647 -0.881678 0
      vertex -7.46342 -7.15647 0
      vertex 7.46342 -0.463525 0
    endloop
  endfacet
  facet normal -0 0 -1
    outer loop
      vertex 8.00832 -1.21352 0
      vertex -7.39 -7.62 0
      vertex 7.67647 -0.881678 0
    endloop
  endfacet
  facet normal 0 0 -1
    outer loop
      vertex -7.46342 -7.15647 0
      vertex 7.67647 -0.881678 0
      vertex -7.39 -7.62 0
    endloop
  endfacet
  facet normal 0 0 -1
    outer loop
      vertex 10.795 -18.6975 0
      vertex -7.67647 -8.50168 0
      vertex -7.46342 -8.08352 0
    endloop
  endfacet
  facet normal 0 0 -1
    outer loop
      vertex 10.795 -18.6975 0
      vertex -8.00832 -8.83352 0
      vertex -7.67647 -8.50168 0
    endloop
  endfacet
  facet normal 0 0 -1
    outer loop
      vertex -10.795 -18.6975 0
      vertex -8.00832 -8.83352 0
      vertex 10.795 -18.6975 0
    endloop
  endfacet
  facet normal 0 0 -1
    outer loop
      vertex -8.00832 -8.83352 0
      vertex -10.795 -18.6975 0
      vertex -8.42647 -9.04658 0
    endloop
  endfacet
  facet normal 0 0 -1
    outer loop
      vertex -8.42647 -9.04658 0
      vertex -10.795 -18.6975 0
      vertex -8.89 -9.12 0
    endloop
  endfacet
  facet normal 0 0 -1
    outer loop
      vertex -10.3166 -8.08352 0
      vertex -21.59 0 0
      vertex -10.39 -7.62 0
    endloop
  endfacet
  facet normal 0 0 -1
    outer loop
      vertex -21.59 0 0
      vertex -10.3166 -8.08352 0
      vertex -10.795 -18.6975 0
    endloop
  endfacet
  facet normal -0 0 -1
    outer loop
      vertex -10.1035 -8.50168 0
      vertex -10.795 -18.6975 0
      vertex -10.3166 -8.08352 0
    endloop
  endfacet
  facet normal -0 0 -1
    outer loop
      vertex -9.77168 -8.83352 0
      vertex -10.795 -18.6975 0
      vertex -10.1035 -8.50168 0
    endloop
  endfacet
  facet normal -0 0 -1
    outer loop
      vertex -9.35353 -9.04658 0
      vertex -10.795 -18.6975 0
      vertex -9.77168 -8.83352 0
    endloop
  endfacet
  facet normal -0 0 -1
    outer loop
      vertex -8.89 -9.12 0
      vertex -10.795 -18.6975 0
      vertex -9.35353 -9.04658 0
    endloop
  endfacet
  facet normal 0 0 -1
    outer loop
      vertex 10.1035 0.881678 0
      vertex 21.59 0 0
      vertex 10.3166 0.463525 0
    endloop
  endfacet
  facet normal 0 0 -1
    outer loop
      vertex 9.77168 1.21352 0
      vertex 21.59 0 0
      vertex 10.1035 0.881678 0
    endloop
  endfacet
  facet normal 0 0 -1
    outer loop
      vertex 21.59 0 0
      vertex 9.77168 1.21352 0
      vertex 10.795 18.6975 0
    endloop
  endfacet
  facet normal 0 0 -1
    outer loop
      vertex 9.35353 1.42658 0
      vertex 10.795 18.6975 0
      vertex 9.77168 1.21352 0
    endloop
  endfacet
  facet normal 0 0 -1
    outer loop
      vertex 8.89 1.5 0
      vertex 10.795 18.6975 0
      vertex 9.35353 1.42658 0
    endloop
  endfacet
  facet normal 0 0 -1
    outer loop
      vertex 8.42647 1.42658 0
      vertex 10.795 18.6975 0
      vertex 8.89 1.5 0
    endloop
  endfacet
  facet normal 0 0 -1
    outer loop
      vertex 8.00832 1.21352 0
      vertex 10.795 18.6975 0
      vertex 8.42647 1.42658 0
    endloop
  endfacet
  facet normal 0 0 -1
    outer loop
      vertex -7.39 7.62 0
      vertex 8.00832 1.21352 0
      vertex 7.67647 0.881678 0
    endloop
  endfacet
  facet normal 0 0 -1
    outer loop
      vertex -7.39 7.62 0
      vertex 7.67647 0.881678 0
      vertex 7.46342 0.463525 0
    endloop
  endfacet
  facet normal 0 0 -1
    outer loop
      vertex -7.67647 -6.73832 0
      vertex 7.46342 -0.463525 0
      vertex -7.46342 -7.15647 0
    endloop
  endfacet
  facet normal 0 0 -1
    outer loop
      vertex 7.39 0 0
      vertex -7.39 7.62 0
      vertex 7.46342 0.463525 0
    endloop
  endfacet
  facet normal 0 0 -1
    outer loop
      vertex 8.00832 1.21352 0
      vertex -7.39 7.62 0
      vertex -7.46342 8.08352 0
    endloop
  endfacet
  facet normal 0 0 -1
    outer loop
      vertex 8.00832 1.21352 0
      vertex -7.46342 8.08352 0
      vertex 10.795 18.6975 0
    endloop
  endfacet
  facet normal 0 0 -1
    outer loop
      vertex -7.67647 8.50168 0
      vertex 10.795 18.6975 0
      vertex -7.46342 8.08352 0
    endloop
  endfacet
  facet normal 0 0 -1
    outer loop
      vertex -8.00832 8.83352 0
      vertex 10.795 18.6975 0
      vertex -7.67647 8.50168 0
    endloop
  endfacet
  facet normal 0 0 -1
    outer loop
      vertex -10.795 18.6975 0
      vertex -8.00832 8.83352 0
      vertex -8.42647 9.04658 0
    endloop
  endfacet
  facet normal 0 0 -1
    outer loop
      vertex -10.795 18.6975 0
      vertex -8.42647 9.04658 0
      vertex -8.89 9.12 0
    endloop
  endfacet
  facet normal 0 0 -1
    outer loop
      vertex -10.795 18.6975 0
      vertex -8.89 9.12 0
      vertex -9.35353 9.04658 0
    endloop
  endfacet
  facet normal 0 0 -1
    outer loop
      vertex -8.00832 8.83352 0
      vertex -10.795 18.6975 0
      vertex 10.795 18.6975 0
    endloop
  endfacet
  facet normal 0 0 -1
    outer loop
      vertex -9.77168 8.83352 0
      vertex -10.795 18.6975 0
      vertex -9.35353 9.04658 0
    endloop
  endfacet
  facet normal 0 0 -1
    outer loop
      vertex -10.1035 8.50168 0
      vertex -10.795 18.6975 0
      vertex -9.77168 8.83352 0
    endloop
  endfacet
  facet normal 0 0 -1
    outer loop
      vertex -10.3166 8.08352 0
      vertex -10.795 18.6975 0
      vertex -10.1035 8.50168 0
    endloop
  endfacet
  facet normal 0 0 -1
    outer loop
      vertex -21.59 0 0
      vertex -10.3166 8.08352 0
      vertex -10.39 7.62 0
    endloop
  endfacet
  facet normal -0 0 -1
    outer loop
      vertex -10.3166 7.15647 0
      vertex -21.59 0 0
      vertex -10.39 7.62 0
    endloop
  endfacet
  facet normal -0 0 -1
    outer loop
      vertex -10.3166 8.08352 0
      vertex -21.59 0 0
      vertex -10.795 18.6975 0
    endloop
  endfacet
  facet normal 0 -1 0
    outer loop
      vertex -10.795 -18.6975 0
      vertex 10.795 -18.6975 30
      vertex -10.795 -18.6975 30
    endloop
  endfacet
  facet normal 0 -1 -0
    outer loop
      vertex 10.795 -18.6975 30
      vertex -10.795 -18.6975 0
      vertex 10.795 -18.6975 0
    endloop
  endfacet
  facet normal 0.258865 0 0.965914
    outer loop
      vertex 22.69 -0.519615 27.9457
      vertex 22.99 -3 27.8653
      vertex 22.99 0 27.8653
    endloop
  endfacet
  facet normal 0.258865 0 0.965914
    outer loop
      vertex 22.69 -0.519615 27.9457
      vertex 22.69 -2.48038 27.9457
      vertex 22.99 -3 27.8653
    endloop
  endfacet
  facet normal 0.258865 0 0.965914
    outer loop
      vertex 22.09 -0.519615 28.1065
      vertex 22.69 -2.48038 27.9457
      vertex 22.69 -0.519615 27.9457
    endloop
  endfacet
  facet normal 0.258865 0 0.965914
    outer loop
      vertex 22.09 -0.519615 28.1065
      vertex 22.09 -2.48038 28.1065
      vertex 22.69 -2.48038 27.9457
    endloop
  endfacet
  facet normal 0.258865 -2.41851e-15 0.965914
    outer loop
      vertex 21.59 0 28.2405
      vertex 22.09 -0.519615 28.1065
      vertex 21.79 0 28.1869
    endloop
  endfacet
  facet normal 0.258865 0 0.965914
    outer loop
      vertex 22.09 -0.519615 28.1065
      vertex 21.59 0 28.2405
      vertex 22.09 -2.48038 28.1065
    endloop
  endfacet
  facet normal 0.258754 0 0.965943
    outer loop
      vertex 24.1297 5 27.56
      vertex 22.99 0 27.8653
      vertex 24.1297 -5 27.56
    endloop
  endfacet
  facet normal 0.258834 -1.9335e-05 0.965922
    outer loop
      vertex 24.1297 5 27.56
      vertex 22.69 0.519615 27.9457
      vertex 22.99 0 27.8653
    endloop
  endfacet
  facet normal 0.258865 -3.0096e-05 0.965914
    outer loop
      vertex 24.1297 5 27.56
      vertex 22.09 0.519615 28.1065
      vertex 22.69 0.519615 27.9457
    endloop
  endfacet
  facet normal 0.258815 -5.62366e-06 0.965927
    outer loop
      vertex 18.7032 5 29.014
      vertex 22.09 0.519615 28.1065
      vertex 24.1297 5 27.56
    endloop
  endfacet
  facet normal 0.258865 2.47018e-16 0.965914
    outer loop
      vertex 22.09 -2.48038 28.1065
      vertex 21.59 0 28.2405
      vertex 21.79 -3 28.1869
    endloop
  endfacet
  facet normal 0.258865 2.38626e-15 0.965914
    outer loop
      vertex 22.09 0.519615 28.1065
      vertex 21.59 0 28.2405
      vertex 21.79 0 28.1869
    endloop
  endfacet
  facet normal 0.258846 1.9608e-05 0.965919
    outer loop
      vertex 22.09 0.519615 28.1065
      vertex 18.7032 5 29.014
      vertex 21.59 0 28.2405
    endloop
  endfacet
  facet normal 0.258754 -0 0.965943
    outer loop
      vertex 22.99 -3 27.8653
      vertex 24.1297 -5 27.56
      vertex 22.99 0 27.8653
    endloop
  endfacet
  facet normal 0.25881 3.39311e-05 0.965928
    outer loop
      vertex 22.69 -3.51962 27.9457
      vertex 24.1297 -5 27.56
      vertex 22.99 -3 27.8653
    endloop
  endfacet
  facet normal 0.258865 9.10858e-05 0.965914
    outer loop
      vertex 22.09 -3.51962 28.1065
      vertex 24.1297 -5 27.56
      vertex 22.69 -3.51962 27.9457
    endloop
  endfacet
  facet normal 0.258815 1.70201e-05 0.965927
    outer loop
      vertex 22.09 -3.51962 28.1065
      vertex 18.7032 -5 29.014
      vertex 24.1297 -5 27.56
    endloop
  endfacet
  facet normal 0.25883 -2.13523e-05 0.965923
    outer loop
      vertex 21.79 -3 28.1869
      vertex 18.7032 -5 29.014
      vertex 22.09 -3.51962 28.1065
    endloop
  endfacet
  facet normal 0.258819 -3.24762e-06 0.965926
    outer loop
      vertex 18.7032 -5 29.014
      vertex 21.79 -3 28.1869
      vertex 21.59 0 28.2405
    endloop
  endfacet
  facet normal 0.965925 1.38412e-05 -0.258822
    outer loop
      vertex 22.09 0.519615 19.9476
      vertex 24.1297 5 27.56
      vertex 22.69 0.519615 22.1868
    endloop
  endfacet
  facet normal 0.965926 8.89199e-06 -0.258818
    outer loop
      vertex 24.1297 5 27.56
      vertex 22.99 0 23.3064
      vertex 22.69 0.519615 22.1868
    endloop
  endfacet
  facet normal 0.965925 0 -0.258822
    outer loop
      vertex 22.69 -0.519615 22.1868
      vertex 22.69 -2.48038 22.1868
      vertex 22.09 -0.519615 19.9476
    endloop
  endfacet
  facet normal 0.965925 0 -0.258822
    outer loop
      vertex 22.99 0 23.3064
      vertex 22.69 -2.48038 22.1868
      vertex 22.69 -0.519615 22.1868
    endloop
  endfacet
  facet normal 0.965929 0 -0.258809
    outer loop
      vertex 24.1297 -5 27.56
      vertex 22.99 0 23.3064
      vertex 24.1297 5 27.56
    endloop
  endfacet
  facet normal 0.965925 0 -0.258822
    outer loop
      vertex 22.99 0 23.3064
      vertex 22.99 -3 23.3064
      vertex 22.69 -2.48038 22.1868
    endloop
  endfacet
  facet normal 0.965925 -4.18905e-05 -0.258822
    outer loop
      vertex 22.69 -3.51962 22.1868
      vertex 24.1297 -5 27.56
      vertex 22.09 -3.51962 19.9476
    endloop
  endfacet
  facet normal 0.965927 -1.56043e-05 -0.258816
    outer loop
      vertex 22.99 -3 23.3064
      vertex 24.1297 -5 27.56
      vertex 22.69 -3.51962 22.1868
    endloop
  endfacet
  facet normal 0.965929 0 -0.258809
    outer loop
      vertex 22.99 0 23.3064
      vertex 24.1297 -5 27.56
      vertex 22.99 -3 23.3064
    endloop
  endfacet
  facet normal 0.965926 7.93497e-06 -0.258819
    outer loop
      vertex 24.1297 5 27.56
      vertex 22.09 0.519615 19.9476
      vertex 18.7032 5 7.30803
    endloop
  endfacet
  facet normal 0.965925 4.98104e-05 -0.258822
    outer loop
      vertex 21.59 0 18.0815
      vertex 22.09 0.519615 19.9476
      vertex 21.79 0 18.8279
    endloop
  endfacet
  facet normal 0.965927 2.08655e-05 -0.258815
    outer loop
      vertex 22.09 0.519615 19.9476
      vertex 21.59 0 18.0815
      vertex 18.7032 5 7.30803
    endloop
  endfacet
  facet normal 0.965931 0 -0.258801
    outer loop
      vertex 21.79 -3 18.8279
      vertex 21.79 0 18.8279
      vertex 22.09 -0.519615 19.9476
    endloop
  endfacet
  facet normal 0.965925 0 -0.258822
    outer loop
      vertex 22.09 -2.48038 19.9476
      vertex 22.09 -0.519615 19.9476
      vertex 22.69 -2.48038 22.1868
    endloop
  endfacet
  facet normal 0.965931 0 -0.258801
    outer loop
      vertex 21.79 -3 18.8279
      vertex 22.09 -0.519615 19.9476
      vertex 22.09 -2.48038 19.9476
    endloop
  endfacet
  facet normal 0.965925 0 -0.258822
    outer loop
      vertex 21.79 0 18.8279
      vertex 21.79 -3 18.8279
      vertex 21.59 0 18.0815
    endloop
  endfacet
  facet normal 0.965925 -3.62231e-07 -0.258824
    outer loop
      vertex 21.79 -3 18.8279
      vertex 18.7032 -5 7.30803
      vertex 21.59 0 18.0815
    endloop
  endfacet
  facet normal 0.965926 -3.86307e-05 -0.258817
    outer loop
      vertex 22.09 -3.51962 19.9476
      vertex 18.7032 -5 7.30803
      vertex 21.79 -3 18.8279
    endloop
  endfacet
  facet normal 0.965926 -2.40153e-05 -0.258819
    outer loop
      vertex 18.7032 -5 7.30803
      vertex 22.09 -3.51962 19.9476
      vertex 24.1297 -5 27.56
    endloop
  endfacet
  facet normal 0 -1 0
    outer loop
      vertex 18.7032 -5 29.014
      vertex 18.7032 -5 7.30803
      vertex 24.1297 -5 27.56
    endloop
  endfacet
  facet normal 0 1 0
    outer loop
      vertex 24.1297 5 27.56
      vertex 18.7032 5 7.30803
      vertex 18.7032 5 29.014
    endloop
  endfacet
  facet normal -0.258846 1.9608e-05 0.965919
    outer loop
      vertex -22.09 0.519615 28.286
      vertex -21.59 0 28.42
      vertex -18.7032 5 29.1935
    endloop
  endfacet
  facet normal -0.258865 -1.40919e-14 0.965914
    outer loop
      vertex -21.59 0 28.42
      vertex -22.09 0.519615 28.286
      vertex -21.79 0 28.3664
    endloop
  endfacet
  facet normal -0.258828 5.08274e-06 0.965923
    outer loop
      vertex -24.4705 5 27.6481
      vertex -22.09 0.519615 28.286
      vertex -18.7032 5 29.1935
    endloop
  endfacet
  facet normal -0.25885 -9.44937e-06 0.965918
    outer loop
      vertex -22.69 0.519615 28.1252
      vertex -24.4705 5 27.6481
      vertex -22.99 0 28.0448
    endloop
  endfacet
  facet normal -0.258865 -1.59535e-05 0.965914
    outer loop
      vertex -22.09 0.519615 28.286
      vertex -24.4705 5 27.6481
      vertex -22.69 0.519615 28.1252
    endloop
  endfacet
  facet normal -0.258865 1.41241e-14 0.965914
    outer loop
      vertex -22.09 -0.519615 28.286
      vertex -21.59 0 28.42
      vertex -21.79 0 28.3664
    endloop
  endfacet
  facet normal -0.258846 -1.9608e-05 0.965919
    outer loop
      vertex -21.59 0 28.42
      vertex -22.09 -0.519615 28.286
      vertex -18.7032 -5 29.1935
    endloop
  endfacet
  facet normal -0.258865 1.59535e-05 0.965914
    outer loop
      vertex -24.4705 -5 27.6481
      vertex -22.09 -0.519615 28.286
      vertex -22.69 -0.519615 28.1252
    endloop
  endfacet
  facet normal -0.258828 -5.08274e-06 0.965923
    outer loop
      vertex -22.09 -0.519615 28.286
      vertex -24.4705 -5 27.6481
      vertex -18.7032 -5 29.1935
    endloop
  endfacet
  facet normal -0.25885 9.44937e-06 0.965918
    outer loop
      vertex -22.99 0 28.0448
      vertex -24.4705 -5 27.6481
      vertex -22.69 -0.519615 28.1252
    endloop
  endfacet
  facet normal -0.25882 0 0.965926
    outer loop
      vertex -24.4705 -5 27.6481
      vertex -22.99 0 28.0448
      vertex -24.4705 5 27.6481
    endloop
  endfacet
  facet normal -0.965925 -9.39244e-07 -0.258823
    outer loop
      vertex -18.7032 5 6.12456
      vertex -22.09 0.519615 18.7641
      vertex -24.4705 5 27.6481
    endloop
  endfacet
  facet normal -0.965925 -7.76462e-08 -0.258822
    outer loop
      vertex -21.59 0 16.8981
      vertex -22.09 0.519615 18.7641
      vertex -18.7032 5 6.12456
    endloop
  endfacet
  facet normal -0.965925 -5.11531e-15 -0.258822
    outer loop
      vertex -21.59 0 16.8981
      vertex -21.79 0 17.6445
      vertex -22.09 0.519615 18.7641
    endloop
  endfacet
  facet normal -0.965925 5.11531e-15 -0.258822
    outer loop
      vertex -21.59 0 16.8981
      vertex -22.09 -0.519615 18.7641
      vertex -21.79 0 17.6445
    endloop
  endfacet
  facet normal -0.965925 9.39244e-07 -0.258823
    outer loop
      vertex -24.4705 -5 27.6481
      vertex -22.09 -0.519615 18.7641
      vertex -18.7032 -5 6.12456
    endloop
  endfacet
  facet normal -0.965925 7.76462e-08 -0.258822
    outer loop
      vertex -18.7032 -5 6.12456
      vertex -22.09 -0.519615 18.7641
      vertex -21.59 0 16.8981
    endloop
  endfacet
  facet normal -0.965925 -1.50196e-06 -0.258822
    outer loop
      vertex -22.69 0.519615 21.0033
      vertex -24.4705 5 27.6481
      vertex -22.09 0.519615 18.7641
    endloop
  endfacet
  facet normal -0.965925 -8.89625e-07 -0.258823
    outer loop
      vertex -22.99 0 22.1229
      vertex -24.4705 5 27.6481
      vertex -22.69 0.519615 21.0033
    endloop
  endfacet
  facet normal -0.965925 0 -0.258823
    outer loop
      vertex -22.99 0 22.1229
      vertex -24.4705 -5 27.6481
      vertex -24.4705 5 27.6481
    endloop
  endfacet
  facet normal -0.965925 8.89625e-07 -0.258823
    outer loop
      vertex -22.69 -0.519615 21.0033
      vertex -24.4705 -5 27.6481
      vertex -22.99 0 22.1229
    endloop
  endfacet
  facet normal -0.965925 1.50196e-06 -0.258822
    outer loop
      vertex -22.09 -0.519615 18.7641
      vertex -24.4705 -5 27.6481
      vertex -22.69 -0.519615 21.0033
    endloop
  endfacet
  facet normal 0 1 -0
    outer loop
      vertex -18.7032 5 6.12456
      vertex -24.4705 5 27.6481
      vertex -18.7032 5 29.1935
    endloop
  endfacet
  facet normal 0 -1 -0
    outer loop
      vertex -18.7032 -5 29.1935
      vertex -24.4705 -5 27.6481
      vertex -18.7032 -5 6.12456
    endloop
  endfacet
  facet normal -0.866025 -0.500001 0
    outer loop
      vertex 20.32 0 2
      vertex 10.16 17.5976 30
      vertex 10.16 17.5976 2
    endloop
  endfacet
  facet normal -0.866025 -0.500001 0
    outer loop
      vertex 10.16 17.5976 30
      vertex 20.32 0 2
      vertex 20.32 0 30
    endloop
  endfacet
  facet normal 0.866025 -0.500001 0
    outer loop
      vertex -20.32 0 30
      vertex -10.16 17.5976 2
      vertex -10.16 17.5976 30
    endloop
  endfacet
  facet normal 0.866025 -0.500001 0
    outer loop
      vertex -10.16 17.5976 2
      vertex -20.32 0 30
      vertex -20.32 0 2
    endloop
  endfacet
  facet normal 0 -1 0
    outer loop
      vertex -10.16 17.5976 2
      vertex 10.16 17.5976 30
      vertex -10.16 17.5976 30
    endloop
  endfacet
  facet normal 0 -1 -0
    outer loop
      vertex 10.16 17.5976 30
      vertex -10.16 17.5976 2
      vertex 10.16 17.5976 2
    endloop
  endfacet
  facet normal -0.866025 0.500001 0
    outer loop
      vertex 10.16 -17.5976 2
      vertex 20.32 0 30
      vertex 20.32 0 2
    endloop
  endfacet
  facet normal -0.866025 0.500001 0
    outer loop
      vertex 20.32 0 30
      vertex 10.16 -17.5976 2
      vertex 10.16 -17.5976 30
    endloop
  endfacet
  facet normal 0 0 1
    outer loop
      vertex 7.46342 0.463525 2
      vertex -7.67647 6.73832 2
      vertex 7.39 0 2
    endloop
  endfacet
  facet normal 0 0 1
    outer loop
      vertex 7.39 0 2
      vertex -7.46342 -7.15647 2
      vertex -7.39 -7.62 2
    endloop
  endfacet
  facet normal -0 0 1
    outer loop
      vertex -8.00832 6.40647 2
      vertex 7.39 0 2
      vertex -7.67647 6.73832 2
    endloop
  endfacet
  facet normal 0 0 1
    outer loop
      vertex 7.39 0 2
      vertex -7.67647 -6.73832 2
      vertex -7.46342 -7.15647 2
    endloop
  endfacet
  facet normal 0 0 1
    outer loop
      vertex -8.00832 -6.40647 2
      vertex 7.39 0 2
      vertex -8.00832 6.40647 2
    endloop
  endfacet
  facet normal 0 0 1
    outer loop
      vertex 7.39 0 2
      vertex -8.00832 -6.40647 2
      vertex -7.67647 -6.73832 2
    endloop
  endfacet
  facet normal -0 0 1
    outer loop
      vertex -8.42647 6.19341 2
      vertex -8.00832 -6.40647 2
      vertex -8.00832 6.40647 2
    endloop
  endfacet
  facet normal 0 0 1
    outer loop
      vertex -8.42647 6.19341 2
      vertex -8.42647 -6.19341 2
      vertex -8.00832 -6.40647 2
    endloop
  endfacet
  facet normal -0 0 1
    outer loop
      vertex -8.89 6.12 2
      vertex -8.42647 -6.19341 2
      vertex -8.42647 6.19341 2
    endloop
  endfacet
  facet normal 0 0 1
    outer loop
      vertex -8.89 6.12 2
      vertex -8.89 -6.12 2
      vertex -8.42647 -6.19341 2
    endloop
  endfacet
  facet normal 0 0 1
    outer loop
      vertex -9.35353 6.19341 2
      vertex -8.89 -6.12 2
      vertex -8.89 6.12 2
    endloop
  endfacet
  facet normal 0 0 1
    outer loop
      vertex -9.35353 6.19341 2
      vertex -9.35353 -6.19341 2
      vertex -8.89 -6.12 2
    endloop
  endfacet
  facet normal 0 0 1
    outer loop
      vertex -9.77168 6.40647 2
      vertex -9.35353 -6.19341 2
      vertex -9.35353 6.19341 2
    endloop
  endfacet
  facet normal 0 0 1
    outer loop
      vertex -9.77168 6.40647 2
      vertex -9.77168 -6.40647 2
      vertex -9.35353 -6.19341 2
    endloop
  endfacet
  facet normal 0 0 1
    outer loop
      vertex -20.32 0 2
      vertex -9.77168 6.40647 2
      vertex -10.1035 6.73832 2
    endloop
  endfacet
  facet normal 0 0 1
    outer loop
      vertex -9.77168 6.40647 2
      vertex -20.32 0 2
      vertex -9.77168 -6.40647 2
    endloop
  endfacet
  facet normal 0 0 1
    outer loop
      vertex -20.32 0 2
      vertex -10.1035 6.73832 2
      vertex -10.3166 7.15647 2
    endloop
  endfacet
  facet normal 0 0 1
    outer loop
      vertex -9.77168 -6.40647 2
      vertex -20.32 0 2
      vertex -10.1035 -6.73832 2
    endloop
  endfacet
  facet normal 0 0 1
    outer loop
      vertex -20.32 0 2
      vertex -10.3166 7.15647 2
      vertex -10.39 7.62 2
    endloop
  endfacet
  facet normal 0 0 1
    outer loop
      vertex -10.1035 -6.73832 2
      vertex -20.32 0 2
      vertex -10.3166 -7.15647 2
    endloop
  endfacet
  facet normal 0 0 1
    outer loop
      vertex 20.32 0 2
      vertex 10.3166 0.463525 2
      vertex 10.39 0 2
    endloop
  endfacet
  facet normal -0 0 1
    outer loop
      vertex 9.77168 1.21352 2
      vertex 20.32 0 2
      vertex 10.16 17.5976 2
    endloop
  endfacet
  facet normal 0 0 1
    outer loop
      vertex 20.32 0 2
      vertex 10.1035 0.881678 2
      vertex 10.3166 0.463525 2
    endloop
  endfacet
  facet normal 0 0 1
    outer loop
      vertex 20.32 0 2
      vertex 9.77168 1.21352 2
      vertex 10.1035 0.881678 2
    endloop
  endfacet
  facet normal 0 0 1
    outer loop
      vertex 10.16 17.5976 2
      vertex 9.35353 1.42658 2
      vertex 9.77168 1.21352 2
    endloop
  endfacet
  facet normal 0 0 1
    outer loop
      vertex 10.16 17.5976 2
      vertex 8.89 1.5 2
      vertex 9.35353 1.42658 2
    endloop
  endfacet
  facet normal 0 0 1
    outer loop
      vertex 10.16 17.5976 2
      vertex 8.42647 1.42658 2
      vertex 8.89 1.5 2
    endloop
  endfacet
  facet normal 0 0 1
    outer loop
      vertex 10.16 17.5976 2
      vertex 8.00832 1.21352 2
      vertex 8.42647 1.42658 2
    endloop
  endfacet
  facet normal -0 0 1
    outer loop
      vertex -7.46342 8.08352 2
      vertex 8.00832 1.21352 2
      vertex 10.16 17.5976 2
    endloop
  endfacet
  facet normal -0 -0 1
    outer loop
      vertex -7.39 7.62 2
      vertex 8.00832 1.21352 2
      vertex -7.46342 8.08352 2
    endloop
  endfacet
  facet normal 0 0 1
    outer loop
      vertex 8.00832 1.21352 2
      vertex -7.39 7.62 2
      vertex 7.67647 0.881678 2
    endloop
  endfacet
  facet normal -0 0 1
    outer loop
      vertex -7.46342 7.15647 2
      vertex 7.67647 0.881678 2
      vertex -7.39 7.62 2
    endloop
  endfacet
  facet normal 0 0 1
    outer loop
      vertex 7.67647 0.881678 2
      vertex -7.46342 7.15647 2
      vertex 7.46342 0.463525 2
    endloop
  endfacet
  facet normal 0 0 1
    outer loop
      vertex 10.16 17.5976 2
      vertex -7.67647 8.50168 2
      vertex -7.46342 8.08352 2
    endloop
  endfacet
  facet normal -0 0 1
    outer loop
      vertex -10.16 17.5976 2
      vertex -7.67647 8.50168 2
      vertex 10.16 17.5976 2
    endloop
  endfacet
  facet normal 0 0 1
    outer loop
      vertex -7.67647 8.50168 2
      vertex -10.16 17.5976 2
      vertex -8.00832 8.83352 2
    endloop
  endfacet
  facet normal 0 0 1
    outer loop
      vertex -8.00832 8.83352 2
      vertex -10.16 17.5976 2
      vertex -8.42647 9.04658 2
    endloop
  endfacet
  facet normal 0 0 1
    outer loop
      vertex -8.42647 9.04658 2
      vertex -10.16 17.5976 2
      vertex -8.89 9.12 2
    endloop
  endfacet
  facet normal 0 0 1
    outer loop
      vertex -8.89 9.12 2
      vertex -10.16 17.5976 2
      vertex -9.35353 9.04658 2
    endloop
  endfacet
  facet normal 0 0 1
    outer loop
      vertex -10.16 17.5976 2
      vertex -9.77168 8.83352 2
      vertex -9.35353 9.04658 2
    endloop
  endfacet
  facet normal 0 0 1
    outer loop
      vertex -10.16 17.5976 2
      vertex -10.1035 8.50168 2
      vertex -9.77168 8.83352 2
    endloop
  endfacet
  facet normal 0 0 1
    outer loop
      vertex -10.16 17.5976 2
      vertex -10.3166 8.08352 2
      vertex -10.1035 8.50168 2
    endloop
  endfacet
  facet normal 0 0 1
    outer loop
      vertex -20.32 0 2
      vertex -10.3166 8.08352 2
      vertex -10.16 17.5976 2
    endloop
  endfacet
  facet normal 0 0 1
    outer loop
      vertex -10.3166 -7.15647 2
      vertex -20.32 0 2
      vertex -10.39 -7.62 2
    endloop
  endfacet
  facet normal 0 0 1
    outer loop
      vertex -10.3166 8.08352 2
      vertex -20.32 0 2
      vertex -10.39 7.62 2
    endloop
  endfacet
  facet normal 0 0 1
    outer loop
      vertex 10.3166 -0.463525 2
      vertex 20.32 0 2
      vertex 10.39 0 2
    endloop
  endfacet
  facet normal 0 0 1
    outer loop
      vertex 10.1035 -0.881678 2
      vertex 20.32 0 2
      vertex 10.3166 -0.463525 2
    endloop
  endfacet
  facet normal 0 0 1
    outer loop
      vertex 9.77168 -1.21352 2
      vertex 20.32 0 2
      vertex 10.1035 -0.881678 2
    endloop
  endfacet
  facet normal 0 0 1
    outer loop
      vertex 20.32 0 2
      vertex 9.77168 -1.21352 2
      vertex 10.16 -17.5976 2
    endloop
  endfacet
  facet normal -0 0 1
    outer loop
      vertex 9.35353 -1.42658 2
      vertex 10.16 -17.5976 2
      vertex 9.77168 -1.21352 2
    endloop
  endfacet
  facet normal -0 0 1
    outer loop
      vertex 8.89 -1.5 2
      vertex 10.16 -17.5976 2
      vertex 9.35353 -1.42658 2
    endloop
  endfacet
  facet normal 0 0 1
    outer loop
      vertex 8.42647 -1.42658 2
      vertex 10.16 -17.5976 2
      vertex 8.89 -1.5 2
    endloop
  endfacet
  facet normal 0 0 1
    outer loop
      vertex 8.00832 -1.21352 2
      vertex 10.16 -17.5976 2
      vertex 8.42647 -1.42658 2
    endloop
  endfacet
  facet normal 0 0 1
    outer loop
      vertex -7.39 -7.62 2
      vertex 8.00832 -1.21352 2
      vertex 7.67647 -0.881678 2
    endloop
  endfacet
  facet normal 0 0 1
    outer loop
      vertex -7.39 -7.62 2
      vertex 7.67647 -0.881678 2
      vertex 7.46342 -0.463525 2
    endloop
  endfacet
  facet normal 0 0 1
    outer loop
      vertex -7.39 -7.62 2
      vertex 7.46342 -0.463525 2
      vertex 7.39 0 2
    endloop
  endfacet
  facet normal -0 0 1
    outer loop
      vertex -7.67647 6.73832 2
      vertex 7.46342 0.463525 2
      vertex -7.46342 7.15647 2
    endloop
  endfacet
  facet normal 0 0 1
    outer loop
      vertex 8.00832 -1.21352 2
      vertex -7.39 -7.62 2
      vertex -7.46342 -8.08352 2
    endloop
  endfacet
  facet normal 0 0 1
    outer loop
      vertex 8.00832 -1.21352 2
      vertex -7.46342 -8.08352 2
      vertex 10.16 -17.5976 2
    endloop
  endfacet
  facet normal -0 0 1
    outer loop
      vertex -7.67647 -8.50168 2
      vertex 10.16 -17.5976 2
      vertex -7.46342 -8.08352 2
    endloop
  endfacet
  facet normal 0 0 1
    outer loop
      vertex -10.16 -17.5976 2
      vertex -7.67647 -8.50168 2
      vertex -8.00832 -8.83352 2
    endloop
  endfacet
  facet normal 0 0 1
    outer loop
      vertex -10.16 -17.5976 2
      vertex -8.00832 -8.83352 2
      vertex -8.42647 -9.04658 2
    endloop
  endfacet
  facet normal 0 0 1
    outer loop
      vertex -10.16 -17.5976 2
      vertex -8.42647 -9.04658 2
      vertex -8.89 -9.12 2
    endloop
  endfacet
  facet normal 0 0 1
    outer loop
      vertex -10.16 -17.5976 2
      vertex -8.89 -9.12 2
      vertex -9.35353 -9.04658 2
    endloop
  endfacet
  facet normal 0 0 1
    outer loop
      vertex -7.67647 -8.50168 2
      vertex -10.16 -17.5976 2
      vertex 10.16 -17.5976 2
    endloop
  endfacet
  facet normal 0 0 1
    outer loop
      vertex -9.77168 -8.83352 2
      vertex -10.16 -17.5976 2
      vertex -9.35353 -9.04658 2
    endloop
  endfacet
  facet normal 0 0 1
    outer loop
      vertex -10.1035 -8.50168 2
      vertex -10.16 -17.5976 2
      vertex -9.77168 -8.83352 2
    endloop
  endfacet
  facet normal 0 0 1
    outer loop
      vertex -10.3166 -8.08352 2
      vertex -10.16 -17.5976 2
      vertex -10.1035 -8.50168 2
    endloop
  endfacet
  facet normal 0 0 1
    outer loop
      vertex -20.32 0 2
      vertex -10.3166 -8.08352 2
      vertex -10.39 -7.62 2
    endloop
  endfacet
  facet normal 0 0 1
    outer loop
      vertex -10.3166 -8.08352 2
      vertex -20.32 0 2
      vertex -10.16 -17.5976 2
    endloop
  endfacet
  facet normal 0 1 -0
    outer loop
      vertex 10.16 -17.5976 2
      vertex -10.16 -17.5976 30
      vertex 10.16 -17.5976 30
    endloop
  endfacet
  facet normal 0 1 0
    outer loop
      vertex -10.16 -17.5976 30
      vertex 10.16 -17.5976 2
      vertex -10.16 -17.5976 2
    endloop
  endfacet
  facet normal 0.866025 0.500001 0
    outer loop
      vertex -10.16 -17.5976 30
      vertex -20.32 0 2
      vertex -20.32 0 30
    endloop
  endfacet
  facet normal 0.866025 0.500001 0
    outer loop
      vertex -20.32 0 2
      vertex -10.16 -17.5976 30
      vertex -10.16 -17.5976 2
    endloop
  endfacet
  facet normal -0.866025 -0.5 0
    outer loop
      vertex 22.99 0 23.3064
      vertex 22.69 0.519615 27.9457
      vertex 22.69 0.519615 22.1868
    endloop
  endfacet
  facet normal -0.866025 -0.5 0
    outer loop
      vertex 22.69 0.519615 27.9457
      vertex 22.99 0 23.3064
      vertex 22.99 0 27.8653
    endloop
  endfacet
  facet normal 0 -1 0
    outer loop
      vertex 22.09 0.519615 28.1065
      vertex 22.69 0.519615 22.1868
      vertex 22.69 0.519615 27.9457
    endloop
  endfacet
  facet normal -0 -1 0
    outer loop
      vertex 22.69 0.519615 22.1868
      vertex 22.09 0.519615 28.1065
      vertex 22.09 0.519615 19.9476
    endloop
  endfacet
  facet normal 0.866025 -0.5 0
    outer loop
      vertex 21.79 0 28.1869
      vertex 22.09 0.519615 19.9476
      vertex 22.09 0.519615 28.1065
    endloop
  endfacet
  facet normal 0.866025 -0.5 0
    outer loop
      vertex 22.09 0.519615 19.9476
      vertex 21.79 0 28.1869
      vertex 21.79 0 18.8279
    endloop
  endfacet
  facet normal 0.866025 0.5 -0
    outer loop
      vertex 22.09 -0.519615 19.9476
      vertex 21.79 0 28.1869
      vertex 22.09 -0.519615 28.1065
    endloop
  endfacet
  facet normal 0.866025 0.5 0
    outer loop
      vertex 21.79 0 28.1869
      vertex 22.09 -0.519615 19.9476
      vertex 21.79 0 18.8279
    endloop
  endfacet
  facet normal -0.866025 0.5 0
    outer loop
      vertex 22.69 -0.519615 27.9457
      vertex 22.99 0 23.3064
      vertex 22.69 -0.519615 22.1868
    endloop
  endfacet
  facet normal -0.866025 0.5 0
    outer loop
      vertex 22.99 0 23.3064
      vertex 22.69 -0.519615 27.9457
      vertex 22.99 0 27.8653
    endloop
  endfacet
  facet normal 0 1 -0
    outer loop
      vertex 22.69 -0.519615 22.1868
      vertex 22.09 -0.519615 28.1065
      vertex 22.69 -0.519615 27.9457
    endloop
  endfacet
  facet normal 0 1 0
    outer loop
      vertex 22.09 -0.519615 28.1065
      vertex 22.69 -0.519615 22.1868
      vertex 22.09 -0.519615 19.9476
    endloop
  endfacet
  facet normal -0.866027 -0.499997 0
    outer loop
      vertex 22.99 -3 23.3064
      vertex 22.69 -2.48038 27.9457
      vertex 22.69 -2.48038 22.1868
    endloop
  endfacet
  facet normal -0.866027 -0.499997 0
    outer loop
      vertex 22.69 -2.48038 27.9457
      vertex 22.99 -3 23.3064
      vertex 22.99 -3 27.8653
    endloop
  endfacet
  facet normal 0 -1 0
    outer loop
      vertex 22.09 -2.48038 28.1065
      vertex 22.69 -2.48038 22.1868
      vertex 22.69 -2.48038 27.9457
    endloop
  endfacet
  facet normal -0 -1 0
    outer loop
      vertex 22.69 -2.48038 22.1868
      vertex 22.09 -2.48038 28.1065
      vertex 22.09 -2.48038 19.9476
    endloop
  endfacet
  facet normal 0 1 -0
    outer loop
      vertex 22.69 -3.51962 22.1868
      vertex 22.09 -3.51962 28.1065
      vertex 22.69 -3.51962 27.9457
    endloop
  endfacet
  facet normal 0 1 0
    outer loop
      vertex 22.09 -3.51962 28.1065
      vertex 22.69 -3.51962 22.1868
      vertex 22.09 -3.51962 19.9476
    endloop
  endfacet
  facet normal 0.866027 -0.499997 0
    outer loop
      vertex 21.79 -3 28.1869
      vertex 22.09 -2.48038 19.9476
      vertex 22.09 -2.48038 28.1065
    endloop
  endfacet
  facet normal 0.866027 -0.499997 0
    outer loop
      vertex 22.09 -2.48038 19.9476
      vertex 21.79 -3 28.1869
      vertex 21.79 -3 18.8279
    endloop
  endfacet
  facet normal 0.866027 0.499997 -0
    outer loop
      vertex 22.09 -3.51962 19.9476
      vertex 21.79 -3 28.1869
      vertex 22.09 -3.51962 28.1065
    endloop
  endfacet
  facet normal 0.866027 0.499997 0
    outer loop
      vertex 21.79 -3 28.1869
      vertex 22.09 -3.51962 19.9476
      vertex 21.79 -3 18.8279
    endloop
  endfacet
  facet normal -0.866027 0.499997 0
    outer loop
      vertex 22.69 -3.51962 27.9457
      vertex 22.99 -3 23.3064
      vertex 22.69 -3.51962 22.1868
    endloop
  endfacet
  facet normal -0.866027 0.499997 0
    outer loop
      vertex 22.99 -3 23.3064
      vertex 22.69 -3.51962 27.9457
      vertex 22.99 -3 27.8653
    endloop
  endfacet
  facet normal -0.866025 -0.5 -0
    outer loop
      vertex -21.79 0 28.3664
      vertex -22.09 0.519615 18.7641
      vertex -21.79 0 17.6445
    endloop
  endfacet
  facet normal -0.866025 -0.5 0
    outer loop
      vertex -22.09 0.519615 18.7641
      vertex -21.79 0 28.3664
      vertex -22.09 0.519615 28.286
    endloop
  endfacet
  facet normal 0.866025 -0.5 0
    outer loop
      vertex -22.99 0 22.1229
      vertex -22.69 0.519615 28.1252
      vertex -22.99 0 28.0448
    endloop
  endfacet
  facet normal 0.866025 -0.5 0
    outer loop
      vertex -22.69 0.519615 28.1252
      vertex -22.99 0 22.1229
      vertex -22.69 0.519615 21.0033
    endloop
  endfacet
  facet normal 0 -1 0
    outer loop
      vertex -22.69 0.519615 21.0033
      vertex -22.09 0.519615 28.286
      vertex -22.69 0.519615 28.1252
    endloop
  endfacet
  facet normal 0 -1 -0
    outer loop
      vertex -22.09 0.519615 28.286
      vertex -22.69 0.519615 21.0033
      vertex -22.09 0.519615 18.7641
    endloop
  endfacet
  facet normal 0.866025 0.5 0
    outer loop
      vertex -22.69 -0.519615 28.1252
      vertex -22.99 0 22.1229
      vertex -22.99 0 28.0448
    endloop
  endfacet
  facet normal 0.866025 0.5 0
    outer loop
      vertex -22.99 0 22.1229
      vertex -22.69 -0.519615 28.1252
      vertex -22.69 -0.519615 21.0033
    endloop
  endfacet
  facet normal -0.866025 0.5 0
    outer loop
      vertex -22.09 -0.519615 18.7641
      vertex -21.79 0 28.3664
      vertex -21.79 0 17.6445
    endloop
  endfacet
  facet normal -0.866025 0.5 0
    outer loop
      vertex -21.79 0 28.3664
      vertex -22.09 -0.519615 18.7641
      vertex -22.09 -0.519615 28.286
    endloop
  endfacet
  facet normal 0 1 0
    outer loop
      vertex -22.09 -0.519615 28.286
      vertex -22.69 -0.519615 21.0033
      vertex -22.69 -0.519615 28.1252
    endloop
  endfacet
  facet normal -0 1 0
    outer loop
      vertex -22.69 -0.519615 21.0033
      vertex -22.09 -0.519615 28.286
      vertex -22.09 -0.519615 18.7641
    endloop
  endfacet
endsolid OpenSCAD_Model
