solid OpenSCAD_Model
  facet normal 0.866027 0.499997 -0
    outer loop
      vertex 18.7032 5 3.57598
      vertex 10.795 18.6975 30
      vertex 18.7032 5 29.2819
    endloop
  endfacet
  facet normal 0.866026 0.5 -6.08239e-05
    outer loop
      vertex 21.59 0 30
      vertex 18.7032 5 29.2819
      vertex 10.795 18.6975 30
    endloop
  endfacet
  facet normal 0.866022 0.500006 0
    outer loop
      vertex 18.7032 5 29.2819
      vertex 21.59 0 30
      vertex 21.59 0 28.5084
    endloop
  endfacet
  facet normal 0.866027 0.499997 0
    outer loop
      vertex 10.795 18.6975 30
      vertex 18.7032 5 3.57598
      vertex 10.795 18.6975 0
    endloop
  endfacet
  facet normal 0.866026 0.5 1.22142e-05
    outer loop
      vertex 18.7032 5 3.57598
      vertex 21.59 0 0
      vertex 10.795 18.6975 0
    endloop
  endfacet
  facet normal 0.866022 0.500006 -0
    outer loop
      vertex 21.59 0 0
      vertex 18.7032 5 3.57598
      vertex 21.59 0 14.3495
    endloop
  endfacet
  facet normal -0.866027 0.499997 0
    outer loop
      vertex -10.795 18.6975 0
      vertex -18.7032 5 3.57951
      vertex -10.795 18.6975 30
    endloop
  endfacet
  facet normal -0.866026 0.5 1.22021e-05
    outer loop
      vertex -21.59 0 0
      vertex -18.7032 5 3.57951
      vertex -10.795 18.6975 0
    endloop
  endfacet
  facet normal -0.865982 0.500075 -0.000128292
    outer loop
      vertex -18.7032 5 3.57951
      vertex -21.59 0 0
      vertex -19 4.48601 3.5
    endloop
  endfacet
  facet normal -0.866025 0.5 0
    outer loop
      vertex -19 4.48601 3.5
      vertex -21.59 0 0
      vertex -21.59 0 13.166
    endloop
  endfacet
  facet normal -0.866027 0.499997 0
    outer loop
      vertex -18.7032 5 29.4614
      vertex -10.795 18.6975 30
      vertex -18.7032 5 3.57951
    endloop
  endfacet
  facet normal -0.866026 0.5 -8.10947e-05
    outer loop
      vertex -18.7032 5 29.4614
      vertex -21.59 0 30
      vertex -10.795 18.6975 30
    endloop
  endfacet
  facet normal -0.866022 0.500006 0
    outer loop
      vertex -21.59 0 30
      vertex -18.7032 5 29.4614
      vertex -21.59 0 28.6879
    endloop
  endfacet
  facet normal 0 1 -0
    outer loop
      vertex 10.795 18.6975 0
      vertex -10.795 18.6975 30
      vertex 10.795 18.6975 30
    endloop
  endfacet
  facet normal 0 1 0
    outer loop
      vertex -10.795 18.6975 30
      vertex 10.795 18.6975 0
      vertex -10.795 18.6975 0
    endloop
  endfacet
  facet normal 0 0 1
    outer loop
      vertex 10.795 18.6975 30
      vertex 20.32 0 30
      vertex 21.59 0 30
    endloop
  endfacet
  facet normal 0 0 1
    outer loop
      vertex 10.795 18.6975 30
      vertex 10.16 17.5976 30
      vertex 20.32 0 30
    endloop
  endfacet
  facet normal 0 0 1
    outer loop
      vertex 10.795 18.6975 30
      vertex -10.16 17.5976 30
      vertex 10.16 17.5976 30
    endloop
  endfacet
  facet normal -0 0 1
    outer loop
      vertex -10.795 18.6975 30
      vertex -10.16 17.5976 30
      vertex 10.795 18.6975 30
    endloop
  endfacet
  facet normal 0 0 1
    outer loop
      vertex -10.795 18.6975 30
      vertex -20.32 0 30
      vertex -10.16 17.5976 30
    endloop
  endfacet
  facet normal 0 -0 1
    outer loop
      vertex -20.32 0 30
      vertex -10.795 18.6975 30
      vertex -21.59 0 30
    endloop
  endfacet
  facet normal -0 0 1
    outer loop
      vertex 20.32 0 30
      vertex 10.795 -18.6975 30
      vertex 21.59 0 30
    endloop
  endfacet
  facet normal -0 0 1
    outer loop
      vertex 10.16 -17.5976 30
      vertex 10.795 -18.6975 30
      vertex 20.32 0 30
    endloop
  endfacet
  facet normal -0 0 1
    outer loop
      vertex -10.16 -17.5976 30
      vertex 10.795 -18.6975 30
      vertex 10.16 -17.5976 30
    endloop
  endfacet
  facet normal 0 0 1
    outer loop
      vertex -10.16 -17.5976 30
      vertex -10.795 -18.6975 30
      vertex 10.795 -18.6975 30
    endloop
  endfacet
  facet normal 0 0 1
    outer loop
      vertex -20.32 0 30
      vertex -10.795 -18.6975 30
      vertex -10.16 -17.5976 30
    endloop
  endfacet
  facet normal 0 0 1
    outer loop
      vertex -10.795 -18.6975 30
      vertex -20.32 0 30
      vertex -21.59 0 30
    endloop
  endfacet
  facet normal 0.866022 -0.500006 0
    outer loop
      vertex 21.59 0 30
      vertex 18.7032 -5 29.2819
      vertex 21.59 0 28.5084
    endloop
  endfacet
  facet normal 0.866027 -0.499997 0
    outer loop
      vertex 18.7032 -5 29.2819
      vertex 10.795 -18.6975 30
      vertex 18.7032 -5 3.57598
    endloop
  endfacet
  facet normal 0.866026 -0.5 -6.08239e-05
    outer loop
      vertex 10.795 -18.6975 30
      vertex 18.7032 -5 29.2819
      vertex 21.59 0 30
    endloop
  endfacet
  facet normal 0.866022 -0.500006 0
    outer loop
      vertex 18.7032 -5 3.57598
      vertex 21.59 0 0
      vertex 21.59 0 14.3495
    endloop
  endfacet
  facet normal 0.866026 -0.5 1.22142e-05
    outer loop
      vertex 18.7032 -5 3.57598
      vertex 10.795 -18.6975 0
      vertex 21.59 0 0
    endloop
  endfacet
  facet normal 0.866027 -0.499997 0
    outer loop
      vertex 10.795 -18.6975 0
      vertex 18.7032 -5 3.57598
      vertex 10.795 -18.6975 30
    endloop
  endfacet
  facet normal -0 0 -1
    outer loop
      vertex 7.46342 -0.463525 0
      vertex -7.67647 -6.73832 0
      vertex 7.39 0 0
    endloop
  endfacet
  facet normal 0 0 -1
    outer loop
      vertex 7.39 0 0
      vertex -7.46342 7.15647 0
      vertex -7.39 7.62 0
    endloop
  endfacet
  facet normal 0 0 -1
    outer loop
      vertex -8.00832 -6.40647 0
      vertex 7.39 0 0
      vertex -7.67647 -6.73832 0
    endloop
  endfacet
  facet normal 0 0 -1
    outer loop
      vertex 7.39 0 0
      vertex -7.67647 6.73832 0
      vertex -7.46342 7.15647 0
    endloop
  endfacet
  facet normal 0 0 -1
    outer loop
      vertex -8.00832 6.40647 0
      vertex 7.39 0 0
      vertex -8.00832 -6.40647 0
    endloop
  endfacet
  facet normal 0 0 -1
    outer loop
      vertex 7.39 0 0
      vertex -8.00832 6.40647 0
      vertex -7.67647 6.73832 0
    endloop
  endfacet
  facet normal 0 0 -1
    outer loop
      vertex -8.42647 -6.19341 0
      vertex -8.00832 6.40647 0
      vertex -8.00832 -6.40647 0
    endloop
  endfacet
  facet normal 0 0 -1
    outer loop
      vertex -8.42647 -6.19341 0
      vertex -8.42647 6.19341 0
      vertex -8.00832 6.40647 0
    endloop
  endfacet
  facet normal 0 0 -1
    outer loop
      vertex -8.89 -6.12 0
      vertex -8.42647 6.19341 0
      vertex -8.42647 -6.19341 0
    endloop
  endfacet
  facet normal 0 0 -1
    outer loop
      vertex -8.89 -6.12 0
      vertex -8.89 6.12 0
      vertex -8.42647 6.19341 0
    endloop
  endfacet
  facet normal 0 0 -1
    outer loop
      vertex -9.35353 -6.19341 0
      vertex -8.89 6.12 0
      vertex -8.89 -6.12 0
    endloop
  endfacet
  facet normal 0 0 -1
    outer loop
      vertex -9.35353 -6.19341 0
      vertex -9.35353 6.19341 0
      vertex -8.89 6.12 0
    endloop
  endfacet
  facet normal 0 0 -1
    outer loop
      vertex -9.77168 -6.40647 0
      vertex -9.35353 6.19341 0
      vertex -9.35353 -6.19341 0
    endloop
  endfacet
  facet normal 0 0 -1
    outer loop
      vertex -9.77168 -6.40647 0
      vertex -9.77168 6.40647 0
      vertex -9.35353 6.19341 0
    endloop
  endfacet
  facet normal 0 0 -1
    outer loop
      vertex -21.59 0 0
      vertex -9.77168 -6.40647 0
      vertex -10.1035 -6.73832 0
    endloop
  endfacet
  facet normal 0 0 -1
    outer loop
      vertex -9.77168 -6.40647 0
      vertex -21.59 0 0
      vertex -9.77168 6.40647 0
    endloop
  endfacet
  facet normal 0 0 -1
    outer loop
      vertex -21.59 0 0
      vertex -10.1035 -6.73832 0
      vertex -10.3166 -7.15647 0
    endloop
  endfacet
  facet normal -0 0 -1
    outer loop
      vertex -9.77168 6.40647 0
      vertex -21.59 0 0
      vertex -10.1035 6.73832 0
    endloop
  endfacet
  facet normal 0 0 -1
    outer loop
      vertex -21.59 0 0
      vertex -10.3166 -7.15647 0
      vertex -10.39 -7.62 0
    endloop
  endfacet
  facet normal -0 0 -1
    outer loop
      vertex -10.1035 6.73832 0
      vertex -21.59 0 0
      vertex -10.3166 7.15647 0
    endloop
  endfacet
  facet normal 0 0 -1
    outer loop
      vertex 9.77168 -1.21352 0
      vertex 21.59 0 0
      vertex 10.795 -18.6975 0
    endloop
  endfacet
  facet normal 0 0 -1
    outer loop
      vertex 10.3166 0.463525 0
      vertex 21.59 0 0
      vertex 10.39 0 0
    endloop
  endfacet
  facet normal -0 0 -1
    outer loop
      vertex 21.59 0 0
      vertex 10.3166 -0.463525 0
      vertex 10.39 0 0
    endloop
  endfacet
  facet normal 0 0 -1
    outer loop
      vertex 21.59 0 0
      vertex 10.1035 -0.881678 0
      vertex 10.3166 -0.463525 0
    endloop
  endfacet
  facet normal 0 0 -1
    outer loop
      vertex 21.59 0 0
      vertex 9.77168 -1.21352 0
      vertex 10.1035 -0.881678 0
    endloop
  endfacet
  facet normal 0 0 -1
    outer loop
      vertex 10.795 -18.6975 0
      vertex 9.35353 -1.42658 0
      vertex 9.77168 -1.21352 0
    endloop
  endfacet
  facet normal 0 0 -1
    outer loop
      vertex 10.795 -18.6975 0
      vertex 8.89 -1.5 0
      vertex 9.35353 -1.42658 0
    endloop
  endfacet
  facet normal 0 0 -1
    outer loop
      vertex 10.795 -18.6975 0
      vertex 8.42647 -1.42658 0
      vertex 8.89 -1.5 0
    endloop
  endfacet
  facet normal 0 0 -1
    outer loop
      vertex 10.795 -18.6975 0
      vertex 8.00832 -1.21352 0
      vertex 8.42647 -1.42658 0
    endloop
  endfacet
  facet normal 0 0 -1
    outer loop
      vertex -7.46342 -8.08352 0
      vertex 8.00832 -1.21352 0
      vertex 10.795 -18.6975 0
    endloop
  endfacet
  facet normal 0 -0 -1
    outer loop
      vertex -7.39 -7.62 0
      vertex 8.00832 -1.21352 0
      vertex -7.46342 -8.08352 0
    endloop
  endfacet
  facet normal -0 0 -1
    outer loop
      vertex 7.67647 -0.881678 0
      vertex -7.46342 -7.15647 0
      vertex 7.46342 -0.463525 0
    endloop
  endfacet
  facet normal -0 0 -1
    outer loop
      vertex 8.00832 -1.21352 0
      vertex -7.39 -7.62 0
      vertex 7.67647 -0.881678 0
    endloop
  endfacet
  facet normal 0 0 -1
    outer loop
      vertex -7.46342 -7.15647 0
      vertex 7.67647 -0.881678 0
      vertex -7.39 -7.62 0
    endloop
  endfacet
  facet normal 0 0 -1
    outer loop
      vertex 10.795 -18.6975 0
      vertex -7.67647 -8.50168 0
      vertex -7.46342 -8.08352 0
    endloop
  endfacet
  facet normal 0 0 -1
    outer loop
      vertex 10.795 -18.6975 0
      vertex -8.00832 -8.83352 0
      vertex -7.67647 -8.50168 0
    endloop
  endfacet
  facet normal 0 0 -1
    outer loop
      vertex -10.795 -18.6975 0
      vertex -8.00832 -8.83352 0
      vertex 10.795 -18.6975 0
    endloop
  endfacet
  facet normal 0 0 -1
    outer loop
      vertex -8.00832 -8.83352 0
      vertex -10.795 -18.6975 0
      vertex -8.42647 -9.04658 0
    endloop
  endfacet
  facet normal 0 0 -1
    outer loop
      vertex -8.42647 -9.04658 0
      vertex -10.795 -18.6975 0
      vertex -8.89 -9.12 0
    endloop
  endfacet
  facet normal 0 0 -1
    outer loop
      vertex -10.3166 -8.08352 0
      vertex -21.59 0 0
      vertex -10.39 -7.62 0
    endloop
  endfacet
  facet normal 0 0 -1
    outer loop
      vertex -21.59 0 0
      vertex -10.3166 -8.08352 0
      vertex -10.795 -18.6975 0
    endloop
  endfacet
  facet normal -0 0 -1
    outer loop
      vertex -10.1035 -8.50168 0
      vertex -10.795 -18.6975 0
      vertex -10.3166 -8.08352 0
    endloop
  endfacet
  facet normal -0 0 -1
    outer loop
      vertex -9.77168 -8.83352 0
      vertex -10.795 -18.6975 0
      vertex -10.1035 -8.50168 0
    endloop
  endfacet
  facet normal -0 0 -1
    outer loop
      vertex -9.35353 -9.04658 0
      vertex -10.795 -18.6975 0
      vertex -9.77168 -8.83352 0
    endloop
  endfacet
  facet normal -0 0 -1
    outer loop
      vertex -8.89 -9.12 0
      vertex -10.795 -18.6975 0
      vertex -9.35353 -9.04658 0
    endloop
  endfacet
  facet normal 0 0 -1
    outer loop
      vertex 10.1035 0.881678 0
      vertex 21.59 0 0
      vertex 10.3166 0.463525 0
    endloop
  endfacet
  facet normal 0 0 -1
    outer loop
      vertex 9.77168 1.21352 0
      vertex 21.59 0 0
      vertex 10.1035 0.881678 0
    endloop
  endfacet
  facet normal 0 0 -1
    outer loop
      vertex 21.59 0 0
      vertex 9.77168 1.21352 0
      vertex 10.795 18.6975 0
    endloop
  endfacet
  facet normal 0 0 -1
    outer loop
      vertex 9.35353 1.42658 0
      vertex 10.795 18.6975 0
      vertex 9.77168 1.21352 0
    endloop
  endfacet
  facet normal 0 0 -1
    outer loop
      vertex 8.89 1.5 0
      vertex 10.795 18.6975 0
      vertex 9.35353 1.42658 0
    endloop
  endfacet
  facet normal 0 0 -1
    outer loop
      vertex 8.42647 1.42658 0
      vertex 10.795 18.6975 0
      vertex 8.89 1.5 0
    endloop
  endfacet
  facet normal 0 0 -1
    outer loop
      vertex 8.00832 1.21352 0
      vertex 10.795 18.6975 0
      vertex 8.42647 1.42658 0
    endloop
  endfacet
  facet normal 0 0 -1
    outer loop
      vertex -7.39 7.62 0
      vertex 8.00832 1.21352 0
      vertex 7.67647 0.881678 0
    endloop
  endfacet
  facet normal 0 0 -1
    outer loop
      vertex -7.39 7.62 0
      vertex 7.67647 0.881678 0
      vertex 7.46342 0.463525 0
    endloop
  endfacet
  facet normal 0 0 -1
    outer loop
      vertex -7.67647 -6.73832 0
      vertex 7.46342 -0.463525 0
      vertex -7.46342 -7.15647 0
    endloop
  endfacet
  facet normal 0 0 -1
    outer loop
      vertex 7.39 0 0
      vertex -7.39 7.62 0
      vertex 7.46342 0.463525 0
    endloop
  endfacet
  facet normal 0 0 -1
    outer loop
      vertex 8.00832 1.21352 0
      vertex -7.39 7.62 0
      vertex -7.46342 8.08352 0
    endloop
  endfacet
  facet normal 0 0 -1
    outer loop
      vertex 8.00832 1.21352 0
      vertex -7.46342 8.08352 0
      vertex 10.795 18.6975 0
    endloop
  endfacet
  facet normal 0 0 -1
    outer loop
      vertex -7.67647 8.50168 0
      vertex 10.795 18.6975 0
      vertex -7.46342 8.08352 0
    endloop
  endfacet
  facet normal 0 0 -1
    outer loop
      vertex -8.00832 8.83352 0
      vertex 10.795 18.6975 0
      vertex -7.67647 8.50168 0
    endloop
  endfacet
  facet normal 0 0 -1
    outer loop
      vertex -10.795 18.6975 0
      vertex -8.00832 8.83352 0
      vertex -8.42647 9.04658 0
    endloop
  endfacet
  facet normal 0 0 -1
    outer loop
      vertex -10.795 18.6975 0
      vertex -8.42647 9.04658 0
      vertex -8.89 9.12 0
    endloop
  endfacet
  facet normal 0 0 -1
    outer loop
      vertex -10.795 18.6975 0
      vertex -8.89 9.12 0
      vertex -9.35353 9.04658 0
    endloop
  endfacet
  facet normal 0 0 -1
    outer loop
      vertex -8.00832 8.83352 0
      vertex -10.795 18.6975 0
      vertex 10.795 18.6975 0
    endloop
  endfacet
  facet normal 0 0 -1
    outer loop
      vertex -9.77168 8.83352 0
      vertex -10.795 18.6975 0
      vertex -9.35353 9.04658 0
    endloop
  endfacet
  facet normal 0 0 -1
    outer loop
      vertex -10.1035 8.50168 0
      vertex -10.795 18.6975 0
      vertex -9.77168 8.83352 0
    endloop
  endfacet
  facet normal 0 0 -1
    outer loop
      vertex -10.3166 8.08352 0
      vertex -10.795 18.6975 0
      vertex -10.1035 8.50168 0
    endloop
  endfacet
  facet normal 0 0 -1
    outer loop
      vertex -21.59 0 0
      vertex -10.3166 8.08352 0
      vertex -10.39 7.62 0
    endloop
  endfacet
  facet normal -0 0 -1
    outer loop
      vertex -10.3166 7.15647 0
      vertex -21.59 0 0
      vertex -10.39 7.62 0
    endloop
  endfacet
  facet normal -0 0 -1
    outer loop
      vertex -10.3166 8.08352 0
      vertex -21.59 0 0
      vertex -10.795 18.6975 0
    endloop
  endfacet
  facet normal 0 -1 0
    outer loop
      vertex -10.795 -18.6975 0
      vertex 10.795 -18.6975 30
      vertex -10.795 -18.6975 30
    endloop
  endfacet
  facet normal 0 -1 -0
    outer loop
      vertex 10.795 -18.6975 30
      vertex -10.795 -18.6975 0
      vertex 10.795 -18.6975 0
    endloop
  endfacet
  facet normal -0.866025 -0.5 0
    outer loop
      vertex -21.59 0 0
      vertex -19 -4.48601 3.5
      vertex -21.59 0 13.166
    endloop
  endfacet
  facet normal -0.865982 -0.500075 -0.000128292
    outer loop
      vertex -21.59 0 0
      vertex -18.7032 -5 3.57951
      vertex -19 -4.48601 3.5
    endloop
  endfacet
  facet normal -0.866027 -0.499997 -0
    outer loop
      vertex -10.795 -18.6975 30
      vertex -18.7032 -5 3.57951
      vertex -10.795 -18.6975 0
    endloop
  endfacet
  facet normal -0.866026 -0.5 1.22021e-05
    outer loop
      vertex -10.795 -18.6975 0
      vertex -18.7032 -5 3.57951
      vertex -21.59 0 0
    endloop
  endfacet
  facet normal -0.866022 -0.500006 0
    outer loop
      vertex -18.7032 -5 29.4614
      vertex -21.59 0 30
      vertex -21.59 0 28.6879
    endloop
  endfacet
  facet normal -0.866026 -0.5 -8.10947e-05
    outer loop
      vertex -18.7032 -5 29.4614
      vertex -10.795 -18.6975 30
      vertex -21.59 0 30
    endloop
  endfacet
  facet normal -0.866027 -0.499997 0
    outer loop
      vertex -18.7032 -5 3.57951
      vertex -10.795 -18.6975 30
      vertex -18.7032 -5 29.4614
    endloop
  endfacet
  facet normal 0.258865 -1.11438e-15 0.965914
    outer loop
      vertex 23.49 -0.69282 27.9993
      vertex 22.79 -2.30718 28.1869
      vertex 23.19 -3 28.0797
    endloop
  endfacet
  facet normal 0.258865 7.78448e-16 0.965914
    outer loop
      vertex 22.69 -0.69282 28.2137
      vertex 22.79 -2.30718 28.1869
      vertex 23.49 -0.69282 27.9993
    endloop
  endfacet
  facet normal 0.258736 -7.96701e-05 0.965948
    outer loop
      vertex 21.59 0 28.5084
      vertex 22.69 -0.69282 28.2137
      vertex 22.29 0 28.3209
    endloop
  endfacet
  facet normal 0.258752 -7.47931e-06 0.965944
    outer loop
      vertex 22.69 -0.69282 28.2137
      vertex 21.99 -2.30718 28.4012
      vertex 22.79 -2.30718 28.1869
    endloop
  endfacet
  facet normal 0.258763 0 0.965941
    outer loop
      vertex 25.1297 5 27.56
      vertex 23.89 0 27.8921
      vertex 25.1297 -5 27.56
    endloop
  endfacet
  facet normal 0.258834 -1.88664e-05 0.965922
    outer loop
      vertex 25.1297 5 27.56
      vertex 23.49 0.69282 27.9993
      vertex 23.89 0 27.8921
    endloop
  endfacet
  facet normal 0.258865 -3.13062e-05 0.965914
    outer loop
      vertex 25.1297 5 27.56
      vertex 22.69 0.69282 28.2137
      vertex 23.49 0.69282 27.9993
    endloop
  endfacet
  facet normal 0.258808 2.91802e-06 0.965929
    outer loop
      vertex 18.7032 5 29.2819
      vertex 22.69 0.69282 28.2137
      vertex 25.1297 5 27.56
    endloop
  endfacet
  facet normal 0.258773 -1.70904e-05 0.965938
    outer loop
      vertex 22.69 -0.69282 28.2137
      vertex 21.59 0 28.5084
      vertex 21.99 -2.30718 28.4012
    endloop
  endfacet
  facet normal 0.258736 7.96701e-05 0.965948
    outer loop
      vertex 22.69 0.69282 28.2137
      vertex 21.59 0 28.5084
      vertex 22.29 0 28.3209
    endloop
  endfacet
  facet normal 0.258791 -1.41721e-05 0.965933
    outer loop
      vertex 22.69 0.69282 28.2137
      vertex 18.7032 5 29.2819
      vertex 21.59 0 28.5084
    endloop
  endfacet
  facet normal 0.258834 1.88664e-05 0.965922
    outer loop
      vertex 23.49 -0.69282 27.9993
      vertex 25.1297 -5 27.56
      vertex 23.89 0 27.8921
    endloop
  endfacet
  facet normal 0.258808 7.97068e-06 0.965929
    outer loop
      vertex 23.19 -3 28.0797
      vertex 25.1297 -5 27.56
      vertex 23.49 -0.69282 27.9993
    endloop
  endfacet
  facet normal 0.258824 2.51589e-05 0.965924
    outer loop
      vertex 22.79 -3.69282 28.1869
      vertex 25.1297 -5 27.56
      vertex 23.19 -3 28.0797
    endloop
  endfacet
  facet normal 0.258752 -0.000112958 0.965944
    outer loop
      vertex 21.99 -3.69282 28.4012
      vertex 25.1297 -5 27.56
      vertex 22.79 -3.69282 28.1869
    endloop
  endfacet
  facet normal 0.258808 3.19228e-05 0.965929
    outer loop
      vertex 21.99 -3.69282 28.4012
      vertex 18.7032 -5 29.2819
      vertex 25.1297 -5 27.56
    endloop
  endfacet
  facet normal 0.258829 -2.24092e-05 0.965923
    outer loop
      vertex 18.7032 -5 29.2819
      vertex 21.99 -3.69282 28.4012
      vertex 21.59 -3 28.5084
    endloop
  endfacet
  facet normal 0.258865 0 0.965914
    outer loop
      vertex 21.59 0 28.5084
      vertex 21.59 -3 28.5084
      vertex 21.99 -2.30718 28.4012
    endloop
  endfacet
  facet normal 0.258814 -0 0.965927
    outer loop
      vertex 21.59 -3 28.5084
      vertex 21.59 0 28.5084
      vertex 18.7032 -5 29.2819
    endloop
  endfacet
  facet normal 0.965927 2.08133e-06 -0.258814
    outer loop
      vertex 22.69 0.69282 18.4547
      vertex 25.1297 5 27.56
      vertex 23.49 0.69282 21.4404
    endloop
  endfacet
  facet normal 0.965926 8.67651e-06 -0.258819
    outer loop
      vertex 25.1297 5 27.56
      vertex 23.89 0 22.9332
      vertex 23.49 0.69282 21.4404
    endloop
  endfacet
  facet normal 0.965927 2.004e-06 -0.258814
    outer loop
      vertex 23.49 -0.69282 21.4404
      vertex 22.79 -2.30718 18.8279
      vertex 22.69 -0.69282 18.4547
    endloop
  endfacet
  facet normal 0.965925 2.77293e-15 -0.258822
    outer loop
      vertex 23.19 -3 20.3208
      vertex 23.49 -0.69282 21.4404
      vertex 23.89 0 22.9332
    endloop
  endfacet
  facet normal 0.965928 -6.86668e-06 -0.258809
    outer loop
      vertex 23.49 -0.69282 21.4404
      vertex 23.19 -3 20.3208
      vertex 22.79 -2.30718 18.8279
    endloop
  endfacet
  facet normal 0.965928 0 -0.25881
    outer loop
      vertex 25.1297 -5 27.56
      vertex 23.89 0 22.9332
      vertex 25.1297 5 27.56
    endloop
  endfacet
  facet normal 0.965925 -6.7241e-05 -0.258822
    outer loop
      vertex 22.79 -3.69282 18.8279
      vertex 25.1297 -5 27.56
      vertex 21.99 -3.69282 15.8423
    endloop
  endfacet
  facet normal 0.965928 1.18464e-05 -0.258811
    outer loop
      vertex 23.19 -3 20.3208
      vertex 25.1297 -5 27.56
      vertex 22.79 -3.69282 18.8279
    endloop
  endfacet
  facet normal 0.965927 -6.01302e-06 -0.258816
    outer loop
      vertex 23.89 0 22.9332
      vertex 25.1297 -5 27.56
      vertex 23.19 -3 20.3208
    endloop
  endfacet
  facet normal 0.965926 1.30611e-05 -0.258819
    outer loop
      vertex 25.1297 5 27.56
      vertex 22.69 0.69282 18.4547
      vertex 18.7032 5 3.57598
    endloop
  endfacet
  facet normal 0.965925 -3.55504e-15 -0.258822
    outer loop
      vertex 21.59 0 14.3495
      vertex 22.69 0.69282 18.4547
      vertex 22.29 0 16.9619
    endloop
  endfacet
  facet normal 0.965925 6.68104e-07 -0.258822
    outer loop
      vertex 22.69 0.69282 18.4547
      vertex 21.59 0 14.3495
      vertex 18.7032 5 3.57598
    endloop
  endfacet
  facet normal 0.965925 3.81197e-16 -0.258822
    outer loop
      vertex 21.99 -2.30718 15.8423
      vertex 22.29 0 16.9619
      vertex 22.69 -0.69282 18.4547
    endloop
  endfacet
  facet normal 0.965925 -1.42397e-15 -0.258822
    outer loop
      vertex 21.99 -2.30718 15.8423
      vertex 22.69 -0.69282 18.4547
      vertex 22.79 -2.30718 18.8279
    endloop
  endfacet
  facet normal 0.965925 -3.73639e-16 -0.258822
    outer loop
      vertex 22.29 0 16.9619
      vertex 21.99 -2.30718 15.8423
      vertex 21.59 0 14.3495
    endloop
  endfacet
  facet normal 0.965925 0 -0.258822
    outer loop
      vertex 21.59 -3 14.3495
      vertex 21.59 0 14.3495
      vertex 21.99 -2.30718 15.8423
    endloop
  endfacet
  facet normal 0.965925 0 -0.258823
    outer loop
      vertex 21.59 -3 14.3495
      vertex 18.7032 -5 3.57598
      vertex 21.59 0 14.3495
    endloop
  endfacet
  facet normal 0.965925 -6.50746e-07 -0.258823
    outer loop
      vertex 21.99 -3.69282 15.8423
      vertex 18.7032 -5 3.57598
      vertex 21.59 -3 14.3495
    endloop
  endfacet
  facet normal 0.965926 -3.60921e-05 -0.258819
    outer loop
      vertex 18.7032 -5 3.57598
      vertex 21.99 -3.69282 15.8423
      vertex 25.1297 -5 27.56
    endloop
  endfacet
  facet normal 0 -1 0
    outer loop
      vertex 18.7032 -5 29.2819
      vertex 18.7032 -5 3.57598
      vertex 25.1297 -5 27.56
    endloop
  endfacet
  facet normal 0 1 0
    outer loop
      vertex 25.1297 5 27.56
      vertex 18.7032 5 3.57598
      vertex 18.7032 5 29.2819
    endloop
  endfacet
  facet normal -0.258791 -1.41721e-05 0.965933
    outer loop
      vertex -22.69 0.69282 28.3932
      vertex -21.59 0 28.6879
      vertex -18.7032 5 29.4614
    endloop
  endfacet
  facet normal -0.258736 7.96701e-05 0.965948
    outer loop
      vertex -21.59 0 28.6879
      vertex -22.69 0.69282 28.3932
      vertex -22.29 0 28.5004
    endloop
  endfacet
  facet normal -0.25882 1.44014e-05 0.965926
    outer loop
      vertex -25.4705 5 27.6481
      vertex -22.69 0.69282 28.3932
      vertex -18.7032 5 29.4614
    endloop
  endfacet
  facet normal -0.25885 -9.23785e-06 0.965918
    outer loop
      vertex -23.49 0.69282 28.1788
      vertex -25.4705 5 27.6481
      vertex -23.89 0 28.0716
    endloop
  endfacet
  facet normal -0.258865 -1.6595e-05 0.965914
    outer loop
      vertex -22.69 0.69282 28.3932
      vertex -25.4705 5 27.6481
      vertex -23.49 0.69282 28.1788
    endloop
  endfacet
  facet normal -0.258736 -7.96701e-05 0.965948
    outer loop
      vertex -22.69 -0.69282 28.3932
      vertex -21.59 0 28.6879
      vertex -22.29 0 28.5004
    endloop
  endfacet
  facet normal -0.258791 1.41721e-05 0.965933
    outer loop
      vertex -21.59 0 28.6879
      vertex -22.69 -0.69282 28.3932
      vertex -18.7032 -5 29.4614
    endloop
  endfacet
  facet normal -0.258865 1.6595e-05 0.965914
    outer loop
      vertex -25.4705 -5 27.6481
      vertex -22.69 -0.69282 28.3932
      vertex -23.49 -0.69282 28.1788
    endloop
  endfacet
  facet normal -0.25882 -1.44014e-05 0.965926
    outer loop
      vertex -22.69 -0.69282 28.3932
      vertex -25.4705 -5 27.6481
      vertex -18.7032 -5 29.4614
    endloop
  endfacet
  facet normal -0.25885 9.23785e-06 0.965918
    outer loop
      vertex -23.89 0 28.0716
      vertex -25.4705 -5 27.6481
      vertex -23.49 -0.69282 28.1788
    endloop
  endfacet
  facet normal -0.258823 0 0.965925
    outer loop
      vertex -25.4705 -5 27.6481
      vertex -23.89 0 28.0716
      vertex -25.4705 5 27.6481
    endloop
  endfacet
  facet normal 0 -1 0
    outer loop
      vertex -25.4705 -5 27.6481
      vertex -18.7032 -5 3.57951
      vertex -18.7032 -5 29.4614
    endloop
  endfacet
  facet normal -0 -1 0
    outer loop
      vertex -18.7032 -5 3.57951
      vertex -25.4705 -5 27.6481
      vertex -19 -5 3.5
    endloop
  endfacet
  facet normal -0.965926 4.50616e-06 -0.258817
    outer loop
      vertex -19 5 3.5
      vertex -21.59 0 13.166
      vertex -22.69 0.69282 17.2713
    endloop
  endfacet
  facet normal -0.965925 3.73578e-05 -0.258822
    outer loop
      vertex -21.59 0 13.166
      vertex -22.29 0 15.7784
      vertex -22.69 0.69282 17.2713
    endloop
  endfacet
  facet normal -0.965925 -3.73578e-05 -0.258822
    outer loop
      vertex -21.59 0 13.166
      vertex -22.69 -0.69282 17.2713
      vertex -22.29 0 15.7784
    endloop
  endfacet
  facet normal -0.965926 -4.50616e-06 -0.258817
    outer loop
      vertex -21.59 0 13.166
      vertex -19 -5 3.5
      vertex -22.69 -0.69282 17.2713
    endloop
  endfacet
  facet normal -0.965926 0 -0.258819
    outer loop
      vertex -19 -5 3.5
      vertex -21.59 0 13.166
      vertex -19 -4.48601 3.5
    endloop
  endfacet
  facet normal -0.965926 0 -0.258819
    outer loop
      vertex -21.59 0 13.166
      vertex -19 5 3.5
      vertex -19 4.48601 3.5
    endloop
  endfacet
  facet normal -0.965925 -6.57183e-06 -0.25882
    outer loop
      vertex -19 5 3.5
      vertex -22.69 0.69282 17.2713
      vertex -25.4705 5 27.6481
    endloop
  endfacet
  facet normal -0.965925 -1.56236e-06 -0.258822
    outer loop
      vertex -23.49 0.69282 20.2569
      vertex -25.4705 5 27.6481
      vertex -22.69 0.69282 17.2713
    endloop
  endfacet
  facet normal -0.965925 -8.69711e-07 -0.258823
    outer loop
      vertex -23.89 0 21.7497
      vertex -25.4705 5 27.6481
      vertex -23.49 0.69282 20.2569
    endloop
  endfacet
  facet normal -0.965925 6.57183e-06 -0.25882
    outer loop
      vertex -25.4705 -5 27.6481
      vertex -22.69 -0.69282 17.2713
      vertex -19 -5 3.5
    endloop
  endfacet
  facet normal -0.965925 0 -0.258823
    outer loop
      vertex -23.89 0 21.7497
      vertex -25.4705 -5 27.6481
      vertex -25.4705 5 27.6481
    endloop
  endfacet
  facet normal -0.965925 8.69711e-07 -0.258823
    outer loop
      vertex -23.49 -0.69282 20.2569
      vertex -25.4705 -5 27.6481
      vertex -23.89 0 21.7497
    endloop
  endfacet
  facet normal -0.965925 1.56236e-06 -0.258822
    outer loop
      vertex -22.69 -0.69282 17.2713
      vertex -25.4705 -5 27.6481
      vertex -23.49 -0.69282 20.2569
    endloop
  endfacet
  facet normal 0 1 -0
    outer loop
      vertex -18.7032 5 3.57951
      vertex -25.4705 5 27.6481
      vertex -18.7032 5 29.4614
    endloop
  endfacet
  facet normal 0 1 0
    outer loop
      vertex -25.4705 5 27.6481
      vertex -18.7032 5 3.57951
      vertex -19 5 3.5
    endloop
  endfacet
  facet normal 0.258766 0 -0.96594
    outer loop
      vertex -18.7032 5 3.57951
      vertex -19 4.48601 3.5
      vertex -19 5 3.5
    endloop
  endfacet
  facet normal 0.258766 0 -0.96594
    outer loop
      vertex -18.7032 -5 3.57951
      vertex -19 -5 3.5
      vertex -19 -4.48601 3.5
    endloop
  endfacet
  facet normal -0.987686 -0.156446 0
    outer loop
      vertex -7.39 7.62 0
      vertex -7.46342 8.08352 2
      vertex -7.46342 8.08352 0
    endloop
  endfacet
  facet normal -0.987686 -0.156446 0
    outer loop
      vertex -7.46342 8.08352 2
      vertex -7.39 7.62 0
      vertex -7.39 7.62 2
    endloop
  endfacet
  facet normal 0.987694 0.156401 0
    outer loop
      vertex -10.3166 7.15647 2
      vertex -10.39 7.62 0
      vertex -10.39 7.62 2
    endloop
  endfacet
  facet normal 0.987694 0.156401 0
    outer loop
      vertex -10.39 7.62 0
      vertex -10.3166 7.15647 2
      vertex -10.3166 7.15647 0
    endloop
  endfacet
  facet normal 0.156443 -0.987687 0
    outer loop
      vertex -9.35353 9.04658 0
      vertex -8.89 9.12 2
      vertex -9.35353 9.04658 2
    endloop
  endfacet
  facet normal 0.156443 -0.987687 0
    outer loop
      vertex -8.89 9.12 2
      vertex -9.35353 9.04658 0
      vertex -8.89 9.12 0
    endloop
  endfacet
  facet normal -0.453994 0.891005 0
    outer loop
      vertex -8.00832 6.40647 0
      vertex -8.42647 6.19341 2
      vertex -8.00832 6.40647 2
    endloop
  endfacet
  facet normal -0.453994 0.891005 0
    outer loop
      vertex -8.42647 6.19341 2
      vertex -8.00832 6.40647 0
      vertex -8.42647 6.19341 0
    endloop
  endfacet
  facet normal 0.453994 0.891005 -0
    outer loop
      vertex -9.35353 6.19341 0
      vertex -9.77168 6.40647 2
      vertex -9.35353 6.19341 2
    endloop
  endfacet
  facet normal 0.453994 0.891005 0
    outer loop
      vertex -9.77168 6.40647 2
      vertex -9.35353 6.19341 0
      vertex -9.77168 6.40647 0
    endloop
  endfacet
  facet normal -0.453994 -0.891005 0
    outer loop
      vertex -8.42647 9.04658 0
      vertex -8.00832 8.83352 2
      vertex -8.42647 9.04658 2
    endloop
  endfacet
  facet normal -0.453994 -0.891005 -0
    outer loop
      vertex -8.00832 8.83352 2
      vertex -8.42647 9.04658 0
      vertex -8.00832 8.83352 0
    endloop
  endfacet
  facet normal -0.891018 -0.453968 0
    outer loop
      vertex -7.46342 8.08352 0
      vertex -7.67647 8.50168 2
      vertex -7.67647 8.50168 0
    endloop
  endfacet
  facet normal -0.891018 -0.453968 0
    outer loop
      vertex -7.67647 8.50168 2
      vertex -7.46342 8.08352 0
      vertex -7.46342 8.08352 2
    endloop
  endfacet
  facet normal -0.156443 -0.987687 0
    outer loop
      vertex -8.89 9.12 0
      vertex -8.42647 9.04658 2
      vertex -8.89 9.12 2
    endloop
  endfacet
  facet normal -0.156443 -0.987687 -0
    outer loop
      vertex -8.42647 9.04658 2
      vertex -8.89 9.12 0
      vertex -8.42647 9.04658 0
    endloop
  endfacet
  facet normal 0.707128 -0.707085 0
    outer loop
      vertex -10.1035 8.50168 0
      vertex -9.77168 8.83352 2
      vertex -10.1035 8.50168 2
    endloop
  endfacet
  facet normal 0.707128 -0.707085 0
    outer loop
      vertex -9.77168 8.83352 2
      vertex -10.1035 8.50168 0
      vertex -9.77168 8.83352 0
    endloop
  endfacet
  facet normal 0.890975 -0.454053 0
    outer loop
      vertex -10.3166 8.08352 2
      vertex -10.1035 8.50168 0
      vertex -10.1035 8.50168 2
    endloop
  endfacet
  facet normal 0.890975 -0.454053 0
    outer loop
      vertex -10.1035 8.50168 0
      vertex -10.3166 8.08352 2
      vertex -10.3166 8.08352 0
    endloop
  endfacet
  facet normal 0.453994 -0.891005 0
    outer loop
      vertex -9.77168 8.83352 0
      vertex -9.35353 9.04658 2
      vertex -9.77168 8.83352 2
    endloop
  endfacet
  facet normal 0.453994 -0.891005 0
    outer loop
      vertex -9.35353 9.04658 2
      vertex -9.77168 8.83352 0
      vertex -9.35353 9.04658 0
    endloop
  endfacet
  facet normal 0.156422 0.98769 -0
    outer loop
      vertex -8.89 6.12 0
      vertex -9.35353 6.19341 2
      vertex -8.89 6.12 2
    endloop
  endfacet
  facet normal 0.156422 0.98769 0
    outer loop
      vertex -9.35353 6.19341 2
      vertex -8.89 6.12 0
      vertex -9.35353 6.19341 0
    endloop
  endfacet
  facet normal 0.89097 0.454061 0
    outer loop
      vertex -10.1035 6.73832 2
      vertex -10.3166 7.15647 0
      vertex -10.3166 7.15647 2
    endloop
  endfacet
  facet normal 0.89097 0.454061 0
    outer loop
      vertex -10.3166 7.15647 0
      vertex -10.1035 6.73832 2
      vertex -10.1035 6.73832 0
    endloop
  endfacet
  facet normal -0.707096 -0.707117 0
    outer loop
      vertex -8.00832 8.83352 0
      vertex -7.67647 8.50168 2
      vertex -8.00832 8.83352 2
    endloop
  endfacet
  facet normal -0.707096 -0.707117 -0
    outer loop
      vertex -7.67647 8.50168 2
      vertex -8.00832 8.83352 0
      vertex -7.67647 8.50168 0
    endloop
  endfacet
  facet normal 0.987693 -0.156405 0
    outer loop
      vertex -10.39 7.62 2
      vertex -10.3166 8.08352 0
      vertex -10.3166 8.08352 2
    endloop
  endfacet
  facet normal 0.987693 -0.156405 0
    outer loop
      vertex -10.3166 8.08352 0
      vertex -10.39 7.62 2
      vertex -10.39 7.62 0
    endloop
  endfacet
  facet normal -0.707107 0.707107 0
    outer loop
      vertex -7.67647 6.73832 0
      vertex -8.00832 6.40647 2
      vertex -7.67647 6.73832 2
    endloop
  endfacet
  facet normal -0.707107 0.707107 0
    outer loop
      vertex -8.00832 6.40647 2
      vertex -7.67647 6.73832 0
      vertex -8.00832 6.40647 0
    endloop
  endfacet
  facet normal -0.891013 0.453977 0
    outer loop
      vertex -7.67647 6.73832 0
      vertex -7.46342 7.15647 2
      vertex -7.46342 7.15647 0
    endloop
  endfacet
  facet normal -0.891013 0.453977 0
    outer loop
      vertex -7.46342 7.15647 2
      vertex -7.67647 6.73832 0
      vertex -7.67647 6.73832 2
    endloop
  endfacet
  facet normal -0.156422 0.98769 0
    outer loop
      vertex -8.42647 6.19341 0
      vertex -8.89 6.12 2
      vertex -8.42647 6.19341 2
    endloop
  endfacet
  facet normal -0.156422 0.98769 0
    outer loop
      vertex -8.89 6.12 2
      vertex -8.42647 6.19341 0
      vertex -8.89 6.12 0
    endloop
  endfacet
  facet normal 0.707139 0.707075 -0
    outer loop
      vertex -9.77168 6.40647 0
      vertex -10.1035 6.73832 2
      vertex -9.77168 6.40647 2
    endloop
  endfacet
  facet normal 0.707139 0.707075 0
    outer loop
      vertex -10.1035 6.73832 2
      vertex -9.77168 6.40647 0
      vertex -10.1035 6.73832 0
    endloop
  endfacet
  facet normal -0.987687 0.156443 0
    outer loop
      vertex -7.46342 7.15647 0
      vertex -7.39 7.62 2
      vertex -7.39 7.62 0
    endloop
  endfacet
  facet normal -0.987687 0.156443 0
    outer loop
      vertex -7.39 7.62 2
      vertex -7.46342 7.15647 0
      vertex -7.46342 7.15647 2
    endloop
  endfacet
  facet normal -0.987693 -0.156403 0
    outer loop
      vertex 10.39 0 0
      vertex 10.3166 0.463525 2
      vertex 10.3166 0.463525 0
    endloop
  endfacet
  facet normal -0.987693 -0.156403 0
    outer loop
      vertex 10.3166 0.463525 2
      vertex 10.39 0 0
      vertex 10.39 0 2
    endloop
  endfacet
  facet normal 0.987687 -0.156445 0
    outer loop
      vertex 7.39 0 2
      vertex 7.46342 0.463525 0
      vertex 7.46342 0.463525 2
    endloop
  endfacet
  facet normal 0.987687 -0.156445 0
    outer loop
      vertex 7.46342 0.463525 0
      vertex 7.39 0 2
      vertex 7.39 0 0
    endloop
  endfacet
  facet normal -0.156443 -0.987687 0
    outer loop
      vertex 8.89 1.5 0
      vertex 9.35353 1.42658 2
      vertex 8.89 1.5 2
    endloop
  endfacet
  facet normal -0.156443 -0.987687 -0
    outer loop
      vertex 9.35353 1.42658 2
      vertex 8.89 1.5 0
      vertex 9.35353 1.42658 0
    endloop
  endfacet
  facet normal -0.70713 -0.707083 0
    outer loop
      vertex 9.77168 1.21352 0
      vertex 10.1035 0.881678 2
      vertex 9.77168 1.21352 2
    endloop
  endfacet
  facet normal -0.70713 -0.707083 -0
    outer loop
      vertex 10.1035 0.881678 2
      vertex 9.77168 1.21352 0
      vertex 10.1035 0.881678 0
    endloop
  endfacet
  facet normal -0.890972 -0.454059 0
    outer loop
      vertex 10.3166 0.463525 0
      vertex 10.1035 0.881678 2
      vertex 10.1035 0.881678 0
    endloop
  endfacet
  facet normal -0.890972 -0.454059 0
    outer loop
      vertex 10.1035 0.881678 2
      vertex 10.3166 0.463525 0
      vertex 10.3166 0.463525 2
    endloop
  endfacet
  facet normal -0.453994 -0.891005 0
    outer loop
      vertex 9.35353 1.42658 0
      vertex 9.77168 1.21352 2
      vertex 9.35353 1.42658 2
    endloop
  endfacet
  facet normal -0.453994 -0.891005 -0
    outer loop
      vertex 9.77168 1.21352 2
      vertex 9.35353 1.42658 0
      vertex 9.77168 1.21352 0
    endloop
  endfacet
  facet normal 0.707098 -0.707115 0
    outer loop
      vertex 7.67647 0.881678 0
      vertex 8.00832 1.21352 2
      vertex 7.67647 0.881678 2
    endloop
  endfacet
  facet normal 0.707098 -0.707115 0
    outer loop
      vertex 8.00832 1.21352 2
      vertex 7.67647 0.881678 0
      vertex 8.00832 1.21352 0
    endloop
  endfacet
  facet normal 0.891015 -0.453974 0
    outer loop
      vertex 7.46342 0.463525 2
      vertex 7.67647 0.881678 0
      vertex 7.67647 0.881678 2
    endloop
  endfacet
  facet normal 0.891015 -0.453974 0
    outer loop
      vertex 7.67647 0.881678 0
      vertex 7.46342 0.463525 2
      vertex 7.46342 0.463525 0
    endloop
  endfacet
  facet normal 0.156443 -0.987687 0
    outer loop
      vertex 8.42647 1.42658 0
      vertex 8.89 1.5 2
      vertex 8.42647 1.42658 2
    endloop
  endfacet
  facet normal 0.156443 -0.987687 0
    outer loop
      vertex 8.89 1.5 2
      vertex 8.42647 1.42658 0
      vertex 8.89 1.5 0
    endloop
  endfacet
  facet normal -0.156443 0.987687 0
    outer loop
      vertex 9.35353 -1.42658 0
      vertex 8.89 -1.5 2
      vertex 9.35353 -1.42658 2
    endloop
  endfacet
  facet normal -0.156443 0.987687 0
    outer loop
      vertex 8.89 -1.5 2
      vertex 9.35353 -1.42658 0
      vertex 8.89 -1.5 0
    endloop
  endfacet
  facet normal -0.890972 0.454059 0
    outer loop
      vertex 10.1035 -0.881678 0
      vertex 10.3166 -0.463525 2
      vertex 10.3166 -0.463525 0
    endloop
  endfacet
  facet normal -0.890972 0.454059 0
    outer loop
      vertex 10.3166 -0.463525 2
      vertex 10.1035 -0.881678 0
      vertex 10.1035 -0.881678 2
    endloop
  endfacet
  facet normal 0.987687 0.156445 0
    outer loop
      vertex 7.46342 -0.463525 2
      vertex 7.39 0 0
      vertex 7.39 0 2
    endloop
  endfacet
  facet normal 0.987687 0.156445 0
    outer loop
      vertex 7.39 0 0
      vertex 7.46342 -0.463525 2
      vertex 7.46342 -0.463525 0
    endloop
  endfacet
  facet normal 0.453994 -0.891005 0
    outer loop
      vertex 8.00832 1.21352 0
      vertex 8.42647 1.42658 2
      vertex 8.00832 1.21352 2
    endloop
  endfacet
  facet normal 0.453994 -0.891005 0
    outer loop
      vertex 8.42647 1.42658 2
      vertex 8.00832 1.21352 0
      vertex 8.42647 1.42658 0
    endloop
  endfacet
  facet normal -0.987693 0.156403 0
    outer loop
      vertex 10.3166 -0.463525 0
      vertex 10.39 0 2
      vertex 10.39 0 0
    endloop
  endfacet
  facet normal -0.987693 0.156403 0
    outer loop
      vertex 10.39 0 2
      vertex 10.3166 -0.463525 0
      vertex 10.3166 -0.463525 2
    endloop
  endfacet
  facet normal -0.453994 0.891005 0
    outer loop
      vertex 9.77168 -1.21352 0
      vertex 9.35353 -1.42658 2
      vertex 9.77168 -1.21352 2
    endloop
  endfacet
  facet normal -0.453994 0.891005 0
    outer loop
      vertex 9.35353 -1.42658 2
      vertex 9.77168 -1.21352 0
      vertex 9.35353 -1.42658 0
    endloop
  endfacet
  facet normal 0.707098 0.707115 -0
    outer loop
      vertex 8.00832 -1.21352 0
      vertex 7.67647 -0.881678 2
      vertex 8.00832 -1.21352 2
    endloop
  endfacet
  facet normal 0.707098 0.707115 0
    outer loop
      vertex 7.67647 -0.881678 2
      vertex 8.00832 -1.21352 0
      vertex 7.67647 -0.881678 0
    endloop
  endfacet
  facet normal 0.156443 0.987687 -0
    outer loop
      vertex 8.89 -1.5 0
      vertex 8.42647 -1.42658 2
      vertex 8.89 -1.5 2
    endloop
  endfacet
  facet normal 0.156443 0.987687 0
    outer loop
      vertex 8.42647 -1.42658 2
      vertex 8.89 -1.5 0
      vertex 8.42647 -1.42658 0
    endloop
  endfacet
  facet normal 0.891015 0.453974 0
    outer loop
      vertex 7.67647 -0.881678 2
      vertex 7.46342 -0.463525 0
      vertex 7.46342 -0.463525 2
    endloop
  endfacet
  facet normal 0.891015 0.453974 0
    outer loop
      vertex 7.46342 -0.463525 0
      vertex 7.67647 -0.881678 2
      vertex 7.67647 -0.881678 0
    endloop
  endfacet
  facet normal -0.70713 0.707083 0
    outer loop
      vertex 10.1035 -0.881678 0
      vertex 9.77168 -1.21352 2
      vertex 10.1035 -0.881678 2
    endloop
  endfacet
  facet normal -0.70713 0.707083 0
    outer loop
      vertex 9.77168 -1.21352 2
      vertex 10.1035 -0.881678 0
      vertex 9.77168 -1.21352 0
    endloop
  endfacet
  facet normal 0.453994 0.891005 -0
    outer loop
      vertex 8.42647 -1.42658 0
      vertex 8.00832 -1.21352 2
      vertex 8.42647 -1.42658 2
    endloop
  endfacet
  facet normal 0.453994 0.891005 0
    outer loop
      vertex 8.00832 -1.21352 2
      vertex 8.42647 -1.42658 0
      vertex 8.00832 -1.21352 0
    endloop
  endfacet
  facet normal -0.987687 -0.156443 0
    outer loop
      vertex -7.39 -7.62 0
      vertex -7.46342 -7.15647 2
      vertex -7.46342 -7.15647 0
    endloop
  endfacet
  facet normal -0.987687 -0.156443 0
    outer loop
      vertex -7.46342 -7.15647 2
      vertex -7.39 -7.62 0
      vertex -7.39 -7.62 2
    endloop
  endfacet
  facet normal 0.156422 -0.98769 0
    outer loop
      vertex -9.35353 -6.19341 0
      vertex -8.89 -6.12 2
      vertex -9.35353 -6.19341 2
    endloop
  endfacet
  facet normal 0.156422 -0.98769 0
    outer loop
      vertex -8.89 -6.12 2
      vertex -9.35353 -6.19341 0
      vertex -8.89 -6.12 0
    endloop
  endfacet
  facet normal -0.156443 0.987687 0
    outer loop
      vertex -8.42647 -9.04658 0
      vertex -8.89 -9.12 2
      vertex -8.42647 -9.04658 2
    endloop
  endfacet
  facet normal -0.156443 0.987687 0
    outer loop
      vertex -8.89 -9.12 2
      vertex -8.42647 -9.04658 0
      vertex -8.89 -9.12 0
    endloop
  endfacet
  facet normal -0.453994 0.891005 0
    outer loop
      vertex -8.00832 -8.83352 0
      vertex -8.42647 -9.04658 2
      vertex -8.00832 -8.83352 2
    endloop
  endfacet
  facet normal -0.453994 0.891005 0
    outer loop
      vertex -8.42647 -9.04658 2
      vertex -8.00832 -8.83352 0
      vertex -8.42647 -9.04658 0
    endloop
  endfacet
  facet normal -0.453994 -0.891005 0
    outer loop
      vertex -8.42647 -6.19341 0
      vertex -8.00832 -6.40647 2
      vertex -8.42647 -6.19341 2
    endloop
  endfacet
  facet normal -0.453994 -0.891005 -0
    outer loop
      vertex -8.00832 -6.40647 2
      vertex -8.42647 -6.19341 0
      vertex -8.00832 -6.40647 0
    endloop
  endfacet
  facet normal -0.891013 -0.453977 0
    outer loop
      vertex -7.46342 -7.15647 0
      vertex -7.67647 -6.73832 2
      vertex -7.67647 -6.73832 0
    endloop
  endfacet
  facet normal -0.891013 -0.453977 0
    outer loop
      vertex -7.67647 -6.73832 2
      vertex -7.46342 -7.15647 0
      vertex -7.46342 -7.15647 2
    endloop
  endfacet
  facet normal -0.156422 -0.98769 0
    outer loop
      vertex -8.89 -6.12 0
      vertex -8.42647 -6.19341 2
      vertex -8.89 -6.12 2
    endloop
  endfacet
  facet normal -0.156422 -0.98769 -0
    outer loop
      vertex -8.42647 -6.19341 2
      vertex -8.89 -6.12 0
      vertex -8.42647 -6.19341 0
    endloop
  endfacet
  facet normal 0.707139 -0.707075 0
    outer loop
      vertex -10.1035 -6.73832 0
      vertex -9.77168 -6.40647 2
      vertex -10.1035 -6.73832 2
    endloop
  endfacet
  facet normal 0.707139 -0.707075 0
    outer loop
      vertex -9.77168 -6.40647 2
      vertex -10.1035 -6.73832 0
      vertex -9.77168 -6.40647 0
    endloop
  endfacet
  facet normal 0.89097 -0.454061 0
    outer loop
      vertex -10.3166 -7.15647 2
      vertex -10.1035 -6.73832 0
      vertex -10.1035 -6.73832 2
    endloop
  endfacet
  facet normal 0.89097 -0.454061 0
    outer loop
      vertex -10.1035 -6.73832 0
      vertex -10.3166 -7.15647 2
      vertex -10.3166 -7.15647 0
    endloop
  endfacet
  facet normal 0.453994 -0.891005 0
    outer loop
      vertex -9.77168 -6.40647 0
      vertex -9.35353 -6.19341 2
      vertex -9.77168 -6.40647 2
    endloop
  endfacet
  facet normal 0.453994 -0.891005 0
    outer loop
      vertex -9.35353 -6.19341 2
      vertex -9.77168 -6.40647 0
      vertex -9.35353 -6.19341 0
    endloop
  endfacet
  facet normal -0.707107 -0.707107 0
    outer loop
      vertex -8.00832 -6.40647 0
      vertex -7.67647 -6.73832 2
      vertex -8.00832 -6.40647 2
    endloop
  endfacet
  facet normal -0.707107 -0.707107 -0
    outer loop
      vertex -7.67647 -6.73832 2
      vertex -8.00832 -6.40647 0
      vertex -7.67647 -6.73832 0
    endloop
  endfacet
  facet normal 0.987694 -0.156401 0
    outer loop
      vertex -10.39 -7.62 2
      vertex -10.3166 -7.15647 0
      vertex -10.3166 -7.15647 2
    endloop
  endfacet
  facet normal 0.987694 -0.156401 0
    outer loop
      vertex -10.3166 -7.15647 0
      vertex -10.39 -7.62 2
      vertex -10.39 -7.62 0
    endloop
  endfacet
  facet normal -0.987686 0.156446 0
    outer loop
      vertex -7.46342 -8.08352 0
      vertex -7.39 -7.62 2
      vertex -7.39 -7.62 0
    endloop
  endfacet
  facet normal -0.987686 0.156446 0
    outer loop
      vertex -7.39 -7.62 2
      vertex -7.46342 -8.08352 0
      vertex -7.46342 -8.08352 2
    endloop
  endfacet
  facet normal 0.890975 0.454053 0
    outer loop
      vertex -10.1035 -8.50168 2
      vertex -10.3166 -8.08352 0
      vertex -10.3166 -8.08352 2
    endloop
  endfacet
  facet normal 0.890975 0.454053 0
    outer loop
      vertex -10.3166 -8.08352 0
      vertex -10.1035 -8.50168 2
      vertex -10.1035 -8.50168 0
    endloop
  endfacet
  facet normal -0.707096 0.707117 0
    outer loop
      vertex -7.67647 -8.50168 0
      vertex -8.00832 -8.83352 2
      vertex -7.67647 -8.50168 2
    endloop
  endfacet
  facet normal -0.707096 0.707117 0
    outer loop
      vertex -8.00832 -8.83352 2
      vertex -7.67647 -8.50168 0
      vertex -8.00832 -8.83352 0
    endloop
  endfacet
  facet normal -0.891018 0.453968 0
    outer loop
      vertex -7.67647 -8.50168 0
      vertex -7.46342 -8.08352 2
      vertex -7.46342 -8.08352 0
    endloop
  endfacet
  facet normal -0.891018 0.453968 0
    outer loop
      vertex -7.46342 -8.08352 2
      vertex -7.67647 -8.50168 0
      vertex -7.67647 -8.50168 2
    endloop
  endfacet
  facet normal 0.987693 0.156405 0
    outer loop
      vertex -10.3166 -8.08352 2
      vertex -10.39 -7.62 0
      vertex -10.39 -7.62 2
    endloop
  endfacet
  facet normal 0.987693 0.156405 0
    outer loop
      vertex -10.39 -7.62 0
      vertex -10.3166 -8.08352 2
      vertex -10.3166 -8.08352 0
    endloop
  endfacet
  facet normal 0.156443 0.987687 -0
    outer loop
      vertex -8.89 -9.12 0
      vertex -9.35353 -9.04658 2
      vertex -8.89 -9.12 2
    endloop
  endfacet
  facet normal 0.156443 0.987687 0
    outer loop
      vertex -9.35353 -9.04658 2
      vertex -8.89 -9.12 0
      vertex -9.35353 -9.04658 0
    endloop
  endfacet
  facet normal 0.707128 0.707085 -0
    outer loop
      vertex -9.77168 -8.83352 0
      vertex -10.1035 -8.50168 2
      vertex -9.77168 -8.83352 2
    endloop
  endfacet
  facet normal 0.707128 0.707085 0
    outer loop
      vertex -10.1035 -8.50168 2
      vertex -9.77168 -8.83352 0
      vertex -10.1035 -8.50168 0
    endloop
  endfacet
  facet normal 0.453994 0.891005 -0
    outer loop
      vertex -9.35353 -9.04658 0
      vertex -9.77168 -8.83352 2
      vertex -9.35353 -9.04658 2
    endloop
  endfacet
  facet normal 0.453994 0.891005 0
    outer loop
      vertex -9.77168 -8.83352 2
      vertex -9.35353 -9.04658 0
      vertex -9.77168 -8.83352 0
    endloop
  endfacet
  facet normal -0.866025 -0.500001 0
    outer loop
      vertex 20.32 0 2
      vertex 10.16 17.5976 30
      vertex 10.16 17.5976 2
    endloop
  endfacet
  facet normal -0.866025 -0.500001 0
    outer loop
      vertex 10.16 17.5976 30
      vertex 20.32 0 2
      vertex 20.32 0 30
    endloop
  endfacet
  facet normal 0.866025 -0.500001 0
    outer loop
      vertex -20.32 0 30
      vertex -10.16 17.5976 2
      vertex -10.16 17.5976 30
    endloop
  endfacet
  facet normal 0.866025 -0.500001 0
    outer loop
      vertex -10.16 17.5976 2
      vertex -20.32 0 30
      vertex -20.32 0 2
    endloop
  endfacet
  facet normal 0 -1 0
    outer loop
      vertex -10.16 17.5976 2
      vertex 10.16 17.5976 30
      vertex -10.16 17.5976 30
    endloop
  endfacet
  facet normal 0 -1 -0
    outer loop
      vertex 10.16 17.5976 30
      vertex -10.16 17.5976 2
      vertex 10.16 17.5976 2
    endloop
  endfacet
  facet normal 0 0 1
    outer loop
      vertex 7.46342 0.463525 2
      vertex -7.67647 6.73832 2
      vertex 7.39 0 2
    endloop
  endfacet
  facet normal 0 0 1
    outer loop
      vertex 7.39 0 2
      vertex -7.46342 -7.15647 2
      vertex -7.39 -7.62 2
    endloop
  endfacet
  facet normal -0 0 1
    outer loop
      vertex -8.00832 6.40647 2
      vertex 7.39 0 2
      vertex -7.67647 6.73832 2
    endloop
  endfacet
  facet normal 0 0 1
    outer loop
      vertex 7.39 0 2
      vertex -7.67647 -6.73832 2
      vertex -7.46342 -7.15647 2
    endloop
  endfacet
  facet normal 0 0 1
    outer loop
      vertex -8.00832 -6.40647 2
      vertex 7.39 0 2
      vertex -8.00832 6.40647 2
    endloop
  endfacet
  facet normal 0 0 1
    outer loop
      vertex 7.39 0 2
      vertex -8.00832 -6.40647 2
      vertex -7.67647 -6.73832 2
    endloop
  endfacet
  facet normal -0 0 1
    outer loop
      vertex -8.42647 6.19341 2
      vertex -8.00832 -6.40647 2
      vertex -8.00832 6.40647 2
    endloop
  endfacet
  facet normal 0 0 1
    outer loop
      vertex -8.42647 6.19341 2
      vertex -8.42647 -6.19341 2
      vertex -8.00832 -6.40647 2
    endloop
  endfacet
  facet normal -0 0 1
    outer loop
      vertex -8.89 6.12 2
      vertex -8.42647 -6.19341 2
      vertex -8.42647 6.19341 2
    endloop
  endfacet
  facet normal 0 0 1
    outer loop
      vertex -8.89 6.12 2
      vertex -8.89 -6.12 2
      vertex -8.42647 -6.19341 2
    endloop
  endfacet
  facet normal 0 0 1
    outer loop
      vertex -9.35353 6.19341 2
      vertex -8.89 -6.12 2
      vertex -8.89 6.12 2
    endloop
  endfacet
  facet normal 0 0 1
    outer loop
      vertex -9.35353 6.19341 2
      vertex -9.35353 -6.19341 2
      vertex -8.89 -6.12 2
    endloop
  endfacet
  facet normal 0 0 1
    outer loop
      vertex -9.77168 6.40647 2
      vertex -9.35353 -6.19341 2
      vertex -9.35353 6.19341 2
    endloop
  endfacet
  facet normal 0 0 1
    outer loop
      vertex -9.77168 6.40647 2
      vertex -9.77168 -6.40647 2
      vertex -9.35353 -6.19341 2
    endloop
  endfacet
  facet normal 0 0 1
    outer loop
      vertex -20.32 0 2
      vertex -9.77168 6.40647 2
      vertex -10.1035 6.73832 2
    endloop
  endfacet
  facet normal 0 0 1
    outer loop
      vertex -9.77168 6.40647 2
      vertex -20.32 0 2
      vertex -9.77168 -6.40647 2
    endloop
  endfacet
  facet normal 0 0 1
    outer loop
      vertex -20.32 0 2
      vertex -10.1035 6.73832 2
      vertex -10.3166 7.15647 2
    endloop
  endfacet
  facet normal 0 0 1
    outer loop
      vertex -9.77168 -6.40647 2
      vertex -20.32 0 2
      vertex -10.1035 -6.73832 2
    endloop
  endfacet
  facet normal 0 0 1
    outer loop
      vertex -20.32 0 2
      vertex -10.3166 7.15647 2
      vertex -10.39 7.62 2
    endloop
  endfacet
  facet normal 0 0 1
    outer loop
      vertex -10.1035 -6.73832 2
      vertex -20.32 0 2
      vertex -10.3166 -7.15647 2
    endloop
  endfacet
  facet normal 0 0 1
    outer loop
      vertex 20.32 0 2
      vertex 10.3166 0.463525 2
      vertex 10.39 0 2
    endloop
  endfacet
  facet normal -0 0 1
    outer loop
      vertex 9.77168 1.21352 2
      vertex 20.32 0 2
      vertex 10.16 17.5976 2
    endloop
  endfacet
  facet normal 0 0 1
    outer loop
      vertex 20.32 0 2
      vertex 10.1035 0.881678 2
      vertex 10.3166 0.463525 2
    endloop
  endfacet
  facet normal 0 0 1
    outer loop
      vertex 20.32 0 2
      vertex 9.77168 1.21352 2
      vertex 10.1035 0.881678 2
    endloop
  endfacet
  facet normal 0 0 1
    outer loop
      vertex 10.16 17.5976 2
      vertex 9.35353 1.42658 2
      vertex 9.77168 1.21352 2
    endloop
  endfacet
  facet normal 0 0 1
    outer loop
      vertex 10.16 17.5976 2
      vertex 8.89 1.5 2
      vertex 9.35353 1.42658 2
    endloop
  endfacet
  facet normal 0 0 1
    outer loop
      vertex 10.16 17.5976 2
      vertex 8.42647 1.42658 2
      vertex 8.89 1.5 2
    endloop
  endfacet
  facet normal 0 0 1
    outer loop
      vertex 10.16 17.5976 2
      vertex 8.00832 1.21352 2
      vertex 8.42647 1.42658 2
    endloop
  endfacet
  facet normal -0 0 1
    outer loop
      vertex -7.46342 8.08352 2
      vertex 8.00832 1.21352 2
      vertex 10.16 17.5976 2
    endloop
  endfacet
  facet normal -0 -0 1
    outer loop
      vertex -7.39 7.62 2
      vertex 8.00832 1.21352 2
      vertex -7.46342 8.08352 2
    endloop
  endfacet
  facet normal 0 0 1
    outer loop
      vertex 8.00832 1.21352 2
      vertex -7.39 7.62 2
      vertex 7.67647 0.881678 2
    endloop
  endfacet
  facet normal -0 0 1
    outer loop
      vertex -7.46342 7.15647 2
      vertex 7.67647 0.881678 2
      vertex -7.39 7.62 2
    endloop
  endfacet
  facet normal 0 0 1
    outer loop
      vertex 7.67647 0.881678 2
      vertex -7.46342 7.15647 2
      vertex 7.46342 0.463525 2
    endloop
  endfacet
  facet normal 0 0 1
    outer loop
      vertex 10.16 17.5976 2
      vertex -7.67647 8.50168 2
      vertex -7.46342 8.08352 2
    endloop
  endfacet
  facet normal -0 0 1
    outer loop
      vertex -10.16 17.5976 2
      vertex -7.67647 8.50168 2
      vertex 10.16 17.5976 2
    endloop
  endfacet
  facet normal 0 0 1
    outer loop
      vertex -7.67647 8.50168 2
      vertex -10.16 17.5976 2
      vertex -8.00832 8.83352 2
    endloop
  endfacet
  facet normal 0 0 1
    outer loop
      vertex -8.00832 8.83352 2
      vertex -10.16 17.5976 2
      vertex -8.42647 9.04658 2
    endloop
  endfacet
  facet normal 0 0 1
    outer loop
      vertex -8.42647 9.04658 2
      vertex -10.16 17.5976 2
      vertex -8.89 9.12 2
    endloop
  endfacet
  facet normal 0 0 1
    outer loop
      vertex -8.89 9.12 2
      vertex -10.16 17.5976 2
      vertex -9.35353 9.04658 2
    endloop
  endfacet
  facet normal 0 0 1
    outer loop
      vertex -10.16 17.5976 2
      vertex -9.77168 8.83352 2
      vertex -9.35353 9.04658 2
    endloop
  endfacet
  facet normal 0 0 1
    outer loop
      vertex -10.16 17.5976 2
      vertex -10.1035 8.50168 2
      vertex -9.77168 8.83352 2
    endloop
  endfacet
  facet normal 0 0 1
    outer loop
      vertex -10.16 17.5976 2
      vertex -10.3166 8.08352 2
      vertex -10.1035 8.50168 2
    endloop
  endfacet
  facet normal 0 0 1
    outer loop
      vertex -20.32 0 2
      vertex -10.3166 8.08352 2
      vertex -10.16 17.5976 2
    endloop
  endfacet
  facet normal 0 0 1
    outer loop
      vertex -10.3166 -7.15647 2
      vertex -20.32 0 2
      vertex -10.39 -7.62 2
    endloop
  endfacet
  facet normal 0 0 1
    outer loop
      vertex -10.3166 8.08352 2
      vertex -20.32 0 2
      vertex -10.39 7.62 2
    endloop
  endfacet
  facet normal 0 0 1
    outer loop
      vertex 10.3166 -0.463525 2
      vertex 20.32 0 2
      vertex 10.39 0 2
    endloop
  endfacet
  facet normal 0 0 1
    outer loop
      vertex 10.1035 -0.881678 2
      vertex 20.32 0 2
      vertex 10.3166 -0.463525 2
    endloop
  endfacet
  facet normal 0 0 1
    outer loop
      vertex 9.77168 -1.21352 2
      vertex 20.32 0 2
      vertex 10.1035 -0.881678 2
    endloop
  endfacet
  facet normal 0 0 1
    outer loop
      vertex 20.32 0 2
      vertex 9.77168 -1.21352 2
      vertex 10.16 -17.5976 2
    endloop
  endfacet
  facet normal -0 0 1
    outer loop
      vertex 9.35353 -1.42658 2
      vertex 10.16 -17.5976 2
      vertex 9.77168 -1.21352 2
    endloop
  endfacet
  facet normal -0 0 1
    outer loop
      vertex 8.89 -1.5 2
      vertex 10.16 -17.5976 2
      vertex 9.35353 -1.42658 2
    endloop
  endfacet
  facet normal 0 0 1
    outer loop
      vertex 8.42647 -1.42658 2
      vertex 10.16 -17.5976 2
      vertex 8.89 -1.5 2
    endloop
  endfacet
  facet normal 0 0 1
    outer loop
      vertex 8.00832 -1.21352 2
      vertex 10.16 -17.5976 2
      vertex 8.42647 -1.42658 2
    endloop
  endfacet
  facet normal 0 0 1
    outer loop
      vertex -7.39 -7.62 2
      vertex 8.00832 -1.21352 2
      vertex 7.67647 -0.881678 2
    endloop
  endfacet
  facet normal 0 0 1
    outer loop
      vertex -7.39 -7.62 2
      vertex 7.67647 -0.881678 2
      vertex 7.46342 -0.463525 2
    endloop
  endfacet
  facet normal 0 0 1
    outer loop
      vertex -7.39 -7.62 2
      vertex 7.46342 -0.463525 2
      vertex 7.39 0 2
    endloop
  endfacet
  facet normal -0 0 1
    outer loop
      vertex -7.67647 6.73832 2
      vertex 7.46342 0.463525 2
      vertex -7.46342 7.15647 2
    endloop
  endfacet
  facet normal 0 0 1
    outer loop
      vertex 8.00832 -1.21352 2
      vertex -7.39 -7.62 2
      vertex -7.46342 -8.08352 2
    endloop
  endfacet
  facet normal 0 0 1
    outer loop
      vertex 8.00832 -1.21352 2
      vertex -7.46342 -8.08352 2
      vertex 10.16 -17.5976 2
    endloop
  endfacet
  facet normal -0 0 1
    outer loop
      vertex -7.67647 -8.50168 2
      vertex 10.16 -17.5976 2
      vertex -7.46342 -8.08352 2
    endloop
  endfacet
  facet normal 0 0 1
    outer loop
      vertex -10.16 -17.5976 2
      vertex -7.67647 -8.50168 2
      vertex -8.00832 -8.83352 2
    endloop
  endfacet
  facet normal 0 0 1
    outer loop
      vertex -10.16 -17.5976 2
      vertex -8.00832 -8.83352 2
      vertex -8.42647 -9.04658 2
    endloop
  endfacet
  facet normal 0 0 1
    outer loop
      vertex -10.16 -17.5976 2
      vertex -8.42647 -9.04658 2
      vertex -8.89 -9.12 2
    endloop
  endfacet
  facet normal 0 0 1
    outer loop
      vertex -10.16 -17.5976 2
      vertex -8.89 -9.12 2
      vertex -9.35353 -9.04658 2
    endloop
  endfacet
  facet normal 0 0 1
    outer loop
      vertex -7.67647 -8.50168 2
      vertex -10.16 -17.5976 2
      vertex 10.16 -17.5976 2
    endloop
  endfacet
  facet normal 0 0 1
    outer loop
      vertex -9.77168 -8.83352 2
      vertex -10.16 -17.5976 2
      vertex -9.35353 -9.04658 2
    endloop
  endfacet
  facet normal 0 0 1
    outer loop
      vertex -10.1035 -8.50168 2
      vertex -10.16 -17.5976 2
      vertex -9.77168 -8.83352 2
    endloop
  endfacet
  facet normal 0 0 1
    outer loop
      vertex -10.3166 -8.08352 2
      vertex -10.16 -17.5976 2
      vertex -10.1035 -8.50168 2
    endloop
  endfacet
  facet normal 0 0 1
    outer loop
      vertex -20.32 0 2
      vertex -10.3166 -8.08352 2
      vertex -10.39 -7.62 2
    endloop
  endfacet
  facet normal 0 0 1
    outer loop
      vertex -10.3166 -8.08352 2
      vertex -20.32 0 2
      vertex -10.16 -17.5976 2
    endloop
  endfacet
  facet normal 0 1 -0
    outer loop
      vertex 10.16 -17.5976 2
      vertex -10.16 -17.5976 30
      vertex 10.16 -17.5976 30
    endloop
  endfacet
  facet normal 0 1 0
    outer loop
      vertex -10.16 -17.5976 30
      vertex 10.16 -17.5976 2
      vertex -10.16 -17.5976 2
    endloop
  endfacet
  facet normal 0.866025 0.500001 0
    outer loop
      vertex -10.16 -17.5976 30
      vertex -20.32 0 2
      vertex -20.32 0 30
    endloop
  endfacet
  facet normal 0.866025 0.500001 0
    outer loop
      vertex -20.32 0 2
      vertex -10.16 -17.5976 30
      vertex -10.16 -17.5976 2
    endloop
  endfacet
  facet normal -0.866025 0.500001 0
    outer loop
      vertex 10.16 -17.5976 2
      vertex 20.32 0 30
      vertex 20.32 0 2
    endloop
  endfacet
  facet normal -0.866025 0.500001 0
    outer loop
      vertex 20.32 0 30
      vertex 10.16 -17.5976 2
      vertex 10.16 -17.5976 30
    endloop
  endfacet
  facet normal -0.866025 -0.5 0
    outer loop
      vertex 23.89 0 22.9332
      vertex 23.49 0.69282 27.9993
      vertex 23.49 0.69282 21.4404
    endloop
  endfacet
  facet normal -0.866025 -0.5 0
    outer loop
      vertex 23.49 0.69282 27.9993
      vertex 23.89 0 22.9332
      vertex 23.89 0 27.8921
    endloop
  endfacet
  facet normal 0.866025 -0.5 0
    outer loop
      vertex 22.29 0 28.3209
      vertex 22.69 0.69282 18.4547
      vertex 22.69 0.69282 28.2137
    endloop
  endfacet
  facet normal 0.866025 -0.5 0
    outer loop
      vertex 22.69 0.69282 18.4547
      vertex 22.29 0 28.3209
      vertex 22.29 0 16.9619
    endloop
  endfacet
  facet normal 0 -1 0
    outer loop
      vertex 22.69 0.69282 28.2137
      vertex 23.49 0.69282 21.4404
      vertex 23.49 0.69282 27.9993
    endloop
  endfacet
  facet normal -0 -1 0
    outer loop
      vertex 23.49 0.69282 21.4404
      vertex 22.69 0.69282 28.2137
      vertex 22.69 0.69282 18.4547
    endloop
  endfacet
  facet normal 0.866025 0.5 -0
    outer loop
      vertex 22.69 -0.69282 18.4547
      vertex 22.29 0 28.3209
      vertex 22.69 -0.69282 28.2137
    endloop
  endfacet
  facet normal 0.866025 0.5 0
    outer loop
      vertex 22.29 0 28.3209
      vertex 22.69 -0.69282 18.4547
      vertex 22.29 0 16.9619
    endloop
  endfacet
  facet normal -0.866025 0.5 0
    outer loop
      vertex 23.49 -0.69282 27.9993
      vertex 23.89 0 22.9332
      vertex 23.49 -0.69282 21.4404
    endloop
  endfacet
  facet normal -0.866025 0.5 0
    outer loop
      vertex 23.89 0 22.9332
      vertex 23.49 -0.69282 27.9993
      vertex 23.89 0 27.8921
    endloop
  endfacet
  facet normal 0 1 -0
    outer loop
      vertex 23.49 -0.69282 21.4404
      vertex 22.69 -0.69282 28.2137
      vertex 23.49 -0.69282 27.9993
    endloop
  endfacet
  facet normal 0 1 0
    outer loop
      vertex 22.69 -0.69282 28.2137
      vertex 23.49 -0.69282 21.4404
      vertex 22.69 -0.69282 18.4547
    endloop
  endfacet
  facet normal -0.866025 -0.5 0
    outer loop
      vertex 23.19 -3 20.3208
      vertex 22.79 -2.30718 28.1869
      vertex 22.79 -2.30718 18.8279
    endloop
  endfacet
  facet normal -0.866025 -0.5 0
    outer loop
      vertex 22.79 -2.30718 28.1869
      vertex 23.19 -3 20.3208
      vertex 23.19 -3 28.0797
    endloop
  endfacet
  facet normal 0.866025 -0.5 0
    outer loop
      vertex 21.59 -3 28.5084
      vertex 21.99 -2.30718 15.8423
      vertex 21.99 -2.30718 28.4012
    endloop
  endfacet
  facet normal 0.866025 -0.5 0
    outer loop
      vertex 21.99 -2.30718 15.8423
      vertex 21.59 -3 28.5084
      vertex 21.59 -3 14.3495
    endloop
  endfacet
  facet normal 0 -1 0
    outer loop
      vertex 21.99 -2.30718 28.4012
      vertex 22.79 -2.30718 18.8279
      vertex 22.79 -2.30718 28.1869
    endloop
  endfacet
  facet normal -0 -1 0
    outer loop
      vertex 22.79 -2.30718 18.8279
      vertex 21.99 -2.30718 28.4012
      vertex 21.99 -2.30718 15.8423
    endloop
  endfacet
  facet normal 0 1 -0
    outer loop
      vertex 22.79 -3.69282 18.8279
      vertex 21.99 -3.69282 28.4012
      vertex 22.79 -3.69282 28.1869
    endloop
  endfacet
  facet normal 0 1 0
    outer loop
      vertex 21.99 -3.69282 28.4012
      vertex 22.79 -3.69282 18.8279
      vertex 21.99 -3.69282 15.8423
    endloop
  endfacet
  facet normal 0.866025 0.5 -0
    outer loop
      vertex 21.99 -3.69282 15.8423
      vertex 21.59 -3 28.5084
      vertex 21.99 -3.69282 28.4012
    endloop
  endfacet
  facet normal 0.866025 0.5 0
    outer loop
      vertex 21.59 -3 28.5084
      vertex 21.99 -3.69282 15.8423
      vertex 21.59 -3 14.3495
    endloop
  endfacet
  facet normal -0.866025 0.5 0
    outer loop
      vertex 22.79 -3.69282 28.1869
      vertex 23.19 -3 20.3208
      vertex 22.79 -3.69282 18.8279
    endloop
  endfacet
  facet normal -0.866025 0.5 0
    outer loop
      vertex 23.19 -3 20.3208
      vertex 22.79 -3.69282 28.1869
      vertex 23.19 -3 28.0797
    endloop
  endfacet
  facet normal -0.866025 -0.5 -0
    outer loop
      vertex -22.29 0 28.5004
      vertex -22.69 0.69282 17.2713
      vertex -22.29 0 15.7784
    endloop
  endfacet
  facet normal -0.866025 -0.5 0
    outer loop
      vertex -22.69 0.69282 17.2713
      vertex -22.29 0 28.5004
      vertex -22.69 0.69282 28.3932
    endloop
  endfacet
  facet normal 0.866025 -0.5 0
    outer loop
      vertex -23.89 0 21.7497
      vertex -23.49 0.69282 28.1788
      vertex -23.89 0 28.0716
    endloop
  endfacet
  facet normal 0.866025 -0.5 0
    outer loop
      vertex -23.49 0.69282 28.1788
      vertex -23.89 0 21.7497
      vertex -23.49 0.69282 20.2569
    endloop
  endfacet
  facet normal 0 -1 0
    outer loop
      vertex -23.49 0.69282 20.2569
      vertex -22.69 0.69282 28.3932
      vertex -23.49 0.69282 28.1788
    endloop
  endfacet
  facet normal 0 -1 -0
    outer loop
      vertex -22.69 0.69282 28.3932
      vertex -23.49 0.69282 20.2569
      vertex -22.69 0.69282 17.2713
    endloop
  endfacet
  facet normal 0.866025 0.5 0
    outer loop
      vertex -23.49 -0.69282 28.1788
      vertex -23.89 0 21.7497
      vertex -23.89 0 28.0716
    endloop
  endfacet
  facet normal 0.866025 0.5 0
    outer loop
      vertex -23.89 0 21.7497
      vertex -23.49 -0.69282 28.1788
      vertex -23.49 -0.69282 20.2569
    endloop
  endfacet
  facet normal 0 1 0
    outer loop
      vertex -22.69 -0.69282 28.3932
      vertex -23.49 -0.69282 20.2569
      vertex -23.49 -0.69282 28.1788
    endloop
  endfacet
  facet normal -0 1 0
    outer loop
      vertex -23.49 -0.69282 20.2569
      vertex -22.69 -0.69282 28.3932
      vertex -22.69 -0.69282 17.2713
    endloop
  endfacet
  facet normal -0.866025 0.5 0
    outer loop
      vertex -22.69 -0.69282 17.2713
      vertex -22.29 0 28.5004
      vertex -22.29 0 15.7784
    endloop
  endfacet
  facet normal -0.866025 0.5 0
    outer loop
      vertex -22.29 0 28.5004
      vertex -22.69 -0.69282 17.2713
      vertex -22.69 -0.69282 28.3932
    endloop
  endfacet
endsolid OpenSCAD_Model
