solid OpenSCAD_Model
  facet normal 0.866026 0.499999 0
    outer loop
      vertex 45.5906 13.4224 5
      vertex 53.34 0 5
      vertex 45.5906 13.4224 2
    endloop
  endfacet
  facet normal 0.866022 0.500006 -0
    outer loop
      vertex 41.5412 20.4362 2
      vertex 38.735 25.2966 5
      vertex 41.5412 20.4362 5
    endloop
  endfacet
  facet normal 0.866022 0.500006 0
    outer loop
      vertex 38.735 25.2966 5
      vertex 41.5412 20.4362 2
      vertex 38.735 25.2966 0
    endloop
  endfacet
  facet normal 0.866026 0.499998 -2.60408e-05
    outer loop
      vertex 45.5906 13.4224 2
      vertex 38.735 25.2966 0
      vertex 41.5412 20.4362 2
    endloop
  endfacet
  facet normal 0.866025 0.5 -1.16392e-05
    outer loop
      vertex 45.5906 13.4224 2
      vertex 53.34 0 0
      vertex 38.735 25.2966 0
    endloop
  endfacet
  facet normal 0.866026 0.499999 -0
    outer loop
      vertex 53.34 0 0
      vertex 45.5906 13.4224 2
      vertex 53.34 0 5
    endloop
  endfacet
  facet normal -0.866025 0.5 0
    outer loop
      vertex 9.525 25.2966 0
      vertex -2.08 5.19615 2
      vertex 9.525 25.2966 5
    endloop
  endfacet
  facet normal -0.866025 0.5 5.00685e-07
    outer loop
      vertex -5.08 0 0
      vertex -2.08 5.19615 2
      vertex 9.525 25.2966 0
    endloop
  endfacet
  facet normal -0.866025 0.5 0
    outer loop
      vertex -2.08 5.19615 2
      vertex -5.08 0 0
      vertex -5.08 0 2
    endloop
  endfacet
  facet normal -0.866025 0.5 0
    outer loop
      vertex 9.525 25.2966 5
      vertex -2.08 5.19615 2
      vertex -2.08 5.19615 5
    endloop
  endfacet
  facet normal 0 1 -0
    outer loop
      vertex 38.735 25.2966 0
      vertex 9.525 25.2966 5
      vertex 38.735 25.2966 5
    endloop
  endfacet
  facet normal 0 1 0
    outer loop
      vertex 9.525 25.2966 5
      vertex 38.735 25.2966 0
      vertex 9.525 25.2966 0
    endloop
  endfacet
  facet normal -0.866025 -0.5 0
    outer loop
      vertex -5.08 0 0
      vertex -2.08 -5.19615 2
      vertex -5.08 0 2
    endloop
  endfacet
  facet normal -0.866025 -0.5 5.00685e-07
    outer loop
      vertex 9.525 -25.2966 0
      vertex -2.08 -5.19615 2
      vertex -5.08 0 0
    endloop
  endfacet
  facet normal -0.866025 -0.5 -0
    outer loop
      vertex 9.525 -25.2966 5
      vertex -2.08 -5.19615 2
      vertex 9.525 -25.2966 0
    endloop
  endfacet
  facet normal -0.866025 -0.5 0
    outer loop
      vertex -2.08 -5.19615 2
      vertex 9.525 -25.2966 5
      vertex -2.08 -5.19615 5
    endloop
  endfacet
  facet normal 0 0 1
    outer loop
      vertex 38.735 25.2966 5
      vertex 40.2712 20.4362 5
      vertex 41.5412 20.4362 5
    endloop
  endfacet
  facet normal 0 0 1
    outer loop
      vertex 38.735 25.2966 5
      vertex 38.1 24.1968 5
      vertex 40.2712 20.4362 5
    endloop
  endfacet
  facet normal 0 0 1
    outer loop
      vertex 38.735 25.2966 5
      vertex 10.16 24.1968 5
      vertex 38.1 24.1968 5
    endloop
  endfacet
  facet normal -0 0 1
    outer loop
      vertex 9.525 25.2966 5
      vertex 10.16 24.1968 5
      vertex 38.735 25.2966 5
    endloop
  endfacet
  facet normal 0 0 1
    outer loop
      vertex 9.525 25.2966 5
      vertex -0.81 5.19615 5
      vertex 10.16 24.1968 5
    endloop
  endfacet
  facet normal 0 -0 1
    outer loop
      vertex -0.81 5.19615 5
      vertex 9.525 25.2966 5
      vertex -2.08 5.19615 5
    endloop
  endfacet
  facet normal 0 0 1
    outer loop
      vertex 45.5906 13.4224 5
      vertex 52.07 0 5
      vertex 53.34 0 5
    endloop
  endfacet
  facet normal 0 0 1
    outer loop
      vertex 52.07 0 5
      vertex 45.5906 13.4224 5
      vertex 44.9556 12.3225 5
    endloop
  endfacet
  facet normal -0 0 1
    outer loop
      vertex 52.07 0 5
      vertex 45.5906 -13.4224 5
      vertex 53.34 0 5
    endloop
  endfacet
  facet normal 0 -0 1
    outer loop
      vertex 45.5906 -13.4224 5
      vertex 52.07 0 5
      vertex 44.9556 -12.3225 5
    endloop
  endfacet
  facet normal -0 0 1
    outer loop
      vertex 40.2712 -20.4362 5
      vertex 38.735 -25.2966 5
      vertex 41.5412 -20.4362 5
    endloop
  endfacet
  facet normal -0 0 1
    outer loop
      vertex 38.1 -24.1968 5
      vertex 38.735 -25.2966 5
      vertex 40.2712 -20.4362 5
    endloop
  endfacet
  facet normal -0 0 1
    outer loop
      vertex 10.16 -24.1968 5
      vertex 38.735 -25.2966 5
      vertex 38.1 -24.1968 5
    endloop
  endfacet
  facet normal 0 0 1
    outer loop
      vertex 10.16 -24.1968 5
      vertex 9.525 -25.2966 5
      vertex 38.735 -25.2966 5
    endloop
  endfacet
  facet normal 0 0 1
    outer loop
      vertex -0.81 -5.19615 5
      vertex 9.525 -25.2966 5
      vertex 10.16 -24.1968 5
    endloop
  endfacet
  facet normal 0 0 1
    outer loop
      vertex 9.525 -25.2966 5
      vertex -0.81 -5.19615 5
      vertex -2.08 -5.19615 5
    endloop
  endfacet
  facet normal 0.866022 -0.500006 0
    outer loop
      vertex 41.5412 -20.4362 5
      vertex 38.735 -25.2966 5
      vertex 41.5412 -20.4362 2
    endloop
  endfacet
  facet normal 0.866026 -0.499999 0
    outer loop
      vertex 45.5906 -13.4224 2
      vertex 53.34 0 5
      vertex 45.5906 -13.4224 5
    endloop
  endfacet
  facet normal 0.866026 -0.499999 0
    outer loop
      vertex 53.34 0 5
      vertex 45.5906 -13.4224 2
      vertex 53.34 0 0
    endloop
  endfacet
  facet normal 0.866026 -0.499998 -2.60408e-05
    outer loop
      vertex 38.735 -25.2966 0
      vertex 45.5906 -13.4224 2
      vertex 41.5412 -20.4362 2
    endloop
  endfacet
  facet normal 0.866025 -0.5 -1.16392e-05
    outer loop
      vertex 45.5906 -13.4224 2
      vertex 38.735 -25.2966 0
      vertex 53.34 0 0
    endloop
  endfacet
  facet normal 0.866022 -0.500006 0
    outer loop
      vertex 38.735 -25.2966 0
      vertex 41.5412 -20.4362 2
      vertex 38.735 -25.2966 5
    endloop
  endfacet
  facet normal -0 0 -1
    outer loop
      vertex 39.2134 14.7765 0
      vertex 1.42658 0.463525 0
      vertex 9.525 25.2966 0
    endloop
  endfacet
  facet normal 0 0 -1
    outer loop
      vertex 1.21352 0.881678 0
      vertex 9.525 25.2966 0
      vertex 1.42658 0.463525 0
    endloop
  endfacet
  facet normal 0 0 -1
    outer loop
      vertex 0.881678 1.21352 0
      vertex 9.525 25.2966 0
      vertex 1.21352 0.881678 0
    endloop
  endfacet
  facet normal 0 0 -1
    outer loop
      vertex 0.463525 1.42658 0
      vertex 9.525 25.2966 0
      vertex 0.881678 1.21352 0
    endloop
  endfacet
  facet normal 0 0 -1
    outer loop
      vertex 0 1.5 0
      vertex 9.525 25.2966 0
      vertex 0.463525 1.42658 0
    endloop
  endfacet
  facet normal 0 0 -1
    outer loop
      vertex -0.463525 1.42658 0
      vertex 9.525 25.2966 0
      vertex 0 1.5 0
    endloop
  endfacet
  facet normal 0 0 -1
    outer loop
      vertex -5.08 0 0
      vertex -0.463525 1.42658 0
      vertex -0.881678 1.21352 0
    endloop
  endfacet
  facet normal 0 0 -1
    outer loop
      vertex -5.08 0 0
      vertex -0.881678 1.21352 0
      vertex -1.21352 0.881678 0
    endloop
  endfacet
  facet normal 0 0 -1
    outer loop
      vertex -5.08 0 0
      vertex -1.21352 0.881678 0
      vertex -1.42658 0.463525 0
    endloop
  endfacet
  facet normal -0 0 -1
    outer loop
      vertex -0.463525 1.42658 0
      vertex -5.08 0 0
      vertex 9.525 25.2966 0
    endloop
  endfacet
  facet normal 0 0 -1
    outer loop
      vertex -5.08 0 0
      vertex -1.42658 0.463525 0
      vertex -1.5 0 0
    endloop
  endfacet
  facet normal 0 0 -1
    outer loop
      vertex 41.8535 -14.3583 0
      vertex 53.34 0 0
      vertex 42.0666 -14.7765 0
    endloop
  endfacet
  facet normal 0 0 -1
    outer loop
      vertex 53.34 0 0
      vertex 42.0666 14.7765 0
      vertex 42.14 15.24 0
    endloop
  endfacet
  facet normal 0 0 -1
    outer loop
      vertex 41.5217 -14.0265 0
      vertex 53.34 0 0
      vertex 41.8535 -14.3583 0
    endloop
  endfacet
  facet normal 0 0 -1
    outer loop
      vertex 53.34 0 0
      vertex 41.8535 14.3583 0
      vertex 42.0666 14.7765 0
    endloop
  endfacet
  facet normal 0 0 -1
    outer loop
      vertex 41.1035 -13.8134 0
      vertex 53.34 0 0
      vertex 41.5217 -14.0265 0
    endloop
  endfacet
  facet normal 0 0 -1
    outer loop
      vertex 53.34 0 0
      vertex 41.5217 14.0265 0
      vertex 41.8535 14.3583 0
    endloop
  endfacet
  facet normal 0 0 -1
    outer loop
      vertex 40.64 -13.74 0
      vertex 53.34 0 0
      vertex 41.1035 -13.8134 0
    endloop
  endfacet
  facet normal 0 0 -1
    outer loop
      vertex 53.34 0 0
      vertex 41.1035 13.8134 0
      vertex 41.5217 14.0265 0
    endloop
  endfacet
  facet normal 0 0 -1
    outer loop
      vertex 40.64 13.74 0
      vertex 53.34 0 0
      vertex 40.64 -13.74 0
    endloop
  endfacet
  facet normal 0 0 -1
    outer loop
      vertex 53.34 0 0
      vertex 40.64 13.74 0
      vertex 41.1035 13.8134 0
    endloop
  endfacet
  facet normal 0 0 -1
    outer loop
      vertex 40.1765 -13.8134 0
      vertex 40.64 13.74 0
      vertex 40.64 -13.74 0
    endloop
  endfacet
  facet normal 0 0 -1
    outer loop
      vertex 40.1765 -13.8134 0
      vertex 40.1765 13.8134 0
      vertex 40.64 13.74 0
    endloop
  endfacet
  facet normal 0 0 -1
    outer loop
      vertex 39.7583 -14.0265 0
      vertex 40.1765 13.8134 0
      vertex 40.1765 -13.8134 0
    endloop
  endfacet
  facet normal 0 0 -1
    outer loop
      vertex 39.7583 -14.0265 0
      vertex 39.7583 14.0265 0
      vertex 40.1765 13.8134 0
    endloop
  endfacet
  facet normal 0 0 -1
    outer loop
      vertex 39.4265 -14.3583 0
      vertex 39.7583 14.0265 0
      vertex 39.7583 -14.0265 0
    endloop
  endfacet
  facet normal 0 0 -1
    outer loop
      vertex 39.4265 -14.3583 0
      vertex 39.4265 14.3583 0
      vertex 39.7583 14.0265 0
    endloop
  endfacet
  facet normal 0 0 -1
    outer loop
      vertex 1.42658 -0.463525 0
      vertex 39.4265 -14.3583 0
      vertex 39.2134 -14.7765 0
    endloop
  endfacet
  facet normal 0 0 -1
    outer loop
      vertex 39.4265 -14.3583 0
      vertex 1.5 0 0
      vertex 39.4265 14.3583 0
    endloop
  endfacet
  facet normal 0 0 -1
    outer loop
      vertex 9.525 -25.2966 0
      vertex 39.2134 -14.7765 0
      vertex 39.14 -15.24 0
    endloop
  endfacet
  facet normal 0 0 -1
    outer loop
      vertex 1.42658 0.463525 0
      vertex 39.4265 14.3583 0
      vertex 1.5 0 0
    endloop
  endfacet
  facet normal 0 0 -1
    outer loop
      vertex 53.34 0 0
      vertex 42.0666 -15.7035 0
      vertex 42.14 -15.24 0
    endloop
  endfacet
  facet normal 0 0 -1
    outer loop
      vertex 38.735 -25.2966 0
      vertex 42.0666 -15.7035 0
      vertex 53.34 0 0
    endloop
  endfacet
  facet normal -0 0 -1
    outer loop
      vertex 39.2134 -15.7035 0
      vertex 9.525 -25.2966 0
      vertex 39.14 -15.24 0
    endloop
  endfacet
  facet normal 0 0 -1
    outer loop
      vertex 9.525 -25.2966 0
      vertex 39.2134 -15.7035 0
      vertex 38.735 -25.2966 0
    endloop
  endfacet
  facet normal -0 0 -1
    outer loop
      vertex 39.4265 -16.1217 0
      vertex 38.735 -25.2966 0
      vertex 39.2134 -15.7035 0
    endloop
  endfacet
  facet normal -0 0 -1
    outer loop
      vertex 39.7583 -16.4535 0
      vertex 38.735 -25.2966 0
      vertex 39.4265 -16.1217 0
    endloop
  endfacet
  facet normal -0 0 -1
    outer loop
      vertex 40.1765 -16.6666 0
      vertex 38.735 -25.2966 0
      vertex 39.7583 -16.4535 0
    endloop
  endfacet
  facet normal -0 0 -1
    outer loop
      vertex 40.64 -16.74 0
      vertex 38.735 -25.2966 0
      vertex 40.1765 -16.6666 0
    endloop
  endfacet
  facet normal 0 0 -1
    outer loop
      vertex 41.1035 -16.6666 0
      vertex 38.735 -25.2966 0
      vertex 40.64 -16.74 0
    endloop
  endfacet
  facet normal 0 0 -1
    outer loop
      vertex 41.5217 -16.4535 0
      vertex 38.735 -25.2966 0
      vertex 41.1035 -16.6666 0
    endloop
  endfacet
  facet normal 0 0 -1
    outer loop
      vertex 41.8535 -16.1217 0
      vertex 38.735 -25.2966 0
      vertex 41.5217 -16.4535 0
    endloop
  endfacet
  facet normal 0 0 -1
    outer loop
      vertex 42.0666 -15.7035 0
      vertex 38.735 -25.2966 0
      vertex 41.8535 -16.1217 0
    endloop
  endfacet
  facet normal 0 0 -1
    outer loop
      vertex 42.0666 -14.7765 0
      vertex 53.34 0 0
      vertex 42.14 -15.24 0
    endloop
  endfacet
  facet normal 0 0 -1
    outer loop
      vertex 42.0666 15.7035 0
      vertex 53.34 0 0
      vertex 42.14 15.24 0
    endloop
  endfacet
  facet normal 0 0 -1
    outer loop
      vertex 38.735 25.2966 0
      vertex 42.0666 15.7035 0
      vertex 41.8535 16.1217 0
    endloop
  endfacet
  facet normal 0 0 -1
    outer loop
      vertex 42.0666 15.7035 0
      vertex 38.735 25.2966 0
      vertex 53.34 0 0
    endloop
  endfacet
  facet normal 0 0 -1
    outer loop
      vertex 41.5217 16.4535 0
      vertex 38.735 25.2966 0
      vertex 41.8535 16.1217 0
    endloop
  endfacet
  facet normal 0 0 -1
    outer loop
      vertex 41.1035 16.6666 0
      vertex 38.735 25.2966 0
      vertex 41.5217 16.4535 0
    endloop
  endfacet
  facet normal 0 0 -1
    outer loop
      vertex 40.64 16.74 0
      vertex 38.735 25.2966 0
      vertex 41.1035 16.6666 0
    endloop
  endfacet
  facet normal 0 0 -1
    outer loop
      vertex 40.1765 16.6666 0
      vertex 38.735 25.2966 0
      vertex 40.64 16.74 0
    endloop
  endfacet
  facet normal 0 0 -1
    outer loop
      vertex 39.7583 16.4535 0
      vertex 38.735 25.2966 0
      vertex 40.1765 16.6666 0
    endloop
  endfacet
  facet normal 0 0 -1
    outer loop
      vertex 39.4265 16.1217 0
      vertex 38.735 25.2966 0
      vertex 39.7583 16.4535 0
    endloop
  endfacet
  facet normal 0 0 -1
    outer loop
      vertex 39.2134 15.7035 0
      vertex 38.735 25.2966 0
      vertex 39.4265 16.1217 0
    endloop
  endfacet
  facet normal 0 0 -1
    outer loop
      vertex 9.525 25.2966 0
      vertex 39.2134 15.7035 0
      vertex 39.14 15.24 0
    endloop
  endfacet
  facet normal 0 0 -1
    outer loop
      vertex 39.4265 -14.3583 0
      vertex 1.42658 -0.463525 0
      vertex 1.5 0 0
    endloop
  endfacet
  facet normal -0 0 -1
    outer loop
      vertex 39.2134 -14.7765 0
      vertex 9.525 -25.2966 0
      vertex 1.42658 -0.463525 0
    endloop
  endfacet
  facet normal 0 0 -1
    outer loop
      vertex 39.2134 14.7765 0
      vertex 9.525 25.2966 0
      vertex 39.14 15.24 0
    endloop
  endfacet
  facet normal 0 0 -1
    outer loop
      vertex 39.2134 15.7035 0
      vertex 9.525 25.2966 0
      vertex 38.735 25.2966 0
    endloop
  endfacet
  facet normal -0 0 -1
    outer loop
      vertex 39.4265 14.3583 0
      vertex 1.42658 0.463525 0
      vertex 39.2134 14.7765 0
    endloop
  endfacet
  facet normal 0 0 -1
    outer loop
      vertex 9.525 -25.2966 0
      vertex 1.21352 -0.881678 0
      vertex 1.42658 -0.463525 0
    endloop
  endfacet
  facet normal 0 0 -1
    outer loop
      vertex 9.525 -25.2966 0
      vertex 0.881678 -1.21352 0
      vertex 1.21352 -0.881678 0
    endloop
  endfacet
  facet normal 0 0 -1
    outer loop
      vertex 9.525 -25.2966 0
      vertex 0.463525 -1.42658 0
      vertex 0.881678 -1.21352 0
    endloop
  endfacet
  facet normal 0 0 -1
    outer loop
      vertex 9.525 -25.2966 0
      vertex 0 -1.5 0
      vertex 0.463525 -1.42658 0
    endloop
  endfacet
  facet normal 0 0 -1
    outer loop
      vertex 9.525 -25.2966 0
      vertex -0.463525 -1.42658 0
      vertex 0 -1.5 0
    endloop
  endfacet
  facet normal 0 0 -1
    outer loop
      vertex -5.08 0 0
      vertex -0.463525 -1.42658 0
      vertex 9.525 -25.2966 0
    endloop
  endfacet
  facet normal 0 0 -1
    outer loop
      vertex -0.463525 -1.42658 0
      vertex -5.08 0 0
      vertex -0.881678 -1.21352 0
    endloop
  endfacet
  facet normal 0 0 -1
    outer loop
      vertex -0.881678 -1.21352 0
      vertex -5.08 0 0
      vertex -1.21352 -0.881678 0
    endloop
  endfacet
  facet normal 0 0 -1
    outer loop
      vertex -1.42658 -0.463525 0
      vertex -5.08 0 0
      vertex -1.5 0 0
    endloop
  endfacet
  facet normal 0 0 -1
    outer loop
      vertex -1.21352 -0.881678 0
      vertex -5.08 0 0
      vertex -1.42658 -0.463525 0
    endloop
  endfacet
  facet normal 0 -1 0
    outer loop
      vertex 9.525 -25.2966 0
      vertex 38.735 -25.2966 5
      vertex 9.525 -25.2966 5
    endloop
  endfacet
  facet normal 0 -1 -0
    outer loop
      vertex 38.735 -25.2966 5
      vertex 9.525 -25.2966 0
      vertex 38.735 -25.2966 0
    endloop
  endfacet
  facet normal -0.866024 -0.500003 0
    outer loop
      vertex 40.2712 20.4362 2
      vertex 38.1 24.1968 5
      vertex 38.1 24.1968 2
    endloop
  endfacet
  facet normal -0.866024 -0.500003 0
    outer loop
      vertex 38.1 24.1968 5
      vertex 40.2712 20.4362 2
      vertex 40.2712 20.4362 5
    endloop
  endfacet
  facet normal -0.866025 -0.5 0
    outer loop
      vertex 52.07 0 2
      vertex 44.9556 12.3225 5
      vertex 44.9556 12.3225 2
    endloop
  endfacet
  facet normal -0.866025 -0.5 0
    outer loop
      vertex 44.9556 12.3225 5
      vertex 52.07 0 2
      vertex 52.07 0 5
    endloop
  endfacet
  facet normal 0.866026 0.499999 0
    outer loop
      vertex 10.16 -24.1968 5
      vertex -0.81 -5.19615 2
      vertex -0.81 -5.19615 5
    endloop
  endfacet
  facet normal 0.866026 0.499999 0
    outer loop
      vertex -0.81 -5.19615 2
      vertex 10.16 -24.1968 5
      vertex 10.16 -24.1968 2
    endloop
  endfacet
  facet normal 0 -1 0
    outer loop
      vertex 10.16 24.1968 2
      vertex 38.1 24.1968 5
      vertex 10.16 24.1968 5
    endloop
  endfacet
  facet normal 0 -1 -0
    outer loop
      vertex 38.1 24.1968 5
      vertex 10.16 24.1968 2
      vertex 38.1 24.1968 2
    endloop
  endfacet
  facet normal 0 1 -0
    outer loop
      vertex 38.1 -24.1968 2
      vertex 10.16 -24.1968 5
      vertex 38.1 -24.1968 5
    endloop
  endfacet
  facet normal 0 1 0
    outer loop
      vertex 10.16 -24.1968 5
      vertex 38.1 -24.1968 2
      vertex 10.16 -24.1968 2
    endloop
  endfacet
  facet normal 0.866026 -0.499999 0
    outer loop
      vertex -0.81 5.19615 5
      vertex 10.16 24.1968 2
      vertex 10.16 24.1968 5
    endloop
  endfacet
  facet normal 0.866026 -0.499999 0
    outer loop
      vertex 10.16 24.1968 2
      vertex -0.81 5.19615 5
      vertex -0.81 5.19615 2
    endloop
  endfacet
  facet normal 0 0 1
    outer loop
      vertex 10.16 24.1968 2
      vertex 7.62 7.7 2
      vertex 10.16 7.7 2
    endloop
  endfacet
  facet normal -0 0 1
    outer loop
      vertex 1.42658 0.463525 2
      vertex 7.62 -5 2
      vertex 7.62 7.7 2
    endloop
  endfacet
  facet normal 0 0 1
    outer loop
      vertex -0.81 5.19615 2
      vertex 7.62 7.7 2
      vertex 10.16 24.1968 2
    endloop
  endfacet
  facet normal 0 0 1
    outer loop
      vertex 7.62 -5 2
      vertex 1.42658 0.463525 2
      vertex 1.5 0 2
    endloop
  endfacet
  facet normal 0 0 1
    outer loop
      vertex 7.62 7.7 2
      vertex 1.21352 0.881678 2
      vertex 1.42658 0.463525 2
    endloop
  endfacet
  facet normal 0 -0 1
    outer loop
      vertex 0.881678 1.21352 2
      vertex 7.62 7.7 2
      vertex -0.81 5.19615 2
    endloop
  endfacet
  facet normal 0 0 1
    outer loop
      vertex 7.62 7.7 2
      vertex 0.881678 1.21352 2
      vertex 1.21352 0.881678 2
    endloop
  endfacet
  facet normal 0 0 1
    outer loop
      vertex 0.881678 1.21352 2
      vertex -0.81 5.19615 2
      vertex 0.463525 1.42658 2
    endloop
  endfacet
  facet normal 0 0 1
    outer loop
      vertex 0.463525 1.42658 2
      vertex -0.81 5.19615 2
      vertex 0 1.5 2
    endloop
  endfacet
  facet normal 0 0 1
    outer loop
      vertex 0 1.5 2
      vertex -0.81 5.19615 2
      vertex -0.463525 1.42658 2
    endloop
  endfacet
  facet normal -0 0 1
    outer loop
      vertex -2.08 5.19615 2
      vertex -0.463525 1.42658 2
      vertex -0.81 5.19615 2
    endloop
  endfacet
  facet normal 0 0 1
    outer loop
      vertex -0.463525 1.42658 2
      vertex -2.08 5.19615 2
      vertex -0.881678 1.21352 2
    endloop
  endfacet
  facet normal 0 0 1
    outer loop
      vertex -0.881678 1.21352 2
      vertex -2.08 5.19615 2
      vertex -1.21352 0.881678 2
    endloop
  endfacet
  facet normal 0 0 1
    outer loop
      vertex -5.08 0 2
      vertex -1.21352 0.881678 2
      vertex -2.08 5.19615 2
    endloop
  endfacet
  facet normal 0 0 1
    outer loop
      vertex -1.21352 0.881678 2
      vertex -5.08 0 2
      vertex -1.42658 0.463525 2
    endloop
  endfacet
  facet normal -0 0 1
    outer loop
      vertex 41.5217 14.0265 2
      vertex 44.9556 12.3225 2
      vertex 41.8535 14.3583 2
    endloop
  endfacet
  facet normal 0 0 1
    outer loop
      vertex 44.9556 -12.3225 2
      vertex 42.0666 -14.7765 2
      vertex 42.14 -15.24 2
    endloop
  endfacet
  facet normal 0 0 1
    outer loop
      vertex 38.7 -5 2
      vertex 44.9556 12.3225 2
      vertex 38.7 7.7 2
    endloop
  endfacet
  facet normal 0 0 1
    outer loop
      vertex 44.9556 -12.3225 2
      vertex 41.8535 -14.3583 2
      vertex 42.0666 -14.7765 2
    endloop
  endfacet
  facet normal -0 0 1
    outer loop
      vertex 41.1035 13.8134 2
      vertex 44.9556 12.3225 2
      vertex 41.5217 14.0265 2
    endloop
  endfacet
  facet normal 0 -0 1
    outer loop
      vertex 40.64 -13.74 2
      vertex 44.9556 -12.3225 2
      vertex 38.7 -5 2
    endloop
  endfacet
  facet normal 0 0 1
    outer loop
      vertex 44.9556 12.3225 2
      vertex 41.1035 13.8134 2
      vertex 38.7 7.7 2
    endloop
  endfacet
  facet normal 0 0 1
    outer loop
      vertex 44.9556 -12.3225 2
      vertex 41.5217 -14.0265 2
      vertex 41.8535 -14.3583 2
    endloop
  endfacet
  facet normal 0 0 1
    outer loop
      vertex 38.7 7.7 2
      vertex 41.1035 13.8134 2
      vertex 40.64 13.74 2
    endloop
  endfacet
  facet normal 0 0 1
    outer loop
      vertex 44.9556 -12.3225 2
      vertex 41.1035 -13.8134 2
      vertex 41.5217 -14.0265 2
    endloop
  endfacet
  facet normal 0 0 1
    outer loop
      vertex 38.7 7.7 2
      vertex 40.64 13.74 2
      vertex 40.1765 13.8134 2
    endloop
  endfacet
  facet normal 0 0 1
    outer loop
      vertex 44.9556 -12.3225 2
      vertex 40.64 -13.74 2
      vertex 41.1035 -13.8134 2
    endloop
  endfacet
  facet normal 0 0 1
    outer loop
      vertex 38.7 7.7 2
      vertex 40.1765 13.8134 2
      vertex 39.7583 14.0265 2
    endloop
  endfacet
  facet normal 0 0 1
    outer loop
      vertex 40.64 -13.74 2
      vertex 38.7 -5 2
      vertex 40.1765 -13.8134 2
    endloop
  endfacet
  facet normal 0 0 1
    outer loop
      vertex 36.16 7.7 2
      vertex 39.7583 14.0265 2
      vertex 39.4265 14.3583 2
    endloop
  endfacet
  facet normal 0 0 1
    outer loop
      vertex 40.1765 -13.8134 2
      vertex 38.7 -5 2
      vertex 39.7583 -14.0265 2
    endloop
  endfacet
  facet normal 0 0 1
    outer loop
      vertex 36.16 7.7 2
      vertex 39.4265 14.3583 2
      vertex 39.2134 14.7765 2
    endloop
  endfacet
  facet normal -0 0 1
    outer loop
      vertex 36.16 -5 2
      vertex 39.7583 -14.0265 2
      vertex 38.7 -5 2
    endloop
  endfacet
  facet normal 0 0 1
    outer loop
      vertex 36.16 7.7 2
      vertex 39.2134 14.7765 2
      vertex 39.14 15.24 2
    endloop
  endfacet
  facet normal 0 0 1
    outer loop
      vertex 39.7583 -14.0265 2
      vertex 36.16 -5 2
      vertex 39.4265 -14.3583 2
    endloop
  endfacet
  facet normal 0 0 1
    outer loop
      vertex 45.5906 13.4224 2
      vertex 42.0666 14.7765 2
      vertex 44.9556 12.3225 2
    endloop
  endfacet
  facet normal -0 0 1
    outer loop
      vertex 42.0666 14.7765 2
      vertex 45.5906 13.4224 2
      vertex 42.14 15.24 2
    endloop
  endfacet
  facet normal 0 0 1
    outer loop
      vertex 45.5906 13.4224 2
      vertex 42.0666 15.7035 2
      vertex 42.14 15.24 2
    endloop
  endfacet
  facet normal 0 0 1
    outer loop
      vertex 45.5906 13.4224 2
      vertex 41.8535 16.1217 2
      vertex 42.0666 15.7035 2
    endloop
  endfacet
  facet normal 0 0 1
    outer loop
      vertex 41.5412 20.4362 2
      vertex 41.8535 16.1217 2
      vertex 45.5906 13.4224 2
    endloop
  endfacet
  facet normal 0 0 1
    outer loop
      vertex 41.5412 20.4362 2
      vertex 41.5217 16.4535 2
      vertex 41.8535 16.1217 2
    endloop
  endfacet
  facet normal 0 0 1
    outer loop
      vertex 41.5412 20.4362 2
      vertex 41.1035 16.6666 2
      vertex 41.5217 16.4535 2
    endloop
  endfacet
  facet normal 0 0 1
    outer loop
      vertex 41.5412 20.4362 2
      vertex 40.64 16.74 2
      vertex 41.1035 16.6666 2
    endloop
  endfacet
  facet normal -0 0 1
    outer loop
      vertex 40.2712 20.4362 2
      vertex 40.64 16.74 2
      vertex 41.5412 20.4362 2
    endloop
  endfacet
  facet normal 0 0 1
    outer loop
      vertex 40.2712 20.4362 2
      vertex 40.1765 16.6666 2
      vertex 40.64 16.74 2
    endloop
  endfacet
  facet normal 0 0 1
    outer loop
      vertex 40.2712 20.4362 2
      vertex 39.7583 16.4535 2
      vertex 40.1765 16.6666 2
    endloop
  endfacet
  facet normal 0 0 1
    outer loop
      vertex 40.2712 20.4362 2
      vertex 39.4265 16.1217 2
      vertex 39.7583 16.4535 2
    endloop
  endfacet
  facet normal 0 0 1
    outer loop
      vertex 38.1 24.1968 2
      vertex 39.4265 16.1217 2
      vertex 40.2712 20.4362 2
    endloop
  endfacet
  facet normal 0 0 1
    outer loop
      vertex 44.9556 12.3225 2
      vertex 38.7 -5 2
      vertex 44.9556 -12.3225 2
    endloop
  endfacet
  facet normal 0 0 1
    outer loop
      vertex 39.4265 16.1217 2
      vertex 38.1 24.1968 2
      vertex 39.2134 15.7035 2
    endloop
  endfacet
  facet normal -0 0 1
    outer loop
      vertex 10.16 24.1968 2
      vertex 39.2134 15.7035 2
      vertex 38.1 24.1968 2
    endloop
  endfacet
  facet normal 0 0 1
    outer loop
      vertex 39.2134 15.7035 2
      vertex 10.16 24.1968 2
      vertex 39.14 15.24 2
    endloop
  endfacet
  facet normal 0 0 1
    outer loop
      vertex 39.7583 14.0265 2
      vertex 36.16 7.7 2
      vertex 38.7 7.7 2
    endloop
  endfacet
  facet normal 0 0 1
    outer loop
      vertex 10.16 7.7 2
      vertex 36.16 7.7 2
      vertex 10.16 24.1968 2
    endloop
  endfacet
  facet normal 0 0 1
    outer loop
      vertex 39.14 15.24 2
      vertex 10.16 24.1968 2
      vertex 36.16 7.7 2
    endloop
  endfacet
  facet normal 0 0 1
    outer loop
      vertex 52.07 0 2
      vertex 44.9556 12.3225 2
      vertex 44.9556 -12.3225 2
    endloop
  endfacet
  facet normal -0 0 1
    outer loop
      vertex 41.8535 14.3583 2
      vertex 44.9556 12.3225 2
      vertex 42.0666 14.7765 2
    endloop
  endfacet
  facet normal 0 0 1
    outer loop
      vertex 42.14 -15.24 2
      vertex 45.5906 -13.4224 2
      vertex 44.9556 -12.3225 2
    endloop
  endfacet
  facet normal 0 0 1
    outer loop
      vertex 42.0666 -15.7035 2
      vertex 45.5906 -13.4224 2
      vertex 42.14 -15.24 2
    endloop
  endfacet
  facet normal 0 0 1
    outer loop
      vertex 41.8535 -16.1217 2
      vertex 45.5906 -13.4224 2
      vertex 42.0666 -15.7035 2
    endloop
  endfacet
  facet normal -0 0 1
    outer loop
      vertex 41.8535 -16.1217 2
      vertex 41.5412 -20.4362 2
      vertex 45.5906 -13.4224 2
    endloop
  endfacet
  facet normal -0 0 1
    outer loop
      vertex 41.5217 -16.4535 2
      vertex 41.5412 -20.4362 2
      vertex 41.8535 -16.1217 2
    endloop
  endfacet
  facet normal -0 0 1
    outer loop
      vertex 41.1035 -16.6666 2
      vertex 41.5412 -20.4362 2
      vertex 41.5217 -16.4535 2
    endloop
  endfacet
  facet normal -0 0 1
    outer loop
      vertex 40.64 -16.74 2
      vertex 41.5412 -20.4362 2
      vertex 41.1035 -16.6666 2
    endloop
  endfacet
  facet normal 0 0 1
    outer loop
      vertex 40.64 -16.74 2
      vertex 40.2712 -20.4362 2
      vertex 41.5412 -20.4362 2
    endloop
  endfacet
  facet normal 0 0 1
    outer loop
      vertex 40.1765 -16.6666 2
      vertex 40.2712 -20.4362 2
      vertex 40.64 -16.74 2
    endloop
  endfacet
  facet normal 0 0 1
    outer loop
      vertex 39.7583 -16.4535 2
      vertex 40.2712 -20.4362 2
      vertex 40.1765 -16.6666 2
    endloop
  endfacet
  facet normal 0 0 1
    outer loop
      vertex 39.4265 -16.1217 2
      vertex 40.2712 -20.4362 2
      vertex 39.7583 -16.4535 2
    endloop
  endfacet
  facet normal 0 0 1
    outer loop
      vertex 38.1 -24.1968 2
      vertex 39.4265 -16.1217 2
      vertex 39.2134 -15.7035 2
    endloop
  endfacet
  facet normal 0 0 1
    outer loop
      vertex 39.4265 -14.3583 2
      vertex 36.16 -5 2
      vertex 39.2134 -14.7765 2
    endloop
  endfacet
  facet normal 0 0 1
    outer loop
      vertex 39.4265 -16.1217 2
      vertex 38.1 -24.1968 2
      vertex 40.2712 -20.4362 2
    endloop
  endfacet
  facet normal 0 0 1
    outer loop
      vertex 10.16 -24.1968 2
      vertex 39.2134 -15.7035 2
      vertex 39.14 -15.24 2
    endloop
  endfacet
  facet normal 0 0 1
    outer loop
      vertex 39.2134 -14.7765 2
      vertex 36.16 -5 2
      vertex 39.14 -15.24 2
    endloop
  endfacet
  facet normal -0 0 1
    outer loop
      vertex 10.16 -5 2
      vertex 39.14 -15.24 2
      vertex 36.16 -5 2
    endloop
  endfacet
  facet normal 0 0 1
    outer loop
      vertex 36.16 7.7 2
      vertex 10.16 7.7 2
      vertex 36.16 -5 2
    endloop
  endfacet
  facet normal 0 0 1
    outer loop
      vertex 10.16 -5 2
      vertex 36.16 -5 2
      vertex 10.16 7.7 2
    endloop
  endfacet
  facet normal 0 0 1
    outer loop
      vertex 39.14 -15.24 2
      vertex 10.16 -5 2
      vertex 10.16 -24.1968 2
    endloop
  endfacet
  facet normal 0 0 1
    outer loop
      vertex 39.2134 -15.7035 2
      vertex 10.16 -24.1968 2
      vertex 38.1 -24.1968 2
    endloop
  endfacet
  facet normal -0 0 1
    outer loop
      vertex 7.62 -5 2
      vertex 10.16 -24.1968 2
      vertex 10.16 -5 2
    endloop
  endfacet
  facet normal -0 0 1
    outer loop
      vertex 1.42658 -0.463525 2
      vertex 7.62 -5 2
      vertex 1.5 0 2
    endloop
  endfacet
  facet normal -0 0 1
    outer loop
      vertex 1.21352 -0.881678 2
      vertex 7.62 -5 2
      vertex 1.42658 -0.463525 2
    endloop
  endfacet
  facet normal -0 0 1
    outer loop
      vertex 0.881678 -1.21352 2
      vertex 7.62 -5 2
      vertex 1.21352 -0.881678 2
    endloop
  endfacet
  facet normal 0 0 1
    outer loop
      vertex 7.62 -5 2
      vertex 0.881678 -1.21352 2
      vertex -0.81 -5.19615 2
    endloop
  endfacet
  facet normal 0 0 1
    outer loop
      vertex -0.81 -5.19615 2
      vertex 0.881678 -1.21352 2
      vertex 0.463525 -1.42658 2
    endloop
  endfacet
  facet normal 0 0 1
    outer loop
      vertex -0.81 -5.19615 2
      vertex 0.463525 -1.42658 2
      vertex 0 -1.5 2
    endloop
  endfacet
  facet normal 0 0 1
    outer loop
      vertex -0.81 -5.19615 2
      vertex 0 -1.5 2
      vertex -0.463525 -1.42658 2
    endloop
  endfacet
  facet normal 0 0 1
    outer loop
      vertex 7.62 -5 2
      vertex -0.81 -5.19615 2
      vertex 10.16 -24.1968 2
    endloop
  endfacet
  facet normal 0 0 1
    outer loop
      vertex -2.08 -5.19615 2
      vertex -0.463525 -1.42658 2
      vertex -0.881678 -1.21352 2
    endloop
  endfacet
  facet normal 0 0 1
    outer loop
      vertex -2.08 -5.19615 2
      vertex -0.881678 -1.21352 2
      vertex -1.21352 -0.881678 2
    endloop
  endfacet
  facet normal 0 0 1
    outer loop
      vertex -5.08 0 2
      vertex -1.21352 -0.881678 2
      vertex -1.42658 -0.463525 2
    endloop
  endfacet
  facet normal -0 0 1
    outer loop
      vertex -5.08 0 2
      vertex -1.42658 -0.463525 2
      vertex -1.5 0 2
    endloop
  endfacet
  facet normal 0 0 1
    outer loop
      vertex -0.463525 -1.42658 2
      vertex -2.08 -5.19615 2
      vertex -0.81 -5.19615 2
    endloop
  endfacet
  facet normal 0 0 1
    outer loop
      vertex -1.42658 0.463525 2
      vertex -5.08 0 2
      vertex -1.5 0 2
    endloop
  endfacet
  facet normal 0 0 1
    outer loop
      vertex -1.21352 -0.881678 2
      vertex -5.08 0 2
      vertex -2.08 -5.19615 2
    endloop
  endfacet
  facet normal -0.866025 0.5 0
    outer loop
      vertex 44.9556 -12.3225 2
      vertex 52.07 0 5
      vertex 52.07 0 2
    endloop
  endfacet
  facet normal -0.866025 0.5 0
    outer loop
      vertex 52.07 0 5
      vertex 44.9556 -12.3225 2
      vertex 44.9556 -12.3225 5
    endloop
  endfacet
  facet normal -0.866024 0.500003 0
    outer loop
      vertex 38.1 -24.1968 2
      vertex 40.2712 -20.4362 5
      vertex 40.2712 -20.4362 2
    endloop
  endfacet
  facet normal -0.866024 0.500003 0
    outer loop
      vertex 40.2712 -20.4362 5
      vertex 38.1 -24.1968 2
      vertex 38.1 -24.1968 5
    endloop
  endfacet
  facet normal -0.987687 -0.156445 0
    outer loop
      vertex 1.5 0 0
      vertex 1.42658 0.463525 2
      vertex 1.42658 0.463525 0
    endloop
  endfacet
  facet normal -0.987687 -0.156445 0
    outer loop
      vertex 1.42658 0.463525 2
      vertex 1.5 0 0
      vertex 1.5 0 2
    endloop
  endfacet
  facet normal -0.453991 -0.891006 0
    outer loop
      vertex 0.463525 1.42658 0
      vertex 0.881678 1.21352 2
      vertex 0.463525 1.42658 2
    endloop
  endfacet
  facet normal -0.453991 -0.891006 -0
    outer loop
      vertex 0.881678 1.21352 2
      vertex 0.463525 1.42658 0
      vertex 0.881678 1.21352 0
    endloop
  endfacet
  facet normal 0.891006 -0.453991 0
    outer loop
      vertex -1.42658 0.463525 2
      vertex -1.21352 0.881678 0
      vertex -1.21352 0.881678 2
    endloop
  endfacet
  facet normal 0.891006 -0.453991 0
    outer loop
      vertex -1.21352 0.881678 0
      vertex -1.42658 0.463525 2
      vertex -1.42658 0.463525 0
    endloop
  endfacet
  facet normal 0.453991 0.891006 -0
    outer loop
      vertex -0.463525 -1.42658 0
      vertex -0.881678 -1.21352 2
      vertex -0.463525 -1.42658 2
    endloop
  endfacet
  facet normal 0.453991 0.891006 0
    outer loop
      vertex -0.881678 -1.21352 2
      vertex -0.463525 -1.42658 0
      vertex -0.881678 -1.21352 0
    endloop
  endfacet
  facet normal -0.707107 -0.707107 0
    outer loop
      vertex 1.21352 0.881678 0
      vertex 0.881678 1.21352 2
      vertex 0.881678 1.21352 0
    endloop
  endfacet
  facet normal -0.707107 -0.707107 0
    outer loop
      vertex 0.881678 1.21352 2
      vertex 1.21352 0.881678 0
      vertex 1.21352 0.881678 2
    endloop
  endfacet
  facet normal -0.891006 -0.453991 0
    outer loop
      vertex 1.42658 0.463525 0
      vertex 1.21352 0.881678 2
      vertex 1.21352 0.881678 0
    endloop
  endfacet
  facet normal -0.891006 -0.453991 0
    outer loop
      vertex 1.21352 0.881678 2
      vertex 1.42658 0.463525 0
      vertex 1.42658 0.463525 2
    endloop
  endfacet
  facet normal -0.156445 -0.987687 0
    outer loop
      vertex 0 1.5 0
      vertex 0.463525 1.42658 2
      vertex 0 1.5 2
    endloop
  endfacet
  facet normal -0.156445 -0.987687 -0
    outer loop
      vertex 0.463525 1.42658 2
      vertex 0 1.5 0
      vertex 0.463525 1.42658 0
    endloop
  endfacet
  facet normal 0.156445 -0.987687 0
    outer loop
      vertex -0.463525 1.42658 0
      vertex 0 1.5 2
      vertex -0.463525 1.42658 2
    endloop
  endfacet
  facet normal 0.156445 -0.987687 0
    outer loop
      vertex 0 1.5 2
      vertex -0.463525 1.42658 0
      vertex 0 1.5 0
    endloop
  endfacet
  facet normal 0.453991 -0.891006 0
    outer loop
      vertex -0.881678 1.21352 0
      vertex -0.463525 1.42658 2
      vertex -0.881678 1.21352 2
    endloop
  endfacet
  facet normal 0.453991 -0.891006 0
    outer loop
      vertex -0.463525 1.42658 2
      vertex -0.881678 1.21352 0
      vertex -0.463525 1.42658 0
    endloop
  endfacet
  facet normal -0.707107 0.707107 0
    outer loop
      vertex 0.881678 -1.21352 0
      vertex 1.21352 -0.881678 2
      vertex 1.21352 -0.881678 0
    endloop
  endfacet
  facet normal -0.707107 0.707107 0
    outer loop
      vertex 1.21352 -0.881678 2
      vertex 0.881678 -1.21352 0
      vertex 0.881678 -1.21352 2
    endloop
  endfacet
  facet normal 0.987687 0.156445 0
    outer loop
      vertex -1.42658 -0.463525 2
      vertex -1.5 0 0
      vertex -1.5 0 2
    endloop
  endfacet
  facet normal 0.987687 0.156445 0
    outer loop
      vertex -1.5 0 0
      vertex -1.42658 -0.463525 2
      vertex -1.42658 -0.463525 0
    endloop
  endfacet
  facet normal 0.707107 0.707107 0
    outer loop
      vertex -0.881678 -1.21352 2
      vertex -1.21352 -0.881678 0
      vertex -1.21352 -0.881678 2
    endloop
  endfacet
  facet normal 0.707107 0.707107 0
    outer loop
      vertex -1.21352 -0.881678 0
      vertex -0.881678 -1.21352 2
      vertex -0.881678 -1.21352 0
    endloop
  endfacet
  facet normal 0.891006 0.453991 0
    outer loop
      vertex -1.21352 -0.881678 2
      vertex -1.42658 -0.463525 0
      vertex -1.42658 -0.463525 2
    endloop
  endfacet
  facet normal 0.891006 0.453991 0
    outer loop
      vertex -1.42658 -0.463525 0
      vertex -1.21352 -0.881678 2
      vertex -1.21352 -0.881678 0
    endloop
  endfacet
  facet normal 0.987687 -0.156445 0
    outer loop
      vertex -1.5 0 2
      vertex -1.42658 0.463525 0
      vertex -1.42658 0.463525 2
    endloop
  endfacet
  facet normal 0.987687 -0.156445 0
    outer loop
      vertex -1.42658 0.463525 0
      vertex -1.5 0 2
      vertex -1.5 0 0
    endloop
  endfacet
  facet normal 0.707107 -0.707107 0
    outer loop
      vertex -1.21352 0.881678 2
      vertex -0.881678 1.21352 0
      vertex -0.881678 1.21352 2
    endloop
  endfacet
  facet normal 0.707107 -0.707107 0
    outer loop
      vertex -0.881678 1.21352 0
      vertex -1.21352 0.881678 2
      vertex -1.21352 0.881678 0
    endloop
  endfacet
  facet normal -0.891006 0.453991 0
    outer loop
      vertex 1.21352 -0.881678 0
      vertex 1.42658 -0.463525 2
      vertex 1.42658 -0.463525 0
    endloop
  endfacet
  facet normal -0.891006 0.453991 0
    outer loop
      vertex 1.42658 -0.463525 2
      vertex 1.21352 -0.881678 0
      vertex 1.21352 -0.881678 2
    endloop
  endfacet
  facet normal -0.156445 0.987687 0
    outer loop
      vertex 0.463525 -1.42658 0
      vertex 0 -1.5 2
      vertex 0.463525 -1.42658 2
    endloop
  endfacet
  facet normal -0.156445 0.987687 0
    outer loop
      vertex 0 -1.5 2
      vertex 0.463525 -1.42658 0
      vertex 0 -1.5 0
    endloop
  endfacet
  facet normal -0.453991 0.891006 0
    outer loop
      vertex 0.881678 -1.21352 0
      vertex 0.463525 -1.42658 2
      vertex 0.881678 -1.21352 2
    endloop
  endfacet
  facet normal -0.453991 0.891006 0
    outer loop
      vertex 0.463525 -1.42658 2
      vertex 0.881678 -1.21352 0
      vertex 0.463525 -1.42658 0
    endloop
  endfacet
  facet normal 0.156445 0.987687 -0
    outer loop
      vertex 0 -1.5 0
      vertex -0.463525 -1.42658 2
      vertex 0 -1.5 2
    endloop
  endfacet
  facet normal 0.156445 0.987687 0
    outer loop
      vertex -0.463525 -1.42658 2
      vertex 0 -1.5 0
      vertex -0.463525 -1.42658 0
    endloop
  endfacet
  facet normal -0.987687 0.156445 0
    outer loop
      vertex 1.42658 -0.463525 0
      vertex 1.5 0 2
      vertex 1.5 0 0
    endloop
  endfacet
  facet normal -0.987687 0.156445 0
    outer loop
      vertex 1.5 0 2
      vertex 1.42658 -0.463525 0
      vertex 1.42658 -0.463525 2
    endloop
  endfacet
  facet normal 0 -1 0
    outer loop
      vertex -2.08 5.19615 2
      vertex -0.81 5.19615 5
      vertex -2.08 5.19615 5
    endloop
  endfacet
  facet normal 0 -1 -0
    outer loop
      vertex -0.81 5.19615 5
      vertex -2.08 5.19615 2
      vertex -0.81 5.19615 2
    endloop
  endfacet
  facet normal 0 1 -0
    outer loop
      vertex -0.81 -5.19615 2
      vertex -2.08 -5.19615 5
      vertex -0.81 -5.19615 5
    endloop
  endfacet
  facet normal 0 1 0
    outer loop
      vertex -2.08 -5.19615 5
      vertex -0.81 -5.19615 2
      vertex -2.08 -5.19615 2
    endloop
  endfacet
  facet normal -0.987692 -0.156411 0
    outer loop
      vertex 42.14 15.24 0
      vertex 42.0666 15.7035 2
      vertex 42.0666 15.7035 0
    endloop
  endfacet
  facet normal -0.987692 -0.156411 0
    outer loop
      vertex 42.0666 15.7035 2
      vertex 42.14 15.24 0
      vertex 42.14 15.24 2
    endloop
  endfacet
  facet normal 0.987692 -0.156411 0
    outer loop
      vertex 39.14 15.24 2
      vertex 39.2134 15.7035 0
      vertex 39.2134 15.7035 2
    endloop
  endfacet
  facet normal 0.987692 -0.156411 0
    outer loop
      vertex 39.2134 15.7035 0
      vertex 39.14 15.24 2
      vertex 39.14 15.24 0
    endloop
  endfacet
  facet normal -0.156411 -0.987692 0
    outer loop
      vertex 40.64 16.74 0
      vertex 41.1035 16.6666 2
      vertex 40.64 16.74 2
    endloop
  endfacet
  facet normal -0.156411 -0.987692 -0
    outer loop
      vertex 41.1035 16.6666 2
      vertex 40.64 16.74 0
      vertex 41.1035 16.6666 0
    endloop
  endfacet
  facet normal -0.156411 0.987692 0
    outer loop
      vertex 41.1035 13.8134 0
      vertex 40.64 13.74 2
      vertex 41.1035 13.8134 2
    endloop
  endfacet
  facet normal -0.156411 0.987692 0
    outer loop
      vertex 40.64 13.74 2
      vertex 41.1035 13.8134 0
      vertex 40.64 13.74 0
    endloop
  endfacet
  facet normal -0.454018 0.890992 0
    outer loop
      vertex 41.5217 14.0265 0
      vertex 41.1035 13.8134 2
      vertex 41.5217 14.0265 2
    endloop
  endfacet
  facet normal -0.454018 0.890992 0
    outer loop
      vertex 41.1035 13.8134 2
      vertex 41.5217 14.0265 0
      vertex 41.1035 13.8134 0
    endloop
  endfacet
  facet normal -0.707107 -0.707107 0
    outer loop
      vertex 41.8535 16.1217 0
      vertex 41.5217 16.4535 2
      vertex 41.5217 16.4535 0
    endloop
  endfacet
  facet normal -0.707107 -0.707107 0
    outer loop
      vertex 41.5217 16.4535 2
      vertex 41.8535 16.1217 0
      vertex 41.8535 16.1217 2
    endloop
  endfacet
  facet normal -0.890992 -0.454018 0
    outer loop
      vertex 42.0666 15.7035 0
      vertex 41.8535 16.1217 2
      vertex 41.8535 16.1217 0
    endloop
  endfacet
  facet normal -0.890992 -0.454018 0
    outer loop
      vertex 41.8535 16.1217 2
      vertex 42.0666 15.7035 0
      vertex 42.0666 15.7035 2
    endloop
  endfacet
  facet normal -0.454018 -0.890992 0
    outer loop
      vertex 41.1035 16.6666 0
      vertex 41.5217 16.4535 2
      vertex 41.1035 16.6666 2
    endloop
  endfacet
  facet normal -0.454018 -0.890992 -0
    outer loop
      vertex 41.5217 16.4535 2
      vertex 41.1035 16.6666 0
      vertex 41.5217 16.4535 0
    endloop
  endfacet
  facet normal 0.707107 -0.707107 0
    outer loop
      vertex 39.4265 16.1217 2
      vertex 39.7583 16.4535 0
      vertex 39.7583 16.4535 2
    endloop
  endfacet
  facet normal 0.707107 -0.707107 0
    outer loop
      vertex 39.7583 16.4535 0
      vertex 39.4265 16.1217 2
      vertex 39.4265 16.1217 0
    endloop
  endfacet
  facet normal 0.890992 -0.454018 0
    outer loop
      vertex 39.2134 15.7035 2
      vertex 39.4265 16.1217 0
      vertex 39.4265 16.1217 2
    endloop
  endfacet
  facet normal 0.890992 -0.454018 0
    outer loop
      vertex 39.4265 16.1217 0
      vertex 39.2134 15.7035 2
      vertex 39.2134 15.7035 0
    endloop
  endfacet
  facet normal 0.156411 -0.987692 0
    outer loop
      vertex 40.1765 16.6666 0
      vertex 40.64 16.74 2
      vertex 40.1765 16.6666 2
    endloop
  endfacet
  facet normal 0.156411 -0.987692 0
    outer loop
      vertex 40.64 16.74 2
      vertex 40.1765 16.6666 0
      vertex 40.64 16.74 0
    endloop
  endfacet
  facet normal 0.707107 0.707107 -0
    outer loop
      vertex 39.7583 14.0265 0
      vertex 39.4265 14.3583 2
      vertex 39.7583 14.0265 2
    endloop
  endfacet
  facet normal 0.707107 0.707107 0
    outer loop
      vertex 39.4265 14.3583 2
      vertex 39.7583 14.0265 0
      vertex 39.4265 14.3583 0
    endloop
  endfacet
  facet normal -0.890992 0.454018 0
    outer loop
      vertex 41.8535 14.3583 0
      vertex 42.0666 14.7765 2
      vertex 42.0666 14.7765 0
    endloop
  endfacet
  facet normal -0.890992 0.454018 0
    outer loop
      vertex 42.0666 14.7765 2
      vertex 41.8535 14.3583 0
      vertex 41.8535 14.3583 2
    endloop
  endfacet
  facet normal 0.454018 -0.890992 0
    outer loop
      vertex 39.7583 16.4535 0
      vertex 40.1765 16.6666 2
      vertex 39.7583 16.4535 2
    endloop
  endfacet
  facet normal 0.454018 -0.890992 0
    outer loop
      vertex 40.1765 16.6666 2
      vertex 39.7583 16.4535 0
      vertex 40.1765 16.6666 0
    endloop
  endfacet
  facet normal -0.987692 0.156411 0
    outer loop
      vertex 42.0666 14.7765 0
      vertex 42.14 15.24 2
      vertex 42.14 15.24 0
    endloop
  endfacet
  facet normal -0.987692 0.156411 0
    outer loop
      vertex 42.14 15.24 2
      vertex 42.0666 14.7765 0
      vertex 42.0666 14.7765 2
    endloop
  endfacet
  facet normal -0.707107 0.707107 0
    outer loop
      vertex 41.8535 14.3583 0
      vertex 41.5217 14.0265 2
      vertex 41.8535 14.3583 2
    endloop
  endfacet
  facet normal -0.707107 0.707107 0
    outer loop
      vertex 41.5217 14.0265 2
      vertex 41.8535 14.3583 0
      vertex 41.5217 14.0265 0
    endloop
  endfacet
  facet normal 0.156411 0.987692 -0
    outer loop
      vertex 40.64 13.74 0
      vertex 40.1765 13.8134 2
      vertex 40.64 13.74 2
    endloop
  endfacet
  facet normal 0.156411 0.987692 0
    outer loop
      vertex 40.1765 13.8134 2
      vertex 40.64 13.74 0
      vertex 40.1765 13.8134 0
    endloop
  endfacet
  facet normal 0.890992 0.454018 0
    outer loop
      vertex 39.4265 14.3583 2
      vertex 39.2134 14.7765 0
      vertex 39.2134 14.7765 2
    endloop
  endfacet
  facet normal 0.890992 0.454018 0
    outer loop
      vertex 39.2134 14.7765 0
      vertex 39.4265 14.3583 2
      vertex 39.4265 14.3583 0
    endloop
  endfacet
  facet normal 0.987692 0.156411 0
    outer loop
      vertex 39.2134 14.7765 2
      vertex 39.14 15.24 0
      vertex 39.14 15.24 2
    endloop
  endfacet
  facet normal 0.987692 0.156411 0
    outer loop
      vertex 39.14 15.24 0
      vertex 39.2134 14.7765 2
      vertex 39.2134 14.7765 0
    endloop
  endfacet
  facet normal 0.454018 0.890992 -0
    outer loop
      vertex 40.1765 13.8134 0
      vertex 39.7583 14.0265 2
      vertex 40.1765 13.8134 2
    endloop
  endfacet
  facet normal 0.454018 0.890992 0
    outer loop
      vertex 39.7583 14.0265 2
      vertex 40.1765 13.8134 0
      vertex 39.7583 14.0265 0
    endloop
  endfacet
  facet normal 0 -1 0
    outer loop
      vertex 40.2712 20.4362 2
      vertex 41.5412 20.4362 5
      vertex 40.2712 20.4362 5
    endloop
  endfacet
  facet normal 0 -1 -0
    outer loop
      vertex 41.5412 20.4362 5
      vertex 40.2712 20.4362 2
      vertex 41.5412 20.4362 2
    endloop
  endfacet
  facet normal -0.866035 0.499984 0
    outer loop
      vertex 44.9556 12.3225 2
      vertex 45.5906 13.4224 5
      vertex 45.5906 13.4224 2
    endloop
  endfacet
  facet normal -0.866035 0.499984 0
    outer loop
      vertex 45.5906 13.4224 5
      vertex 44.9556 12.3225 2
      vertex 44.9556 12.3225 5
    endloop
  endfacet
  facet normal -0.866035 -0.499984 0
    outer loop
      vertex 45.5906 -13.4224 2
      vertex 44.9556 -12.3225 5
      vertex 44.9556 -12.3225 2
    endloop
  endfacet
  facet normal -0.866035 -0.499984 0
    outer loop
      vertex 44.9556 -12.3225 5
      vertex 45.5906 -13.4224 2
      vertex 45.5906 -13.4224 5
    endloop
  endfacet
  facet normal 0 1 -0
    outer loop
      vertex 41.5412 -20.4362 2
      vertex 40.2712 -20.4362 5
      vertex 41.5412 -20.4362 5
    endloop
  endfacet
  facet normal 0 1 0
    outer loop
      vertex 40.2712 -20.4362 5
      vertex 41.5412 -20.4362 2
      vertex 40.2712 -20.4362 2
    endloop
  endfacet
  facet normal -0.987692 -0.156411 0
    outer loop
      vertex 42.14 -15.24 0
      vertex 42.0666 -14.7765 2
      vertex 42.0666 -14.7765 0
    endloop
  endfacet
  facet normal -0.987692 -0.156411 0
    outer loop
      vertex 42.0666 -14.7765 2
      vertex 42.14 -15.24 0
      vertex 42.14 -15.24 2
    endloop
  endfacet
  facet normal 0.987692 -0.156411 0
    outer loop
      vertex 39.14 -15.24 2
      vertex 39.2134 -14.7765 0
      vertex 39.2134 -14.7765 2
    endloop
  endfacet
  facet normal 0.987692 -0.156411 0
    outer loop
      vertex 39.2134 -14.7765 0
      vertex 39.14 -15.24 2
      vertex 39.14 -15.24 0
    endloop
  endfacet
  facet normal 0.156411 -0.987692 0
    outer loop
      vertex 40.1765 -13.8134 0
      vertex 40.64 -13.74 2
      vertex 40.1765 -13.8134 2
    endloop
  endfacet
  facet normal 0.156411 -0.987692 0
    outer loop
      vertex 40.64 -13.74 2
      vertex 40.1765 -13.8134 0
      vertex 40.64 -13.74 0
    endloop
  endfacet
  facet normal 0.156411 0.987692 -0
    outer loop
      vertex 40.64 -16.74 0
      vertex 40.1765 -16.6666 2
      vertex 40.64 -16.74 2
    endloop
  endfacet
  facet normal 0.156411 0.987692 0
    outer loop
      vertex 40.1765 -16.6666 2
      vertex 40.64 -16.74 0
      vertex 40.1765 -16.6666 0
    endloop
  endfacet
  facet normal -0.454018 -0.890992 0
    outer loop
      vertex 41.1035 -13.8134 0
      vertex 41.5217 -14.0265 2
      vertex 41.1035 -13.8134 2
    endloop
  endfacet
  facet normal -0.454018 -0.890992 -0
    outer loop
      vertex 41.5217 -14.0265 2
      vertex 41.1035 -13.8134 0
      vertex 41.5217 -14.0265 0
    endloop
  endfacet
  facet normal -0.890992 -0.454018 0
    outer loop
      vertex 42.0666 -14.7765 0
      vertex 41.8535 -14.3583 2
      vertex 41.8535 -14.3583 0
    endloop
  endfacet
  facet normal -0.890992 -0.454018 0
    outer loop
      vertex 41.8535 -14.3583 2
      vertex 42.0666 -14.7765 0
      vertex 42.0666 -14.7765 2
    endloop
  endfacet
  facet normal -0.156411 -0.987692 0
    outer loop
      vertex 40.64 -13.74 0
      vertex 41.1035 -13.8134 2
      vertex 40.64 -13.74 2
    endloop
  endfacet
  facet normal -0.156411 -0.987692 -0
    outer loop
      vertex 41.1035 -13.8134 2
      vertex 40.64 -13.74 0
      vertex 41.1035 -13.8134 0
    endloop
  endfacet
  facet normal 0.707107 -0.707107 0
    outer loop
      vertex 39.4265 -14.3583 0
      vertex 39.7583 -14.0265 2
      vertex 39.4265 -14.3583 2
    endloop
  endfacet
  facet normal 0.707107 -0.707107 0
    outer loop
      vertex 39.7583 -14.0265 2
      vertex 39.4265 -14.3583 0
      vertex 39.7583 -14.0265 0
    endloop
  endfacet
  facet normal 0.890992 -0.454018 0
    outer loop
      vertex 39.2134 -14.7765 2
      vertex 39.4265 -14.3583 0
      vertex 39.4265 -14.3583 2
    endloop
  endfacet
  facet normal 0.890992 -0.454018 0
    outer loop
      vertex 39.4265 -14.3583 0
      vertex 39.2134 -14.7765 2
      vertex 39.2134 -14.7765 0
    endloop
  endfacet
  facet normal 0.454018 -0.890992 0
    outer loop
      vertex 39.7583 -14.0265 0
      vertex 40.1765 -13.8134 2
      vertex 39.7583 -14.0265 2
    endloop
  endfacet
  facet normal 0.454018 -0.890992 0
    outer loop
      vertex 40.1765 -13.8134 2
      vertex 39.7583 -14.0265 0
      vertex 40.1765 -13.8134 0
    endloop
  endfacet
  facet normal -0.156411 0.987692 0
    outer loop
      vertex 41.1035 -16.6666 0
      vertex 40.64 -16.74 2
      vertex 41.1035 -16.6666 2
    endloop
  endfacet
  facet normal -0.156411 0.987692 0
    outer loop
      vertex 40.64 -16.74 2
      vertex 41.1035 -16.6666 0
      vertex 40.64 -16.74 0
    endloop
  endfacet
  facet normal -0.890992 0.454018 0
    outer loop
      vertex 41.8535 -16.1217 0
      vertex 42.0666 -15.7035 2
      vertex 42.0666 -15.7035 0
    endloop
  endfacet
  facet normal -0.890992 0.454018 0
    outer loop
      vertex 42.0666 -15.7035 2
      vertex 41.8535 -16.1217 0
      vertex 41.8535 -16.1217 2
    endloop
  endfacet
  facet normal 0.987692 0.156411 0
    outer loop
      vertex 39.2134 -15.7035 2
      vertex 39.14 -15.24 0
      vertex 39.14 -15.24 2
    endloop
  endfacet
  facet normal 0.987692 0.156411 0
    outer loop
      vertex 39.14 -15.24 0
      vertex 39.2134 -15.7035 2
      vertex 39.2134 -15.7035 0
    endloop
  endfacet
  facet normal -0.707107 -0.707107 0
    outer loop
      vertex 41.5217 -14.0265 0
      vertex 41.8535 -14.3583 2
      vertex 41.5217 -14.0265 2
    endloop
  endfacet
  facet normal -0.707107 -0.707107 -0
    outer loop
      vertex 41.8535 -14.3583 2
      vertex 41.5217 -14.0265 0
      vertex 41.8535 -14.3583 0
    endloop
  endfacet
  facet normal -0.454018 0.890992 0
    outer loop
      vertex 41.5217 -16.4535 0
      vertex 41.1035 -16.6666 2
      vertex 41.5217 -16.4535 2
    endloop
  endfacet
  facet normal -0.454018 0.890992 0
    outer loop
      vertex 41.1035 -16.6666 2
      vertex 41.5217 -16.4535 0
      vertex 41.1035 -16.6666 0
    endloop
  endfacet
  facet normal -0.987692 0.156411 0
    outer loop
      vertex 42.0666 -15.7035 0
      vertex 42.14 -15.24 2
      vertex 42.14 -15.24 0
    endloop
  endfacet
  facet normal -0.987692 0.156411 0
    outer loop
      vertex 42.14 -15.24 2
      vertex 42.0666 -15.7035 0
      vertex 42.0666 -15.7035 2
    endloop
  endfacet
  facet normal 0.707107 0.707107 0
    outer loop
      vertex 39.7583 -16.4535 2
      vertex 39.4265 -16.1217 0
      vertex 39.4265 -16.1217 2
    endloop
  endfacet
  facet normal 0.707107 0.707107 0
    outer loop
      vertex 39.4265 -16.1217 0
      vertex 39.7583 -16.4535 2
      vertex 39.7583 -16.4535 0
    endloop
  endfacet
  facet normal 0.890992 0.454018 0
    outer loop
      vertex 39.4265 -16.1217 2
      vertex 39.2134 -15.7035 0
      vertex 39.2134 -15.7035 2
    endloop
  endfacet
  facet normal 0.890992 0.454018 0
    outer loop
      vertex 39.2134 -15.7035 0
      vertex 39.4265 -16.1217 2
      vertex 39.4265 -16.1217 0
    endloop
  endfacet
  facet normal -0.707107 0.707107 0
    outer loop
      vertex 41.5217 -16.4535 0
      vertex 41.8535 -16.1217 2
      vertex 41.8535 -16.1217 0
    endloop
  endfacet
  facet normal -0.707107 0.707107 0
    outer loop
      vertex 41.8535 -16.1217 2
      vertex 41.5217 -16.4535 0
      vertex 41.5217 -16.4535 2
    endloop
  endfacet
  facet normal 0.454018 0.890992 -0
    outer loop
      vertex 40.1765 -16.6666 0
      vertex 39.7583 -16.4535 2
      vertex 40.1765 -16.6666 2
    endloop
  endfacet
  facet normal 0.454018 0.890992 0
    outer loop
      vertex 39.7583 -16.4535 2
      vertex 40.1765 -16.6666 0
      vertex 39.7583 -16.4535 0
    endloop
  endfacet
  facet normal -1 0 0
    outer loop
      vertex 7.62 -5 2
      vertex 7.62 7.7 6
      vertex 7.62 7.7 2
    endloop
  endfacet
  facet normal -1 -0 0
    outer loop
      vertex 7.62 7.7 6
      vertex 7.62 -5 2
      vertex 7.62 -5 6
    endloop
  endfacet
  facet normal -0 0 1
    outer loop
      vertex 7.62 7.7 6
      vertex 10.16 -5 6
      vertex 10.16 7.7 6
    endloop
  endfacet
  facet normal 0 0 1
    outer loop
      vertex 10.16 -5 6
      vertex 7.62 7.7 6
      vertex 7.62 -5 6
    endloop
  endfacet
  facet normal 1 -0 0
    outer loop
      vertex 10.16 -5 6
      vertex 10.16 7.7 2
      vertex 10.16 7.7 6
    endloop
  endfacet
  facet normal 1 0 0
    outer loop
      vertex 10.16 7.7 2
      vertex 10.16 -5 6
      vertex 10.16 -5 2
    endloop
  endfacet
  facet normal 0 -1 0
    outer loop
      vertex 7.62 -5 2
      vertex 10.16 -5 6
      vertex 7.62 -5 6
    endloop
  endfacet
  facet normal 0 -1 -0
    outer loop
      vertex 10.16 -5 6
      vertex 7.62 -5 2
      vertex 10.16 -5 2
    endloop
  endfacet
  facet normal 0 1 -0
    outer loop
      vertex 10.16 7.7 2
      vertex 7.62 7.7 6
      vertex 10.16 7.7 6
    endloop
  endfacet
  facet normal 0 1 0
    outer loop
      vertex 7.62 7.7 6
      vertex 10.16 7.7 2
      vertex 7.62 7.7 2
    endloop
  endfacet
  facet normal -1 0 0
    outer loop
      vertex 36.16 -5 2
      vertex 36.16 7.7 6
      vertex 36.16 7.7 2
    endloop
  endfacet
  facet normal -1 -0 0
    outer loop
      vertex 36.16 7.7 6
      vertex 36.16 -5 2
      vertex 36.16 -5 6
    endloop
  endfacet
  facet normal -0 0 1
    outer loop
      vertex 36.16 7.7 6
      vertex 38.7 -5 6
      vertex 38.7 7.7 6
    endloop
  endfacet
  facet normal 0 0 1
    outer loop
      vertex 38.7 -5 6
      vertex 36.16 7.7 6
      vertex 36.16 -5 6
    endloop
  endfacet
  facet normal 1 -0 0
    outer loop
      vertex 38.7 -5 6
      vertex 38.7 7.7 2
      vertex 38.7 7.7 6
    endloop
  endfacet
  facet normal 1 0 0
    outer loop
      vertex 38.7 7.7 2
      vertex 38.7 -5 6
      vertex 38.7 -5 2
    endloop
  endfacet
  facet normal 0 -1 0
    outer loop
      vertex 36.16 -5 2
      vertex 38.7 -5 6
      vertex 36.16 -5 6
    endloop
  endfacet
  facet normal 0 -1 -0
    outer loop
      vertex 38.7 -5 6
      vertex 36.16 -5 2
      vertex 38.7 -5 2
    endloop
  endfacet
  facet normal 0 1 -0
    outer loop
      vertex 38.7 7.7 2
      vertex 36.16 7.7 6
      vertex 38.7 7.7 6
    endloop
  endfacet
  facet normal 0 1 0
    outer loop
      vertex 36.16 7.7 6
      vertex 38.7 7.7 2
      vertex 36.16 7.7 2
    endloop
  endfacet
endsolid OpenSCAD_Model
